<svg xmlns="http://www.w3.org/2000/svg" xmlns:xlink="http://www.w3.org/1999/xlink" width="428" zoomAndPan="magnify" viewBox="0 0 321 132.749998" height="177" preserveAspectRatio="xMidYMid meet" version="1.2"><defs><clipPath id="46498a3ebb"><path d="M 234 18 L 249 18 L 249 40 L 234 40 Z M 234 18 "/></clipPath><clipPath id="67569f37f4"><path d="M 186.464844 27.117188 L 250.996094 -9.324219 L 288.542969 57.164062 L 224.011719 93.605469 Z M 186.464844 27.117188 "/></clipPath><clipPath id="8b56eae676"><path d="M 251.066406 -9.363281 L 186.535156 27.078125 L 224.082031 93.566406 L 288.613281 57.125 Z M 251.066406 -9.363281 "/></clipPath><clipPath id="ac1484f938"><path d="M 220 40 L 243 40 L 243 90 L 220 90 Z M 220 40 "/></clipPath><clipPath id="0991e62436"><path d="M 186.464844 27.117188 L 250.996094 -9.324219 L 288.542969 57.164062 L 224.011719 93.605469 Z M 186.464844 27.117188 "/></clipPath><clipPath id="92c8dc51e7"><path d="M 251.066406 -9.363281 L 186.535156 27.078125 L 224.082031 93.566406 L 288.613281 57.125 Z M 251.066406 -9.363281 "/></clipPath><clipPath id="4471bf428f"><path d="M 249 7 L 265 7 L 265 23 L 249 23 Z M 249 7 "/></clipPath><clipPath id="8fe787dfe4"><path d="M 186.464844 27.117188 L 250.996094 -9.324219 L 288.542969 57.164062 L 224.011719 93.605469 Z M 186.464844 27.117188 "/></clipPath><clipPath id="e015640547"><path d="M 251.066406 -9.363281 L 186.535156 27.078125 L 224.082031 93.566406 L 288.613281 57.125 Z M 251.066406 -9.363281 "/></clipPath><clipPath id="c22f3ba325"><path d="M 219 2 L 242 2 L 242 24 L 219 24 Z M 219 2 "/></clipPath><clipPath id="acc18dcaf7"><path d="M 186.464844 27.117188 L 250.996094 -9.324219 L 288.542969 57.164062 L 224.011719 93.605469 Z M 186.464844 27.117188 "/></clipPath><clipPath id="9594b8f312"><path d="M 251.066406 -9.363281 L 186.535156 27.078125 L 224.082031 93.566406 L 288.613281 57.125 Z M 251.066406 -9.363281 "/></clipPath><clipPath id="63055cbc60"><path d="M 219 25 L 231 25 L 231 38 L 219 38 Z M 219 25 "/></clipPath><clipPath id="b237f28fdf"><path d="M 186.464844 27.117188 L 250.996094 -9.324219 L 288.542969 57.164062 L 224.011719 93.605469 Z M 186.464844 27.117188 "/></clipPath><clipPath id="67a347882a"><path d="M 251.066406 -9.363281 L 186.535156 27.078125 L 224.082031 93.566406 L 288.613281 57.125 Z M 251.066406 -9.363281 "/></clipPath><clipPath id="9d3a0943e4"><path d="M 22 87 L 61 87 L 61 132.5 L 22 132.5 Z M 22 87 "/></clipPath><clipPath id="75591868fa"><path d="M 93 104 L 126 104 L 126 132.5 L 93 132.5 Z M 93 104 "/></clipPath><clipPath id="13c39f1ca2"><path d="M 152 95 L 173 95 L 173 132.5 L 152 132.5 Z M 152 95 "/></clipPath><clipPath id="f9b4b57302"><path d="M 243 95 L 264 95 L 264 132.5 L 243 132.5 Z M 243 95 "/></clipPath><clipPath id="e767ac8c2b"><path d="M 263 104 L 287 104 L 287 132.5 L 263 132.5 Z M 263 104 "/></clipPath><clipPath id="f2981e9a9a"><path d="M 3 69.535156 L 70 69.535156 L 70 112 L 3 112 Z M 3 69.535156 "/></clipPath><clipPath id="32e10052ac"><path d="M 219 74 L 228 74 L 228 92 L 219 92 Z M 219 74 "/></clipPath><clipPath id="283a11907c"><path d="M 223.691406 74.585938 L 232.289062 77.175781 L 227.96875 91.511719 L 219.367188 88.917969 Z M 223.691406 74.585938 "/></clipPath><clipPath id="dfb842717f"><path d="M 223.691406 74.585938 L 232.289062 77.175781 L 227.96875 91.511719 L 219.367188 88.917969 Z M 223.691406 74.585938 "/></clipPath><clipPath id="ffecc8603c"><path d="M 248.328125 56.382812 L 288.75 56.382812 L 288.75 93 L 248.328125 93 Z M 248.328125 56.382812 "/></clipPath><clipPath id="91a0742168"><path d="M 252.996094 60.855469 L 263.476562 60.855469 L 263.476562 71.335938 L 252.996094 71.335938 Z M 252.996094 60.855469 "/></clipPath><clipPath id="fe80298ccf"><path d="M 267.945312 70 L 283.667969 70 L 283.667969 73 L 267.945312 73 Z M 267.945312 70 "/></clipPath><clipPath id="b77d11d251"><path d="M 267.945312 74 L 283.667969 74 L 283.667969 77 L 267.945312 77 Z M 267.945312 74 "/></clipPath><clipPath id="0cd89a479c"><path d="M 267.945312 66.003906 L 283.667969 66.003906 L 283.667969 68 L 267.945312 68 Z M 267.945312 66.003906 "/></clipPath></defs><g id="398e63ad0c"><g clip-rule="nonzero" clip-path="url(#46498a3ebb)"><g clip-rule="nonzero" clip-path="url(#67569f37f4)"><g clip-rule="nonzero" clip-path="url(#8b56eae676)"><path style=" stroke:none;fill-rule:nonzero;fill:#cb6ce6;fill-opacity:1;" d="M 239.421875 36.960938 C 239.347656 36.941406 239.269531 36.921875 239.195312 36.898438 C 236.765625 36.242188 234.332031 35.859375 234.183594 36.390625 L 238.671875 20.253906 C 238.980469 19.15625 240.28125 18.5625 241.582031 18.921875 L 246.882812 20.398438 C 248.1875 20.761719 248.996094 21.945312 248.6875 23.039062 L 244.199219 39.171875 C 244.285156 38.839844 243.429688 38.355469 242.1875 37.867188 C 241.378906 37.550781 240.40625 37.234375 239.421875 36.960938 Z M 239.421875 36.960938 "/></g></g></g><g clip-rule="nonzero" clip-path="url(#ac1484f938)"><g clip-rule="nonzero" clip-path="url(#0991e62436)"><g clip-rule="nonzero" clip-path="url(#92c8dc51e7)"><path style=" stroke:none;fill-rule:nonzero;fill:#cb6ce6;fill-opacity:1;" d="M 233.058594 40.4375 C 233.203125 39.914062 235.570312 40.28125 237.964844 40.921875 L 237.96875 40.90625 L 238.199219 40.96875 C 240.695312 41.664062 243.117188 42.632812 242.976562 43.183594 L 230.03125 89.71875 C 228.371094 89.449219 226.734375 89.070312 225.128906 88.578125 L 225.125 88.59375 C 225.125 88.59375 221.761719 87.425781 220.191406 86.683594 Z M 233.058594 40.4375 "/></g></g></g><g clip-rule="nonzero" clip-path="url(#4471bf428f)"><g clip-rule="nonzero" clip-path="url(#8fe787dfe4)"><g clip-rule="nonzero" clip-path="url(#e015640547)"><path style=" stroke:none;fill-rule:nonzero;fill:#cb6ce6;fill-opacity:1;" d="M 249.152344 15.5625 C 249.152344 15.5625 254.085938 14.3125 254.921875 13.355469 C 255.761719 12.398438 256.351562 7.34375 256.351562 7.34375 C 256.351562 7.34375 257.601562 12.277344 258.558594 13.113281 C 259.515625 13.953125 264.570312 14.542969 264.570312 14.542969 C 264.570312 14.542969 259.550781 15.894531 258.800781 16.75 C 258.050781 17.609375 257.371094 22.765625 257.371094 22.765625 C 257.371094 22.765625 256.019531 17.742188 255.136719 16.964844 C 254.25 16.195312 249.152344 15.5625 249.152344 15.5625 Z M 249.152344 15.5625 "/></g></g></g><g clip-rule="nonzero" clip-path="url(#c22f3ba325)"><g clip-rule="nonzero" clip-path="url(#acc18dcaf7)"><g clip-rule="nonzero" clip-path="url(#9594b8f312)"><path style=" stroke:none;fill-rule:nonzero;fill:#cb6ce6;fill-opacity:1;" d="M 232.535156 15.65625 C 231.289062 16.738281 229.445312 23.703125 229.445312 23.703125 C 229.445312 23.703125 228.644531 16.609375 227.476562 15.261719 C 226.304688 13.914062 219.398438 12.132812 219.398438 12.132812 C 219.398438 12.132812 226.488281 11.335938 227.835938 10.164062 C 229.179688 8.996094 230.964844 2.085938 230.964844 2.085938 C 230.964844 2.085938 231.886719 9.320312 232.933594 10.523438 C 233.980469 11.726562 241.011719 13.652344 241.011719 13.652344 C 241.011719 13.652344 233.78125 14.574219 232.535156 15.65625 Z M 232.535156 15.65625 "/></g></g></g><g clip-rule="nonzero" clip-path="url(#63055cbc60)"><g clip-rule="nonzero" clip-path="url(#b237f28fdf)"><g clip-rule="nonzero" clip-path="url(#67a347882a)"><path style=" stroke:none;fill-rule:nonzero;fill:#cb6ce6;fill-opacity:1;" d="M 230.898438 31.914062 C 230.898438 31.914062 227.074219 32.492188 226.425781 33.082031 C 225.777344 33.667969 224.886719 37.382812 224.886719 37.382812 C 224.886719 37.382812 224.375 33.632812 223.738281 32.933594 C 223.101562 32.234375 219.417969 31.371094 219.417969 31.371094 C 219.417969 31.371094 223.167969 30.863281 223.867188 30.226562 C 224.570312 29.589844 225.429688 25.90625 225.429688 25.90625 C 225.429688 25.90625 226.007812 29.730469 226.574219 30.355469 C 227.144531 30.980469 230.898438 31.914062 230.898438 31.914062 Z M 230.898438 31.914062 "/></g></g></g><g clip-rule="nonzero" clip-path="url(#9d3a0943e4)"><g style="fill:#000000;fill-opacity:1;"><g transform="translate(21.633653, 131.712111)"><path style="stroke:none" d="M 26.015625 -8.859375 C 27.515625 -8.859375 28.96875 -9.082031 30.375 -9.53125 C 31.78125 -9.988281 32.8125 -10.425781 33.46875 -10.84375 L 34.46875 -11.515625 L 38.640625 -3.1875 C 38.492188 -3.082031 38.300781 -2.941406 38.0625 -2.765625 C 37.820312 -2.585938 37.253906 -2.265625 36.359375 -1.796875 C 35.472656 -1.328125 34.523438 -0.914062 33.515625 -0.5625 C 32.515625 -0.21875 31.195312 0.0859375 29.5625 0.359375 C 27.925781 0.640625 26.238281 0.78125 24.5 0.78125 C 20.507812 0.78125 16.722656 -0.195312 13.140625 -2.15625 C 9.554688 -4.125 6.671875 -6.828125 4.484375 -10.265625 C 2.296875 -13.710938 1.203125 -17.4375 1.203125 -21.4375 C 1.203125 -24.457031 1.84375 -27.359375 3.125 -30.140625 C 4.414062 -32.921875 6.128906 -35.300781 8.265625 -37.28125 C 10.398438 -39.257812 12.890625 -40.835938 15.734375 -42.015625 C 18.585938 -43.203125 21.507812 -43.796875 24.5 -43.796875 C 27.28125 -43.796875 29.84375 -43.460938 32.1875 -42.796875 C 34.539062 -42.140625 36.203125 -41.484375 37.171875 -40.828125 L 38.640625 -39.828125 L 34.46875 -31.5 C 34.21875 -31.707031 33.847656 -31.957031 33.359375 -32.25 C 32.878906 -32.539062 31.910156 -32.929688 30.453125 -33.421875 C 28.992188 -33.910156 27.515625 -34.15625 26.015625 -34.15625 C 23.648438 -34.15625 21.53125 -33.769531 19.65625 -33 C 17.78125 -32.238281 16.296875 -31.234375 15.203125 -29.984375 C 14.109375 -28.734375 13.273438 -27.382812 12.703125 -25.9375 C 12.128906 -24.5 11.84375 -23.03125 11.84375 -21.53125 C 11.84375 -18.269531 13.066406 -15.34375 15.515625 -12.75 C 17.960938 -10.15625 21.460938 -8.859375 26.015625 -8.859375 Z M 26.015625 -8.859375 "/></g></g></g><g style="fill:#000000;fill-opacity:1;"><g transform="translate(59.583973, 131.712111)"><path style="stroke:none" d="M 3.125 0 L 3.125 -44.84375 L 12.359375 -44.84375 L 12.359375 -23.9375 L 12.46875 -23.9375 C 14.863281 -26.332031 17.414062 -27.53125 20.125 -27.53125 C 21.445312 -27.53125 22.757812 -27.351562 24.0625 -27 C 25.363281 -26.65625 26.613281 -26.117188 27.8125 -25.390625 C 29.007812 -24.660156 29.984375 -23.625 30.734375 -22.28125 C 31.484375 -20.945312 31.859375 -19.394531 31.859375 -17.625 L 31.859375 0 L 22.625 0 L 22.625 -15.125 C 22.625 -16.507812 22.179688 -17.722656 21.296875 -18.765625 C 20.410156 -19.804688 19.253906 -20.328125 17.828125 -20.328125 C 16.441406 -20.328125 15.179688 -19.789062 14.046875 -18.71875 C 12.921875 -17.644531 12.359375 -16.445312 12.359375 -15.125 L 12.359375 0 Z M 3.125 0 "/></g></g><g clip-rule="nonzero" clip-path="url(#75591868fa)"><g style="fill:#000000;fill-opacity:1;"><g transform="translate(92.738336, 131.712111)"><path style="stroke:none" d="M 4.953125 -3.3125 C 2.453125 -6.039062 1.203125 -9.382812 1.203125 -13.34375 C 1.203125 -17.3125 2.453125 -20.664062 4.953125 -23.40625 C 7.453125 -26.15625 10.632812 -27.53125 14.5 -27.53125 C 18.039062 -27.53125 20.957031 -26.414062 23.25 -24.1875 L 23.25 -26.75 L 32.484375 -26.75 L 32.484375 0 L 23.359375 0 L 23.359375 -3.03125 L 23.25 -3.03125 C 20.957031 -0.488281 18.039062 0.78125 14.5 0.78125 C 10.632812 0.78125 7.453125 -0.582031 4.953125 -3.3125 Z M 12.796875 -17.875 C 11.597656 -16.695312 11 -15.1875 11 -13.34375 C 11 -11.5 11.570312 -9.992188 12.71875 -8.828125 C 13.863281 -7.671875 15.378906 -7.09375 17.265625 -7.09375 C 19.066406 -7.09375 20.550781 -7.679688 21.71875 -8.859375 C 22.882812 -10.046875 23.46875 -11.539062 23.46875 -13.34375 C 23.46875 -15.1875 22.863281 -16.695312 21.65625 -17.875 C 20.457031 -19.0625 18.992188 -19.65625 17.265625 -19.65625 C 15.484375 -19.65625 13.992188 -19.0625 12.796875 -17.875 Z M 12.796875 -17.875 "/></g></g></g><g style="fill:#000000;fill-opacity:1;"><g transform="translate(127.039547, 131.712111)"><path style="stroke:none" d="M 3.125 0 L 3.125 -26.75 L 12.359375 -26.75 L 12.359375 -22.890625 L 12.46875 -22.890625 C 12.53125 -23.023438 12.640625 -23.195312 12.796875 -23.40625 C 12.953125 -23.613281 13.289062 -23.976562 13.8125 -24.5 C 14.332031 -25.019531 14.890625 -25.488281 15.484375 -25.90625 C 16.078125 -26.332031 16.84375 -26.707031 17.78125 -27.03125 C 18.71875 -27.363281 19.671875 -27.53125 20.640625 -27.53125 C 21.648438 -27.53125 22.640625 -27.390625 23.609375 -27.109375 C 24.585938 -26.835938 25.300781 -26.5625 25.75 -26.28125 L 26.484375 -25.859375 L 22.625 -18.046875 C 21.476562 -19.015625 19.878906 -19.5 17.828125 -19.5 C 16.710938 -19.5 15.753906 -19.253906 14.953125 -18.765625 C 14.160156 -18.285156 13.597656 -17.695312 13.265625 -17 C 12.941406 -16.300781 12.707031 -15.707031 12.5625 -15.21875 C 12.425781 -14.738281 12.359375 -14.359375 12.359375 -14.078125 L 12.359375 0 Z M 3.125 0 "/></g></g><g clip-rule="nonzero" clip-path="url(#13c39f1ca2)"><g style="fill:#000000;fill-opacity:1;"><g transform="translate(151.696722, 131.712111)"><path style="stroke:none" d="M 4.6875 -26.75 L 4.6875 -36.703125 L 13.921875 -36.703125 L 13.921875 -26.75 L 19.546875 -26.75 L 19.546875 -19.703125 L 13.921875 -19.703125 L 13.921875 -11.203125 C 13.921875 -8.742188 14.613281 -7.515625 16 -7.515625 C 16.351562 -7.515625 16.71875 -7.582031 17.09375 -7.71875 C 17.476562 -7.851562 17.773438 -7.992188 17.984375 -8.140625 L 18.296875 -8.34375 L 20.59375 -0.890625 C 18.613281 0.222656 16.351562 0.78125 13.8125 0.78125 C 12.070312 0.78125 10.578125 0.476562 9.328125 -0.125 C 8.078125 -0.738281 7.128906 -1.554688 6.484375 -2.578125 C 5.847656 -3.609375 5.390625 -4.6875 5.109375 -5.8125 C 4.828125 -6.945312 4.6875 -8.15625 4.6875 -9.4375 L 4.6875 -19.703125 L 0.828125 -19.703125 L 0.828125 -26.75 Z M 4.6875 -26.75 "/></g></g></g><g style="fill:#cb6ce6;fill-opacity:1;"><g transform="translate(170.989825, 131.712111)"><path style="stroke:none" d="M 36.140625 0 L 29.25 -24.140625 L 22.375 0 L 11.46875 0 L -0.78125 -43.015625 L 10.109375 -43.015625 L 17.46875 -13.5 L 17.734375 -13.5 L 25.546875 -43.015625 L 32.953125 -43.015625 L 40.78125 -13.5 L 41.03125 -13.5 L 48.390625 -43.015625 L 59.234375 -43.015625 L 46.984375 0 Z M 36.140625 0 "/></g></g><g style="fill:#cb6ce6;fill-opacity:1;"><g transform="translate(228.123968, 131.712111)"><path style="stroke:none" d="M 4.015625 -41.65625 C 5.085938 -42.738281 6.367188 -43.28125 7.859375 -43.28125 C 9.359375 -43.28125 10.644531 -42.738281 11.71875 -41.65625 C 12.800781 -40.582031 13.34375 -39.296875 13.34375 -37.796875 C 13.34375 -36.304688 12.800781 -35.019531 11.71875 -33.9375 C 10.644531 -32.863281 9.359375 -32.328125 7.859375 -32.328125 C 6.367188 -32.328125 5.085938 -32.863281 4.015625 -33.9375 C 2.941406 -35.019531 2.40625 -36.304688 2.40625 -37.796875 C 2.40625 -39.296875 2.941406 -40.582031 4.015625 -41.65625 Z M 3.125 -26.75 L 3.125 0 L 12.359375 0 L 12.359375 -26.75 Z M 3.125 -26.75 "/></g></g><g clip-rule="nonzero" clip-path="url(#f9b4b57302)"><g style="fill:#cb6ce6;fill-opacity:1;"><g transform="translate(242.563676, 131.712111)"><path style="stroke:none" d="M 4.6875 -26.75 L 4.6875 -36.703125 L 13.921875 -36.703125 L 13.921875 -26.75 L 19.546875 -26.75 L 19.546875 -19.703125 L 13.921875 -19.703125 L 13.921875 -11.203125 C 13.921875 -8.742188 14.613281 -7.515625 16 -7.515625 C 16.351562 -7.515625 16.71875 -7.582031 17.09375 -7.71875 C 17.476562 -7.851562 17.773438 -7.992188 17.984375 -8.140625 L 18.296875 -8.34375 L 20.59375 -0.890625 C 18.613281 0.222656 16.351562 0.78125 13.8125 0.78125 C 12.070312 0.78125 10.578125 0.476562 9.328125 -0.125 C 8.078125 -0.738281 7.128906 -1.554688 6.484375 -2.578125 C 5.847656 -3.609375 5.390625 -4.6875 5.109375 -5.8125 C 4.828125 -6.945312 4.6875 -8.15625 4.6875 -9.4375 L 4.6875 -19.703125 L 0.828125 -19.703125 L 0.828125 -26.75 Z M 4.6875 -26.75 "/></g></g></g><g clip-rule="nonzero" clip-path="url(#e767ac8c2b)"><g style="fill:#cb6ce6;fill-opacity:1;"><g transform="translate(261.851465, 131.712111)"><path style="stroke:none" d="M 17.359375 -19.96875 C 15.617188 -19.96875 14.125 -19.320312 12.875 -18.03125 C 11.625 -16.75 11 -15.207031 11 -13.40625 C 11 -11.5625 11.625 -9.992188 12.875 -8.703125 C 14.125 -7.421875 15.617188 -6.78125 17.359375 -6.78125 C 18.191406 -6.78125 18.984375 -6.882812 19.734375 -7.09375 C 20.484375 -7.300781 21.03125 -7.507812 21.375 -7.71875 L 21.84375 -8.03125 L 24.96875 -1.609375 C 24.726562 -1.441406 24.390625 -1.226562 23.953125 -0.96875 C 23.523438 -0.707031 22.535156 -0.351562 20.984375 0.09375 C 19.441406 0.550781 17.78125 0.78125 16 0.78125 C 12.070312 0.78125 8.625 -0.597656 5.65625 -3.359375 C 2.6875 -6.128906 1.203125 -9.441406 1.203125 -13.296875 C 1.203125 -17.191406 2.6875 -20.535156 5.65625 -23.328125 C 8.625 -26.128906 12.070312 -27.53125 16 -27.53125 C 17.78125 -27.53125 19.414062 -27.320312 20.90625 -26.90625 C 22.40625 -26.488281 23.46875 -26.070312 24.09375 -25.65625 L 24.96875 -25.03125 L 21.84375 -18.71875 C 20.695312 -19.550781 19.203125 -19.96875 17.359375 -19.96875 Z M 17.359375 -19.96875 "/></g></g></g><g style="fill:#cb6ce6;fill-opacity:1;"><g transform="translate(286.143723, 131.712111)"><path style="stroke:none" d="M 3.125 0 L 3.125 -44.84375 L 12.359375 -44.84375 L 12.359375 -23.9375 L 12.46875 -23.9375 C 14.863281 -26.332031 17.414062 -27.53125 20.125 -27.53125 C 21.445312 -27.53125 22.757812 -27.351562 24.0625 -27 C 25.363281 -26.65625 26.613281 -26.117188 27.8125 -25.390625 C 29.007812 -24.660156 29.984375 -23.625 30.734375 -22.28125 C 31.484375 -20.945312 31.859375 -19.394531 31.859375 -17.625 L 31.859375 0 L 22.625 0 L 22.625 -15.125 C 22.625 -16.507812 22.179688 -17.722656 21.296875 -18.765625 C 20.410156 -19.804688 19.253906 -20.328125 17.828125 -20.328125 C 16.441406 -20.328125 15.179688 -19.789062 14.046875 -18.71875 C 12.921875 -17.644531 12.359375 -16.445312 12.359375 -15.125 L 12.359375 0 Z M 3.125 0 "/></g></g><g clip-rule="nonzero" clip-path="url(#f2981e9a9a)"><path style=" stroke:none;fill-rule:nonzero;fill:#6b6666;fill-opacity:1;" d="M 21.023438 99.050781 C 19.71875 96.96875 18.472656 94.847656 17.285156 92.699219 C 13.632812 93.726562 9.9375 94.753906 6.246094 95.785156 C 10.253906 88.753906 14.261719 81.722656 18.269531 74.691406 C 19.507812 72.519531 21.085938 70.109375 23.566406 69.785156 C 25.0625 69.589844 26.53125 70.234375 27.890625 70.894531 C 33.789062 73.75 39.410156 77.183594 44.542969 81.152344 C 51.695312 77.996094 67.035156 72.660156 68.96875 76.234375 C 70.898438 79.808594 28.007812 103.859375 5.988281 111.441406 C 3.890625 112.160156 3.460938 110.601562 4.027344 109.605469 C 6.066406 106.007812 15.105469 99.226562 19.785156 96.796875 "/></g><path style=" stroke:none;fill-rule:nonzero;fill:#cb6ce6;fill-opacity:1;" d="M 44.40625 81.074219 C 42.925781 79.910156 42.40625 79.578125 41.15625 78.691406 C 34.773438 85.527344 27.117188 91.625 18.851562 95.457031 C 19.160156 96.003906 19.730469 96.972656 20.824219 98.742188 C 23.335938 97.476562 30.761719 93.324219 32.996094 91.6875 C 35.980469 89.5 43.097656 84.507812 44.402344 81.074219 Z M 44.40625 81.074219 "/><g clip-rule="nonzero" clip-path="url(#32e10052ac)"><g clip-rule="nonzero" clip-path="url(#283a11907c)"><g clip-rule="nonzero" clip-path="url(#dfb842717f)"><path style=" stroke:none;fill-rule:nonzero;fill:#cb6ce6;fill-opacity:1;" d="M 223.6875 74.59375 L 221.53125 81.753906 L 219.375 88.910156 C 222.234375 89.769531 225.09375 90.625 227.957031 91.484375 C 226.53125 85.855469 225.109375 80.222656 223.6875 74.59375 "/></g></g></g><g clip-rule="nonzero" clip-path="url(#ffecc8603c)"><path style=" stroke:none;fill-rule:evenodd;fill:#4a4a4a;fill-opacity:1;" d="M 285.710938 58.902344 L 251.109375 58.902344 C 251.035156 58.902344 250.964844 58.9375 250.921875 58.988281 C 250.871094 59.039062 250.847656 59.105469 250.847656 59.175781 L 250.847656 81.222656 C 250.847656 81.300781 250.878906 81.367188 250.921875 81.410156 C 250.972656 81.460938 251.042969 81.496094 251.109375 81.496094 L 285.703125 81.496094 C 285.777344 81.496094 285.847656 81.460938 285.890625 81.410156 C 285.941406 81.359375 285.976562 81.289062 285.976562 81.222656 L 285.976562 59.175781 C 285.976562 59.097656 285.941406 59.03125 285.890625 58.988281 C 285.855469 58.9375 285.785156 58.902344 285.710938 58.902344 Z M 264.902344 85.875 L 271.917969 85.875 L 271.917969 88.386719 L 264.902344 88.386719 Z M 260.339844 90.265625 L 276.480469 90.265625 L 276.480469 92.773438 L 260.339844 92.773438 Z M 251.109375 56.390625 L 285.703125 56.390625 C 286.46875 56.390625 287.171875 56.707031 287.675781 57.210938 C 288.179688 57.714844 288.492188 58.414062 288.492188 59.183594 L 288.492188 81.230469 C 288.492188 82 288.179688 82.699219 287.675781 83.203125 C 287.171875 83.707031 286.46875 84.023438 285.703125 84.023438 L 251.109375 84.023438 C 250.34375 84.023438 249.640625 83.707031 249.136719 83.203125 C 248.644531 82.691406 248.328125 81.992188 248.328125 81.222656 L 248.328125 59.175781 C 248.328125 58.40625 248.644531 57.707031 249.148438 57.203125 C 249.652344 56.707031 250.351562 56.390625 251.109375 56.390625 Z M 251.109375 56.390625 "/></g><g clip-rule="nonzero" clip-path="url(#91a0742168)"><path style=" stroke:none;fill-rule:nonzero;fill:#4a4a4a;fill-opacity:1;" d="M 263.476562 65.117188 L 263.476562 67.074219 C 263.476562 67.363281 263.246094 67.59375 262.960938 67.59375 L 259.734375 67.59375 L 259.734375 70.820312 C 259.734375 71.105469 259.503906 71.335938 259.214844 71.335938 L 257.257812 71.335938 C 256.972656 71.335938 256.738281 71.105469 256.738281 70.820312 L 256.738281 67.59375 L 253.515625 67.59375 C 253.230469 67.59375 252.996094 67.363281 252.996094 67.074219 L 252.996094 65.117188 C 252.996094 64.832031 253.230469 64.601562 253.515625 64.601562 L 256.738281 64.601562 L 256.738281 61.375 C 256.738281 61.089844 256.972656 60.855469 257.257812 60.855469 L 259.214844 60.855469 C 259.503906 60.855469 259.734375 61.089844 259.734375 61.375 L 259.734375 64.601562 L 262.960938 64.601562 C 263.246094 64.601562 263.476562 64.832031 263.476562 65.117188 "/></g><g clip-rule="nonzero" clip-path="url(#fe80298ccf)"><path style=" stroke:none;fill-rule:nonzero;fill:#4a4a4a;fill-opacity:1;" d="M 282.375 70.492188 L 268.910156 70.492188 C 268.378906 70.492188 267.949219 70.921875 267.949219 71.453125 C 267.949219 71.984375 268.378906 72.414062 268.910156 72.414062 L 282.375 72.414062 C 282.90625 72.414062 283.339844 71.984375 283.339844 71.453125 C 283.339844 70.921875 282.90625 70.492188 282.375 70.492188 Z M 282.375 70.492188 "/></g><g clip-rule="nonzero" clip-path="url(#b77d11d251)"><path style=" stroke:none;fill-rule:nonzero;fill:#4a4a4a;fill-opacity:1;" d="M 282.375 74.980469 L 268.910156 74.980469 C 268.378906 74.980469 267.949219 75.410156 267.949219 75.941406 C 267.949219 76.472656 268.378906 76.902344 268.910156 76.902344 L 282.375 76.902344 C 282.90625 76.902344 283.339844 76.472656 283.339844 75.941406 C 283.339844 75.410156 282.90625 74.980469 282.375 74.980469 Z M 282.375 74.980469 "/></g><g clip-rule="nonzero" clip-path="url(#0cd89a479c)"><path style=" stroke:none;fill-rule:nonzero;fill:#4a4a4a;fill-opacity:1;" d="M 268.910156 67.925781 L 282.375 67.925781 C 282.90625 67.925781 283.339844 67.496094 283.339844 66.964844 C 283.339844 66.433594 282.90625 66.003906 282.375 66.003906 L 268.910156 66.003906 C 268.378906 66.003906 267.949219 66.433594 267.949219 66.964844 C 267.949219 67.496094 268.378906 67.925781 268.910156 67.925781 Z M 268.910156 67.925781 "/></g></g></svg>