<svg width="428" height="177" viewBox="0 0 428 177" fill="none" xmlns="http://www.w3.org/2000/svg">
<mask id="mask0_1_143" style="mask-type:luminance" maskUnits="userSpaceOnUse" x="306" y="21" width="21" height="29">
<path d="M306.656 21.3334H326.656V49.3334H306.656V21.3334Z" fill="white"/>
</mask>
<g mask="url(#mask0_1_143)">
<mask id="mask1_1_143" style="mask-type:luminance" maskUnits="userSpaceOnUse" x="244" y="-15" width="134" height="135">
<path d="M244.635 33.2813L328.745 -14.2135L377.286 71.7396L293.177 119.24L244.635 33.2813Z" fill="white"/>
</mask>
<g mask="url(#mask1_1_143)">
<mask id="mask2_1_143" style="mask-type:luminance" maskUnits="userSpaceOnUse" x="244" y="-15" width="134" height="135">
<path d="M328.786 -14.2395L244.682 33.2553L293.219 119.214L377.328 71.7188L328.786 -14.2395Z" fill="white"/>
</mask>
<g mask="url(#mask2_1_143)">
<path d="M313.599 46.1615C313.5 46.1355 313.401 46.1094 313.302 46.0834C310.13 45.224 306.964 44.724 306.766 45.4167L312.62 24.375C313.021 22.948 314.719 22.1719 316.417 22.6407L323.328 24.5678C325.026 25.0365 326.083 26.5834 325.682 28.0105L319.828 49.0469C319.943 48.6146 318.823 47.9792 317.203 47.3438C316.151 46.9323 314.885 46.5209 313.599 46.1615Z" fill="#CB6CE6"/>
</g>
</g>
</g>
<mask id="mask3_1_143" style="mask-type:luminance" maskUnits="userSpaceOnUse" x="287" y="49" width="32" height="67">
<path d="M287.99 49.3334H318.656V116H287.99V49.3334Z" fill="white"/>
</mask>
<g mask="url(#mask3_1_143)">
<mask id="mask4_1_143" style="mask-type:luminance" maskUnits="userSpaceOnUse" x="244" y="-15" width="134" height="135">
<path d="M244.635 33.2813L328.745 -14.2135L377.287 71.7396L293.177 119.24L244.635 33.2813Z" fill="white"/>
</mask>
<g mask="url(#mask4_1_143)">
<mask id="mask5_1_143" style="mask-type:luminance" maskUnits="userSpaceOnUse" x="244" y="-15" width="134" height="135">
<path d="M328.787 -14.2395L244.682 33.2553L293.219 119.214L377.328 71.7188L328.787 -14.2395Z" fill="white"/>
</mask>
<g mask="url(#mask5_1_143)">
<path d="M305.297 50.698C305.49 50.0157 308.578 50.4948 311.703 51.3282L311.708 51.3073L312.005 51.3907C315.261 52.2969 318.422 53.5573 318.235 54.2761L301.354 114.958C299.188 114.609 297.057 114.115 294.958 113.474L294.953 113.495C294.953 113.495 290.568 111.969 288.521 111L305.297 50.698Z" fill="#CB6CE6"/>
</g>
</g>
</g>
<mask id="mask6_1_143" style="mask-type:luminance" maskUnits="userSpaceOnUse" x="325" y="6" width="22" height="22">
<path d="M325.323 6.66663H346.656V28H325.323V6.66663Z" fill="white"/>
</mask>
<g mask="url(#mask6_1_143)">
<mask id="mask7_1_143" style="mask-type:luminance" maskUnits="userSpaceOnUse" x="244" y="-15" width="134" height="135">
<path d="M244.635 33.2812L328.745 -14.2136L377.286 71.7395L293.177 119.24L244.635 33.2812Z" fill="white"/>
</mask>
<g mask="url(#mask7_1_143)">
<mask id="mask8_1_143" style="mask-type:luminance" maskUnits="userSpaceOnUse" x="244" y="-15" width="134" height="135">
<path d="M328.786 -14.2396L244.682 33.2552L293.219 119.214L377.328 71.7187L328.786 -14.2396Z" fill="white"/>
</mask>
<g mask="url(#mask8_1_143)">
<path d="M326.286 18.2604C326.286 18.2604 332.719 16.625 333.812 15.3802C334.901 14.1302 335.672 7.54163 335.672 7.54163C335.672 7.54163 337.307 13.9739 338.552 15.0677C339.802 16.1614 346.396 16.9323 346.396 16.9323C346.396 16.9323 339.844 18.6927 338.87 19.8073C337.891 20.927 337.005 27.651 337.005 27.651C337.005 27.651 335.24 21.0989 334.088 20.0885C332.932 19.0833 326.286 18.2604 326.286 18.2604Z" fill="#CB6CE6"/>
</g>
</g>
</g>
<mask id="mask9_1_143" style="mask-type:luminance" maskUnits="userSpaceOnUse" x="286" y="0" width="30" height="30">
<path d="M286.656 0H315.99V29.3333H286.656V0Z" fill="white"/>
</mask>
<g mask="url(#mask9_1_143)">
<mask id="mask10_1_143" style="mask-type:luminance" maskUnits="userSpaceOnUse" x="244" y="-15" width="134" height="135">
<path d="M244.635 33.2813L328.745 -14.2135L377.286 71.7396L293.177 119.24L244.635 33.2813Z" fill="white"/>
</mask>
<g mask="url(#mask10_1_143)">
<mask id="mask11_1_143" style="mask-type:luminance" maskUnits="userSpaceOnUse" x="244" y="-15" width="134" height="135">
<path d="M328.786 -14.2395L244.682 33.2553L293.219 119.214L377.328 71.7188L328.786 -14.2395Z" fill="white"/>
</mask>
<g mask="url(#mask11_1_143)">
<path d="M304.615 18.3803C302.995 19.7918 300.588 28.8751 300.588 28.8751C300.588 28.8751 299.547 19.6251 298.021 17.8699C296.495 16.1095 287.49 13.7866 287.49 13.7866C287.49 13.7866 296.734 12.7449 298.49 11.2189C300.245 9.69283 302.568 0.687622 302.568 0.687622C302.568 0.687622 303.776 10.1199 305.135 11.6876C306.5 13.2605 315.672 15.771 315.672 15.771C315.672 15.771 306.24 16.9741 304.615 18.3803Z" fill="#CB6CE6"/>
</g>
</g>
</g>
<mask id="mask12_1_143" style="mask-type:luminance" maskUnits="userSpaceOnUse" x="286" y="30" width="17" height="18">
<path d="M286.656 30.6666H302.656V48H286.656V30.6666Z" fill="white"/>
</mask>
<g mask="url(#mask12_1_143)">
<mask id="mask13_1_143" style="mask-type:luminance" maskUnits="userSpaceOnUse" x="244" y="-15" width="134" height="135">
<path d="M244.635 33.2812L328.745 -14.2136L377.286 71.7395L293.177 119.24L244.635 33.2812Z" fill="white"/>
</mask>
<g mask="url(#mask13_1_143)">
<mask id="mask14_1_143" style="mask-type:luminance" maskUnits="userSpaceOnUse" x="244" y="-15" width="134" height="135">
<path d="M328.786 -14.2396L244.682 33.2552L293.219 119.214L377.328 71.7187L328.786 -14.2396Z" fill="white"/>
</mask>
<g mask="url(#mask14_1_143)">
<path d="M302.484 39.5833C302.484 39.5833 297.495 40.3333 296.651 41.1041C295.807 41.8698 294.641 46.7135 294.641 46.7135C294.641 46.7135 293.979 41.8229 293.146 40.9114C292.318 40 287.516 38.875 287.516 38.875C287.516 38.875 292.401 38.2135 293.318 37.3802C294.229 36.552 295.354 31.7448 295.354 31.7448C295.354 31.7448 296.104 36.7343 296.844 37.5468C297.589 38.3645 302.484 39.5833 302.484 39.5833Z" fill="#CB6CE6"/>
</g>
</g>
</g>
<path d="M346.286 84.7656C346.266 84.7656 346.245 84.7656 346.224 84.7604C345.797 84.7344 345.427 84.4584 345.276 84.0521L343.812 80.1146L343.729 80.5104C343.724 80.5209 343.724 80.5261 343.719 80.5365L343.312 82.2188C343.193 82.7084 342.76 83.0521 342.266 83.0521H338.672C338.073 83.0521 337.589 82.5625 337.589 81.9584C337.589 81.349 338.073 80.8594 338.667 80.8594L341.417 80.8542L341.62 80.0261L342.484 76.0417C342.589 75.5677 342.984 75.2188 343.464 75.1823C343.943 75.1459 344.38 75.4323 344.552 75.8906L346.437 80.9636L347.365 79.125C347.547 78.7604 347.911 78.5313 348.312 78.5261C348.318 78.5261 348.323 78.5261 348.323 78.5261C348.724 78.5261 349.089 78.75 349.276 79.1094L350.198 80.8542L354.078 80.8594C354.677 80.8594 355.161 81.349 355.161 81.9584C355.156 82.5625 354.677 83.0521 354.078 83.0521H349.547C349.151 83.0521 348.781 82.8281 348.594 82.4688L348.344 81.9896L347.245 84.1667C347.062 84.5365 346.687 84.7656 346.286 84.7656Z" fill="black"/>
<path d="M352.635 92.3854C352.359 92.3854 352.083 92.2813 351.875 92.0625C350.479 90.6458 348.896 89.0417 347.484 87.4583C347.083 87.0052 347.12 86.3125 347.563 85.9063C348 85.5 348.682 85.5313 349.089 85.9844C350.214 87.25 351.464 88.5417 352.635 89.7344C357.005 85.2865 361.271 80.724 361.271 76.4844C361.271 74.3698 359.578 72.651 357.495 72.651C355.703 72.651 354.073 74.3125 353.698 76.5156C353.609 77.0625 353.135 77.4479 352.589 77.4271C352.047 77.401 351.604 76.974 351.557 76.4271C351.411 74.7135 349.693 72.6458 347.781 72.6458C346.771 72.6458 345.818 73.0521 345.099 73.7813C344.677 74.2135 343.995 74.2135 343.573 73.7865C343.151 73.3594 343.151 72.6615 343.568 72.2344C344.693 71.0833 346.188 70.4531 347.781 70.4531C349.776 70.4531 351.552 71.7083 352.635 73.3281C353.75 71.5677 355.531 70.4531 357.495 70.4531C360.766 70.4531 363.427 73.1615 363.427 76.4844C363.427 81.8802 358.328 87.0573 353.396 92.0625C353.188 92.2813 352.911 92.3854 352.635 92.3854Z" fill="black"/>
<mask id="mask15_1_143" style="mask-type:luminance" maskUnits="userSpaceOnUse" x="341" y="56" width="21" height="10">
<path d="M341.323 56.1406H361.323V65.3333H341.323V56.1406Z" fill="white"/>
</mask>
<g mask="url(#mask15_1_143)">
<path d="M359.365 65.1771H343.224C342.625 65.1771 342.146 64.6875 342.146 64.0782V57.2448C342.146 56.6355 342.625 56.1459 343.224 56.1459H359.365C359.963 56.1459 360.448 56.6355 360.448 57.2448V64.0782C360.448 64.6875 359.963 65.1771 359.365 65.1771ZM344.302 62.9844H358.286V58.3386H344.302V62.9844Z" fill="black"/>
</g>
<mask id="mask16_1_143" style="mask-type:luminance" maskUnits="userSpaceOnUse" x="329" y="60" width="45" height="55">
<path d="M329.005 60H373.583V114.521H329.005V60Z" fill="white"/>
</mask>
<g mask="url(#mask16_1_143)">
<path d="M367.979 114.51H334.615C331.573 114.51 329.099 112 329.099 108.906V65.7344C329.099 62.6459 331.573 60.1302 334.615 60.1302H343.224C343.818 60.1302 344.302 60.6198 344.302 61.2292V62.9844H358.286V61.2292C358.286 60.625 358.771 60.1302 359.365 60.1302H367.979C371.021 60.1302 373.49 62.6459 373.49 65.7344V108.906C373.49 112 371.021 114.51 367.979 114.51ZM334.615 62.3282C332.766 62.3282 331.26 63.8542 331.26 65.7344V108.906C331.26 110.787 332.766 112.318 334.615 112.318H367.979C369.828 112.318 371.328 110.787 371.328 108.906V65.7344C371.328 63.8542 369.828 62.3282 367.979 62.3282H360.448V64.0782C360.448 64.6875 359.964 65.1771 359.365 65.1771H343.224C342.625 65.1771 342.146 64.6875 342.146 64.0782V62.3282H334.615Z" fill="black"/>
</g>
<path d="M338.646 99.75C338.052 99.75 337.568 99.2552 337.568 98.6511C337.568 98.0469 338.052 97.5521 338.646 97.5521H364.708C365.307 97.5521 365.792 98.0417 365.792 98.6459C365.792 99.2552 365.307 99.7448 364.708 99.7448L338.646 99.75Z" fill="black"/>
<path d="M338.641 105.984C338.042 105.984 337.557 105.495 337.557 104.885C337.557 104.281 338.042 103.792 338.641 103.786L364.703 103.781C365.297 103.781 365.781 104.271 365.781 104.88C365.781 105.484 365.297 105.974 364.703 105.974L338.641 105.984Z" fill="black"/>
<path d="M63.8443 158.442C65.787 158.442 67.6777 158.15 69.511 157.567C71.3443 156.973 72.6881 156.4 73.5527 155.858L74.8443 154.983L80.2818 165.837C80.0995 165.978 79.8495 166.165 79.5318 166.4C79.2089 166.624 78.4745 167.04 77.3235 167.65C76.1672 168.264 74.9329 168.796 73.6152 169.254C72.3079 169.702 70.5839 170.098 68.4485 170.462C66.3235 170.822 64.1256 171.004 61.8652 171.004C56.6568 171.004 51.7193 169.728 47.0527 167.171C42.3964 164.619 38.6412 161.098 35.7818 156.608C32.9329 152.124 31.511 147.275 31.511 142.067C31.511 138.139 32.3443 134.358 34.011 130.733C35.6881 127.108 37.9172 124.004 40.6985 121.421C43.4902 118.837 46.7402 116.785 50.4485 115.254C54.1672 113.712 57.9745 112.942 61.8652 112.942C65.4902 112.942 68.8287 113.374 71.886 114.233C74.9381 115.082 77.0995 115.936 78.3652 116.796L80.2818 118.087L74.8443 128.962C74.5214 128.686 74.0422 128.358 73.4068 127.983C72.7818 127.598 71.5162 127.087 69.6152 126.462C67.7089 125.827 65.787 125.504 63.8443 125.504C60.761 125.504 57.9954 126.004 55.5527 127.004C53.1047 127.994 51.1672 129.306 49.7402 130.942C48.3235 132.567 47.2402 134.317 46.4902 136.192C45.7402 138.067 45.3652 139.983 45.3652 141.942C45.3652 146.192 46.9589 150.004 50.1568 153.379C53.3495 156.754 57.912 158.442 63.8443 158.442Z" fill="black"/>
<path d="M83.4609 169.983V111.567H95.4818V138.817H95.6068C98.7318 135.692 102.055 134.129 105.586 134.129C107.305 134.129 109.013 134.358 110.711 134.817C112.419 135.264 114.049 135.962 115.607 136.921C117.174 137.869 118.445 139.212 119.419 140.962C120.388 142.702 120.878 144.723 120.878 147.025V169.983H108.857V150.296C108.857 148.478 108.279 146.895 107.128 145.546C105.971 144.186 104.466 143.504 102.607 143.504C100.799 143.504 99.1589 144.207 97.6901 145.608C96.2161 147.014 95.4818 148.577 95.4818 150.296V169.983H83.4609Z" fill="black"/>
<path d="M128.998 165.671C125.748 162.119 124.123 157.764 124.123 152.608C124.123 147.442 125.748 143.077 128.998 139.504C132.258 135.921 136.404 134.129 141.435 134.129C146.06 134.129 149.862 135.577 152.852 138.462V135.15H164.873V169.983H152.977V166.046H152.852C149.862 169.353 146.06 171.004 141.435 171.004C136.404 171.004 132.258 169.228 128.998 165.671ZM139.227 146.692C137.67 148.233 136.894 150.207 136.894 152.608C136.894 154.999 137.633 156.957 139.123 158.483C140.623 159.999 142.591 160.754 145.039 160.754C147.399 160.754 149.336 159.983 150.852 158.442C152.362 156.9 153.123 154.952 153.123 152.587C153.123 150.202 152.336 148.233 150.769 146.692C149.211 145.15 147.3 144.379 145.039 144.379C142.732 144.379 140.795 145.15 139.227 146.692Z" fill="black"/>
<path d="M171.32 169.983V135.15H183.341V140.171H183.466C183.559 139.994 183.705 139.77 183.903 139.504C184.111 139.228 184.554 138.749 185.236 138.067C185.914 137.389 186.638 136.775 187.403 136.233C188.179 135.692 189.179 135.207 190.403 134.775C191.622 134.348 192.867 134.129 194.132 134.129C195.434 134.129 196.721 134.311 197.986 134.671C199.263 135.035 200.195 135.395 200.778 135.754L201.736 136.296L196.716 146.483C195.216 145.223 193.132 144.587 190.466 144.587C189.018 144.587 187.778 144.91 186.736 145.546C185.695 146.171 184.955 146.936 184.528 147.837C184.096 148.744 183.789 149.514 183.611 150.15C183.429 150.79 183.341 151.29 183.341 151.65V169.983H171.32Z" fill="black"/>
<path d="M205.456 135.15V122.171H217.477V135.15H224.81V144.316H217.477V155.379C217.477 158.603 218.383 160.212 220.206 160.212C220.649 160.212 221.123 160.124 221.623 159.941C222.123 159.749 222.508 159.561 222.789 159.379L223.185 159.108L226.185 168.837C223.602 170.28 220.654 171.004 217.352 171.004C215.086 171.004 213.133 170.608 211.498 169.816C209.873 169.025 208.643 167.962 207.81 166.629C206.977 165.285 206.373 163.879 205.998 162.421C205.633 160.952 205.456 159.374 205.456 157.691V144.316H200.435V135.15H205.456Z" fill="black"/>
<path d="M271.543 169.983L262.584 138.546L253.626 169.983H239.418L223.459 113.962H237.647L247.23 152.4H247.564L257.751 113.962H267.397L277.584 152.4H277.939L287.501 113.962H301.626L285.668 169.983H271.543Z" fill="#CB6CE6"/>
<path d="M304.125 115.712C305.526 114.311 307.198 113.608 309.146 113.608C311.089 113.608 312.76 114.311 314.167 115.712C315.583 117.119 316.292 118.796 316.292 120.754C316.292 122.702 315.583 124.374 314.167 125.775C312.76 127.181 311.089 127.879 309.146 127.879C307.198 127.879 305.526 127.181 304.125 125.775C302.719 124.374 302.021 122.702 302.021 120.754C302.021 118.796 302.719 117.119 304.125 115.712ZM302.979 135.15V169.983H315V135.15H302.979Z" fill="#CB6CE6"/>
<path d="M323.807 135.15V122.171H335.828V135.15H343.161V144.316H335.828V155.379C335.828 158.603 336.734 160.212 338.557 160.212C339 160.212 339.474 160.124 339.974 159.941C340.474 159.749 340.859 159.561 341.141 159.379L341.536 159.108L344.536 168.837C341.953 170.28 339.005 171.004 335.703 171.004C333.438 171.004 331.484 170.608 329.849 169.816C328.224 169.025 326.995 167.962 326.161 166.629C325.328 165.285 324.724 163.879 324.349 162.421C323.984 160.952 323.807 159.374 323.807 157.691V144.316H318.786V135.15H323.807Z" fill="#CB6CE6"/>
<path d="M365.45 143.962C363.184 143.962 361.231 144.806 359.596 146.483C357.971 148.165 357.158 150.181 357.158 152.525C357.158 154.931 357.971 156.973 359.596 158.65C361.231 160.317 363.184 161.15 365.45 161.15C366.533 161.15 367.559 161.02 368.533 160.754C369.502 160.478 370.221 160.207 370.679 159.942L371.283 159.525L375.366 167.879C375.044 168.103 374.601 168.389 374.033 168.733C373.46 169.067 372.169 169.525 370.158 170.108C368.143 170.702 365.981 171.004 363.679 171.004C358.554 171.004 354.054 169.207 350.179 165.608C346.314 162.014 344.387 157.702 344.387 152.671C344.387 147.603 346.314 143.249 350.179 139.608C354.054 135.957 358.554 134.129 363.679 134.129C365.981 134.129 368.106 134.4 370.054 134.942C371.997 135.483 373.377 136.025 374.2 136.567L375.366 137.379L371.283 145.608C369.783 144.514 367.835 143.962 365.45 143.962Z" fill="#CB6CE6"/>
<path d="M378.548 169.983V111.567H390.569V138.817H390.694C393.819 135.692 397.142 134.129 400.673 134.129C402.392 134.129 404.1 134.358 405.798 134.817C407.506 135.264 409.137 135.962 410.694 136.921C412.262 137.869 413.532 139.212 414.506 140.962C415.475 142.702 415.965 144.723 415.965 147.025V169.983H403.944V150.296C403.944 148.478 403.366 146.895 402.215 145.546C401.059 144.186 399.553 143.504 397.694 143.504C395.887 143.504 394.246 144.207 392.777 145.608C391.303 147.014 390.569 148.577 390.569 150.296V169.983H378.548Z" fill="#CB6CE6"/>
<mask id="mask17_1_143" style="mask-type:luminance" maskUnits="userSpaceOnUse" x="6" y="89" width="86" height="56">
<path d="M6 89H91.9896V144.474H6V89Z" fill="white"/>
</mask>
<g mask="url(#mask17_1_143)">
<path d="M28.599 127.766C26.8906 125.031 25.25 122.245 23.6875 119.422C18.8906 120.771 14.0417 122.125 9.1875 123.474C14.4531 114.24 19.7188 105.005 24.9792 95.7709C26.6042 92.9167 28.6823 89.75 31.9375 89.3282C33.9063 89.073 35.8333 89.9167 37.6198 90.7813C45.3698 94.5313 52.75 99.0417 59.4896 104.26C68.8802 100.115 89.0365 93.1042 91.5729 97.7969C94.1094 102.495 37.776 134.083 8.84896 144.036C6.09896 144.984 5.53125 142.938 6.27604 141.625C8.95313 136.906 20.8281 127.995 26.974 124.807" fill="#4A4A4A"/>
</g>
<path d="M59.3073 104.156C57.3645 102.625 56.6875 102.188 55.0416 101.021C46.6614 110.005 36.6041 118.01 25.7448 123.047C26.1562 123.766 26.9062 125.031 28.3385 127.359C31.6354 125.698 41.3906 120.245 44.3229 118.094C48.2448 115.224 57.5885 108.667 59.3073 104.156Z" fill="#CB6CE6"/>
<mask id="mask18_1_143" style="mask-type:luminance" maskUnits="userSpaceOnUse" x="286" y="95" width="14" height="23">
<path d="M286.656 95.1406H299.99V117.807H286.656V95.1406Z" fill="white"/>
</mask>
<g mask="url(#mask18_1_143)">
<mask id="mask19_1_143" style="mask-type:luminance" maskUnits="userSpaceOnUse" x="287" y="95" width="18" height="23">
<path d="M293.12 95.5781L304.297 98.9479L298.786 117.24L287.604 113.87L293.12 95.5781Z" fill="white"/>
</mask>
<g mask="url(#mask19_1_143)">
<mask id="mask20_1_143" style="mask-type:luminance" maskUnits="userSpaceOnUse" x="287" y="95" width="18" height="23">
<path d="M293.12 95.5781L304.297 98.9479L298.786 117.24L287.604 113.87L293.12 95.5781Z" fill="white"/>
</mask>
<g mask="url(#mask20_1_143)">
<path d="M293.115 95.5886L290.292 104.969L287.464 114.349C291.214 115.474 294.964 116.599 298.708 117.719C296.844 110.344 294.979 102.969 293.115 95.5886Z" fill="#CB6CE6"/>
</g>
</g>
</g>
</svg>
