<svg xmlns="http://www.w3.org/2000/svg" xmlns:xlink="http://www.w3.org/1999/xlink" width="500" zoomAndPan="magnify" viewBox="0 0 375 374.999991" height="500" preserveAspectRatio="xMidYMid meet" version="1.0"><defs><g/><clipPath id="37e2fbe406"><path d="M 248 109 L 261 109 L 261 127 L 248 127 Z M 248 109 " clip-rule="nonzero"/></clipPath><clipPath id="7b3e903350"><path d="M 207.765625 116.664062 L 262.621094 85.6875 L 294.335938 141.851562 L 239.480469 172.828125 Z M 207.765625 116.664062 " clip-rule="nonzero"/></clipPath><clipPath id="79ab252341"><path d="M 262.4375 85.792969 L 207.582031 116.769531 L 239.296875 172.933594 L 294.152344 141.953125 Z M 262.4375 85.792969 " clip-rule="nonzero"/></clipPath><clipPath id="554eaf6ac1"><path d="M 236 127 L 256 127 L 256 170 L 236 170 Z M 236 127 " clip-rule="nonzero"/></clipPath><clipPath id="820bbb28b5"><path d="M 207.765625 116.664062 L 262.621094 85.6875 L 294.335938 141.851562 L 239.480469 172.828125 Z M 207.765625 116.664062 " clip-rule="nonzero"/></clipPath><clipPath id="37f21feffe"><path d="M 262.4375 85.792969 L 207.582031 116.769531 L 239.296875 172.933594 L 294.152344 141.953125 Z M 262.4375 85.792969 " clip-rule="nonzero"/></clipPath><clipPath id="5ba8b7dc45"><path d="M 260 99 L 274 99 L 274 114 L 260 114 Z M 260 99 " clip-rule="nonzero"/></clipPath><clipPath id="13ccd5894e"><path d="M 207.765625 116.664062 L 262.621094 85.6875 L 294.335938 141.851562 L 239.480469 172.828125 Z M 207.765625 116.664062 " clip-rule="nonzero"/></clipPath><clipPath id="f037300493"><path d="M 262.4375 85.792969 L 207.582031 116.769531 L 239.296875 172.933594 L 294.152344 141.953125 Z M 262.4375 85.792969 " clip-rule="nonzero"/></clipPath><clipPath id="874af829de"><path d="M 235 95 L 254 95 L 254 114 L 235 114 Z M 235 95 " clip-rule="nonzero"/></clipPath><clipPath id="52ef1d6929"><path d="M 207.765625 116.664062 L 262.621094 85.6875 L 294.335938 141.851562 L 239.480469 172.828125 Z M 207.765625 116.664062 " clip-rule="nonzero"/></clipPath><clipPath id="d339936ca3"><path d="M 262.4375 85.792969 L 207.582031 116.769531 L 239.296875 172.933594 L 294.152344 141.953125 Z M 262.4375 85.792969 " clip-rule="nonzero"/></clipPath><clipPath id="8fc00291b3"><path d="M 235 115 L 246 115 L 246 126 L 235 126 Z M 235 115 " clip-rule="nonzero"/></clipPath><clipPath id="aa541b6c87"><path d="M 207.765625 116.664062 L 262.621094 85.6875 L 294.335938 141.851562 L 239.480469 172.828125 Z M 207.765625 116.664062 " clip-rule="nonzero"/></clipPath><clipPath id="d84c518552"><path d="M 262.4375 85.792969 L 207.582031 116.769531 L 239.296875 172.933594 L 294.152344 141.953125 Z M 262.4375 85.792969 " clip-rule="nonzero"/></clipPath><clipPath id="93386b5e17"><path d="M 271 131.519531 L 284 131.519531 L 284 138 L 271 138 Z M 271 131.519531 " clip-rule="nonzero"/></clipPath><clipPath id="47211dcca0"><path d="M 262.589844 134 L 291.839844 134 L 291.839844 169.019531 L 262.589844 169.019531 Z M 262.589844 134 " clip-rule="nonzero"/></clipPath><clipPath id="613e900505"><path d="M 52.382812 152.566406 L 109 152.566406 L 109 189 L 52.382812 189 Z M 52.382812 152.566406 " clip-rule="nonzero"/></clipPath><clipPath id="6a2bbbe9b0"><path d="M 235 156 L 243 156 L 243 172 L 235 172 Z M 235 156 " clip-rule="nonzero"/></clipPath><clipPath id="8c666aa908"><path d="M 239.269531 156.839844 L 246.449219 159.003906 L 242.769531 171.214844 L 235.589844 169.046875 Z M 239.269531 156.839844 " clip-rule="nonzero"/></clipPath><clipPath id="6822bd279b"><path d="M 239.269531 156.839844 L 246.449219 159.003906 L 242.769531 171.214844 L 235.589844 169.046875 Z M 239.269531 156.839844 " clip-rule="nonzero"/></clipPath></defs><g clip-path="url(#37e2fbe406)"><g clip-path="url(#7b3e903350)"><g clip-path="url(#79ab252341)"><path fill="#cb6ce6" d="M 252.570312 125.039062 C 252.507812 125.023438 252.445312 125.003906 252.378906 124.988281 C 250.320312 124.429688 248.261719 124.105469 248.132812 124.554688 L 251.9375 110.886719 C 252.195312 109.957031 253.300781 109.453125 254.402344 109.757812 L 258.894531 111.007812 C 259.996094 111.316406 260.683594 112.316406 260.421875 113.246094 L 256.621094 126.914062 C 256.691406 126.632812 255.964844 126.222656 254.914062 125.808594 C 254.230469 125.539062 253.40625 125.273438 252.570312 125.039062 Z M 252.570312 125.039062 " fill-opacity="1" fill-rule="nonzero"/></g></g></g><g clip-path="url(#554eaf6ac1)"><g clip-path="url(#820bbb28b5)"><g clip-path="url(#37f21feffe)"><path fill="#cb6ce6" d="M 247.179688 127.988281 C 247.304688 127.542969 249.308594 127.851562 251.339844 128.398438 L 251.34375 128.382812 L 251.535156 128.4375 C 253.652344 129.027344 255.703125 129.84375 255.585938 130.3125 L 244.617188 169.738281 C 243.210938 169.511719 241.824219 169.1875 240.460938 168.773438 L 240.457031 168.785156 C 240.457031 168.785156 237.609375 167.796875 236.28125 167.167969 Z M 247.179688 127.988281 " fill-opacity="1" fill-rule="nonzero"/></g></g></g><g clip-path="url(#5ba8b7dc45)"><g clip-path="url(#13ccd5894e)"><g clip-path="url(#f037300493)"><path fill="#cb6ce6" d="M 260.816406 106.910156 C 260.816406 106.910156 264.996094 105.851562 265.703125 105.042969 C 266.414062 104.230469 266.914062 99.949219 266.914062 99.949219 C 266.914062 99.949219 267.976562 104.128906 268.785156 104.835938 C 269.597656 105.546875 273.878906 106.046875 273.878906 106.046875 C 273.878906 106.046875 269.625 107.191406 268.988281 107.917969 C 268.355469 108.644531 267.777344 113.011719 267.777344 113.011719 C 267.777344 113.011719 266.632812 108.757812 265.886719 108.101562 C 265.132812 107.445312 260.816406 106.910156 260.816406 106.910156 Z M 260.816406 106.910156 " fill-opacity="1" fill-rule="nonzero"/></g></g></g><g clip-path="url(#874af829de)"><g clip-path="url(#52ef1d6929)"><g clip-path="url(#d339936ca3)"><path fill="#cb6ce6" d="M 246.738281 106.992188 C 245.679688 107.90625 244.121094 113.804688 244.121094 113.804688 C 244.121094 113.804688 243.441406 107.796875 242.453125 106.65625 C 241.460938 105.515625 235.609375 104.003906 235.609375 104.003906 C 235.609375 104.003906 241.613281 103.328125 242.753906 102.335938 C 243.894531 101.347656 245.40625 95.492188 245.40625 95.492188 C 245.40625 95.492188 246.1875 101.621094 247.074219 102.640625 C 247.960938 103.664062 253.917969 105.292969 253.917969 105.292969 C 253.917969 105.292969 247.792969 106.074219 246.738281 106.992188 Z M 246.738281 106.992188 " fill-opacity="1" fill-rule="nonzero"/></g></g></g><g clip-path="url(#8fc00291b3)"><g clip-path="url(#aa541b6c87)"><g clip-path="url(#d84c518552)"><path fill="#cb6ce6" d="M 245.351562 120.765625 C 245.351562 120.765625 242.109375 121.253906 241.5625 121.753906 C 241.011719 122.25 240.257812 125.398438 240.257812 125.398438 C 240.257812 125.398438 239.824219 122.21875 239.285156 121.628906 C 238.746094 121.035156 235.625 120.304688 235.625 120.304688 C 235.625 120.304688 238.800781 119.875 239.394531 119.335938 C 239.988281 118.796875 240.71875 115.671875 240.71875 115.671875 C 240.71875 115.671875 241.207031 118.914062 241.6875 119.445312 C 242.171875 119.972656 245.351562 120.765625 245.351562 120.765625 Z M 245.351562 120.765625 " fill-opacity="1" fill-rule="nonzero"/></g></g></g><path fill="#000000" d="M 273.929688 149.90625 C 273.914062 149.90625 273.902344 149.90625 273.886719 149.90625 C 273.609375 149.890625 273.363281 149.714844 273.265625 149.453125 L 272.304688 146.921875 L 272.25 147.175781 C 272.25 147.183594 272.246094 147.1875 272.246094 147.195312 L 271.976562 148.273438 C 271.898438 148.585938 271.617188 148.808594 271.289062 148.808594 L 268.933594 148.808594 C 268.542969 148.808594 268.222656 148.496094 268.222656 148.105469 C 268.222656 147.714844 268.539062 147.402344 268.929688 147.398438 L 270.734375 147.398438 L 270.867188 146.863281 L 271.433594 144.304688 C 271.503906 144 271.761719 143.777344 272.074219 143.753906 C 272.390625 143.730469 272.679688 143.914062 272.789062 144.207031 L 274.027344 147.464844 L 274.632812 146.285156 C 274.753906 146.050781 274.996094 145.90625 275.257812 145.902344 C 275.261719 145.902344 275.261719 145.902344 275.265625 145.902344 C 275.527344 145.902344 275.765625 146.046875 275.890625 146.277344 L 276.492188 147.398438 L 279.039062 147.398438 C 279.429688 147.398438 279.746094 147.714844 279.746094 148.105469 C 279.746094 148.496094 279.429688 148.808594 279.039062 148.808594 L 276.066406 148.808594 C 275.804688 148.808594 275.566406 148.664062 275.441406 148.433594 L 275.277344 148.128906 L 274.558594 149.523438 C 274.4375 149.761719 274.191406 149.90625 273.929688 149.90625 Z M 273.929688 149.90625 " fill-opacity="1" fill-rule="nonzero"/><path fill="#000000" d="M 278.09375 154.804688 C 277.910156 154.804688 277.730469 154.734375 277.59375 154.597656 C 276.675781 153.6875 275.640625 152.65625 274.714844 151.636719 C 274.453125 151.347656 274.472656 150.902344 274.765625 150.640625 C 275.054688 150.378906 275.5 150.402344 275.765625 150.691406 C 276.503906 151.503906 277.324219 152.335938 278.09375 153.101562 C 280.957031 150.246094 283.757812 147.3125 283.757812 144.589844 C 283.757812 143.230469 282.644531 142.125 281.28125 142.125 C 280.105469 142.125 279.035156 143.195312 278.789062 144.609375 C 278.730469 144.960938 278.417969 145.210938 278.0625 145.195312 C 277.707031 145.179688 277.417969 144.90625 277.386719 144.550781 C 277.289062 143.453125 276.164062 142.125 274.90625 142.125 C 274.246094 142.125 273.621094 142.386719 273.152344 142.855469 C 272.875 143.128906 272.425781 143.132812 272.148438 142.855469 C 271.871094 142.582031 271.871094 142.136719 272.148438 141.859375 C 272.882812 141.121094 273.863281 140.714844 274.90625 140.714844 C 276.214844 140.714844 277.382812 141.523438 278.09375 142.5625 C 278.820312 141.433594 279.992188 140.714844 281.277344 140.714844 C 283.425781 140.714844 285.171875 142.453125 285.171875 144.589844 C 285.171875 148.054688 281.828125 151.378906 278.59375 154.597656 C 278.457031 154.734375 278.273438 154.804688 278.09375 154.804688 Z M 278.09375 154.804688 " fill-opacity="1" fill-rule="nonzero"/><g clip-path="url(#93386b5e17)"><path fill="#000000" d="M 282.507812 137.328125 L 271.917969 137.328125 C 271.527344 137.328125 271.210938 137.011719 271.210938 136.621094 L 271.210938 132.230469 C 271.210938 131.839844 271.527344 131.523438 271.917969 131.523438 L 282.507812 131.523438 C 282.898438 131.523438 283.214844 131.839844 283.214844 132.230469 L 283.214844 136.621094 C 283.214844 137.011719 282.898438 137.328125 282.507812 137.328125 Z M 272.628906 135.917969 L 281.796875 135.917969 L 281.796875 132.933594 L 272.628906 132.933594 Z M 272.628906 135.917969 " fill-opacity="1" fill-rule="nonzero"/></g><g clip-path="url(#47211dcca0)"><path fill="#000000" d="M 288.15625 169.015625 L 266.273438 169.015625 C 264.277344 169.015625 262.65625 167.402344 262.65625 165.417969 L 262.65625 137.6875 C 262.65625 135.699219 264.277344 134.085938 266.273438 134.085938 L 271.917969 134.085938 C 272.308594 134.085938 272.628906 134.402344 272.628906 134.789062 L 272.628906 135.917969 L 281.796875 135.917969 L 281.796875 134.789062 C 281.796875 134.402344 282.113281 134.085938 282.507812 134.085938 L 288.15625 134.085938 C 290.148438 134.085938 291.773438 135.699219 291.773438 137.6875 L 291.773438 165.417969 C 291.773438 167.402344 290.148438 169.015625 288.15625 169.015625 Z M 266.273438 135.496094 C 265.058594 135.496094 264.070312 136.476562 264.070312 137.6875 L 264.070312 165.417969 C 264.070312 166.625 265.058594 167.605469 266.273438 167.605469 L 288.15625 167.605469 C 289.367188 167.605469 290.355469 166.625 290.355469 165.417969 L 290.355469 137.6875 C 290.355469 136.476562 289.367188 135.496094 288.15625 135.496094 L 283.214844 135.496094 L 283.214844 136.621094 C 283.214844 137.011719 282.898438 137.328125 282.507812 137.328125 L 271.917969 137.328125 C 271.527344 137.328125 271.210938 137.011719 271.210938 136.621094 L 271.210938 135.496094 Z M 266.273438 135.496094 " fill-opacity="1" fill-rule="nonzero"/></g><path fill="#000000" d="M 268.917969 159.535156 C 268.527344 159.535156 268.210938 159.21875 268.210938 158.828125 C 268.210938 158.441406 268.527344 158.125 268.917969 158.125 L 286.011719 158.121094 C 286.402344 158.121094 286.71875 158.4375 286.71875 158.828125 C 286.71875 159.214844 286.402344 159.53125 286.011719 159.53125 Z M 268.917969 159.535156 " fill-opacity="1" fill-rule="nonzero"/><path fill="#000000" d="M 268.914062 163.539062 C 268.523438 163.539062 268.203125 163.222656 268.203125 162.835938 C 268.203125 162.445312 268.519531 162.128906 268.914062 162.128906 L 286.007812 162.125 C 286.398438 162.125 286.714844 162.441406 286.714844 162.828125 C 286.714844 163.21875 286.398438 163.535156 286.007812 163.535156 Z M 268.914062 163.539062 " fill-opacity="1" fill-rule="nonzero"/><g fill="#000000" fill-opacity="1"><g transform="translate(68.256643, 205.191433)"><g><path d="M 22.015625 -7.5 C 23.285156 -7.5 24.515625 -7.691406 25.703125 -8.078125 C 26.890625 -8.460938 27.765625 -8.828125 28.328125 -9.171875 L 29.171875 -9.75 L 32.703125 -2.6875 C 32.578125 -2.601562 32.410156 -2.488281 32.203125 -2.34375 C 32.003906 -2.195312 31.53125 -1.921875 30.78125 -1.515625 C 30.03125 -1.117188 29.226562 -0.773438 28.375 -0.484375 C 27.519531 -0.191406 26.398438 0.0664062 25.015625 0.296875 C 23.628906 0.535156 22.203125 0.65625 20.734375 0.65625 C 17.359375 0.65625 14.15625 -0.171875 11.125 -1.828125 C 8.09375 -3.492188 5.648438 -5.78125 3.796875 -8.6875 C 1.941406 -11.601562 1.015625 -14.753906 1.015625 -18.140625 C 1.015625 -20.691406 1.554688 -23.144531 2.640625 -25.5 C 3.734375 -27.851562 5.179688 -29.867188 6.984375 -31.546875 C 8.796875 -33.222656 10.90625 -34.5625 13.3125 -35.5625 C 15.726562 -36.5625 18.203125 -37.0625 20.734375 -37.0625 C 23.085938 -37.0625 25.253906 -36.78125 27.234375 -36.21875 C 29.222656 -35.664062 30.632812 -35.109375 31.46875 -34.546875 L 32.703125 -33.71875 L 29.171875 -26.65625 C 28.960938 -26.832031 28.648438 -27.046875 28.234375 -27.296875 C 27.828125 -27.546875 27.003906 -27.875 25.765625 -28.28125 C 24.535156 -28.695312 23.285156 -28.90625 22.015625 -28.90625 C 20.015625 -28.90625 18.21875 -28.578125 16.625 -27.921875 C 15.039062 -27.273438 13.785156 -26.421875 12.859375 -25.359375 C 11.929688 -24.304688 11.222656 -23.171875 10.734375 -21.953125 C 10.253906 -20.734375 10.015625 -19.488281 10.015625 -18.21875 C 10.015625 -15.457031 11.050781 -12.976562 13.125 -10.78125 C 15.195312 -8.59375 18.160156 -7.5 22.015625 -7.5 Z M 22.015625 -7.5 "/></g></g></g><g fill="#000000" fill-opacity="1"><g transform="translate(100.376539, 205.191433)"><g><path d="M 2.640625 0 L 2.640625 -37.953125 L 10.453125 -37.953125 L 10.453125 -20.25 L 10.546875 -20.25 C 12.578125 -22.28125 14.738281 -23.296875 17.03125 -23.296875 C 18.144531 -23.296875 19.253906 -23.148438 20.359375 -22.859375 C 21.460938 -22.566406 22.519531 -22.109375 23.53125 -21.484375 C 24.550781 -20.867188 25.375 -19.992188 26 -18.859375 C 26.632812 -17.734375 26.953125 -16.421875 26.953125 -14.921875 L 26.953125 0 L 19.15625 0 L 19.15625 -12.796875 C 19.15625 -13.972656 18.78125 -15 18.03125 -15.875 C 17.28125 -16.757812 16.300781 -17.203125 15.09375 -17.203125 C 13.914062 -17.203125 12.847656 -16.742188 11.890625 -15.828125 C 10.929688 -14.921875 10.453125 -13.910156 10.453125 -12.796875 L 10.453125 0 Z M 2.640625 0 "/></g></g></g><g fill="#000000" fill-opacity="1"><g transform="translate(128.437296, 205.191433)"><g><path d="M 4.1875 -2.796875 C 2.070312 -5.109375 1.015625 -7.941406 1.015625 -11.296875 C 1.015625 -14.648438 2.070312 -17.488281 4.1875 -19.8125 C 6.3125 -22.132812 9.003906 -23.296875 12.265625 -23.296875 C 15.265625 -23.296875 17.738281 -22.351562 19.6875 -20.46875 L 19.6875 -22.640625 L 27.484375 -22.640625 L 27.484375 0 L 19.765625 0 L 19.765625 -2.5625 L 19.6875 -2.5625 C 17.738281 -0.414062 15.265625 0.65625 12.265625 0.65625 C 9.003906 0.65625 6.3125 -0.492188 4.1875 -2.796875 Z M 10.828125 -15.140625 C 9.816406 -14.140625 9.3125 -12.859375 9.3125 -11.296875 C 9.3125 -9.734375 9.796875 -8.457031 10.765625 -7.46875 C 11.734375 -6.488281 13.015625 -6 14.609375 -6 C 16.140625 -6 17.394531 -6.5 18.375 -7.5 C 19.363281 -8.5 19.859375 -9.765625 19.859375 -11.296875 C 19.859375 -12.859375 19.347656 -14.140625 18.328125 -15.140625 C 17.316406 -16.140625 16.078125 -16.640625 14.609375 -16.640625 C 13.109375 -16.640625 11.847656 -16.140625 10.828125 -15.140625 Z M 10.828125 -15.140625 "/></g></g></g><g fill="#000000" fill-opacity="1"><g transform="translate(157.468706, 205.191433)"><g><path d="M 2.640625 0 L 2.640625 -22.640625 L 10.453125 -22.640625 L 10.453125 -19.375 L 10.546875 -19.375 C 10.609375 -19.488281 10.703125 -19.632812 10.828125 -19.8125 C 10.960938 -19.988281 11.25 -20.296875 11.6875 -20.734375 C 12.132812 -21.179688 12.609375 -21.578125 13.109375 -21.921875 C 13.609375 -22.273438 14.253906 -22.59375 15.046875 -22.875 C 15.835938 -23.15625 16.644531 -23.296875 17.46875 -23.296875 C 18.320312 -23.296875 19.160156 -23.175781 19.984375 -22.9375 C 20.804688 -22.707031 21.410156 -22.472656 21.796875 -22.234375 L 22.421875 -21.890625 L 19.15625 -15.265625 C 18.175781 -16.085938 16.820312 -16.5 15.09375 -16.5 C 14.144531 -16.5 13.332031 -16.289062 12.65625 -15.875 C 11.988281 -15.46875 11.515625 -14.96875 11.234375 -14.375 C 10.953125 -13.789062 10.75 -13.289062 10.625 -12.875 C 10.507812 -12.46875 10.453125 -12.144531 10.453125 -11.90625 L 10.453125 0 Z M 2.640625 0 "/></g></g></g><g fill="#000000" fill-opacity="1"><g transform="translate(178.337721, 205.191433)"><g><path d="M 3.96875 -22.640625 L 3.96875 -31.0625 L 11.78125 -31.0625 L 11.78125 -22.640625 L 16.546875 -22.640625 L 16.546875 -16.671875 L 11.78125 -16.671875 L 11.78125 -9.484375 C 11.78125 -7.398438 12.367188 -6.359375 13.546875 -6.359375 C 13.835938 -6.359375 14.144531 -6.414062 14.46875 -6.53125 C 14.789062 -6.644531 15.039062 -6.765625 15.21875 -6.890625 L 15.484375 -7.0625 L 17.421875 -0.75 C 15.753906 0.1875 13.84375 0.65625 11.6875 0.65625 C 10.21875 0.65625 8.953125 0.398438 7.890625 -0.109375 C 6.835938 -0.617188 6.035156 -1.304688 5.484375 -2.171875 C 4.941406 -3.046875 4.550781 -3.960938 4.3125 -4.921875 C 4.082031 -5.878906 3.96875 -6.898438 3.96875 -7.984375 L 3.96875 -16.671875 L 0.703125 -16.671875 L 0.703125 -22.640625 Z M 3.96875 -22.640625 "/></g></g></g><g fill="#cb6ce6" fill-opacity="1"><g transform="translate(194.666791, 205.191433)"><g><path d="M 30.578125 0 L 24.75 -20.4375 L 18.921875 0 L 9.703125 0 L -0.65625 -36.40625 L 8.5625 -36.40625 L 14.78125 -11.421875 L 15 -11.421875 L 21.625 -36.40625 L 27.890625 -36.40625 L 34.5 -11.421875 L 34.71875 -11.421875 L 40.953125 -36.40625 L 50.125 -36.40625 L 39.75 0 Z M 30.578125 0 "/></g></g></g><g fill="#cb6ce6" fill-opacity="1"><g transform="translate(243.023243, 205.191433)"><g><path d="M 3.390625 -35.25 C 4.304688 -36.164062 5.394531 -36.625 6.65625 -36.625 C 7.925781 -36.625 9.015625 -36.164062 9.921875 -35.25 C 10.835938 -34.34375 11.296875 -33.253906 11.296875 -31.984375 C 11.296875 -30.722656 10.835938 -29.632812 9.921875 -28.71875 C 9.015625 -27.8125 7.925781 -27.359375 6.65625 -27.359375 C 5.394531 -27.359375 4.304688 -27.8125 3.390625 -28.71875 C 2.484375 -29.632812 2.03125 -30.722656 2.03125 -31.984375 C 2.03125 -33.253906 2.484375 -34.34375 3.390625 -35.25 Z M 2.640625 -22.640625 L 2.640625 0 L 10.453125 0 L 10.453125 -22.640625 Z M 2.640625 -22.640625 "/></g></g></g><g fill="#cb6ce6" fill-opacity="1"><g transform="translate(255.244531, 205.191433)"><g><path d="M 3.96875 -22.640625 L 3.96875 -31.0625 L 11.78125 -31.0625 L 11.78125 -22.640625 L 16.546875 -22.640625 L 16.546875 -16.671875 L 11.78125 -16.671875 L 11.78125 -9.484375 C 11.78125 -7.398438 12.367188 -6.359375 13.546875 -6.359375 C 13.835938 -6.359375 14.144531 -6.414062 14.46875 -6.53125 C 14.789062 -6.644531 15.039062 -6.765625 15.21875 -6.890625 L 15.484375 -7.0625 L 17.421875 -0.75 C 15.753906 0.1875 13.84375 0.65625 11.6875 0.65625 C 10.21875 0.65625 8.953125 0.398438 7.890625 -0.109375 C 6.835938 -0.617188 6.035156 -1.304688 5.484375 -2.171875 C 4.941406 -3.046875 4.550781 -3.960938 4.3125 -4.921875 C 4.082031 -5.878906 3.96875 -6.898438 3.96875 -7.984375 L 3.96875 -16.671875 L 0.703125 -16.671875 L 0.703125 -22.640625 Z M 3.96875 -22.640625 "/></g></g></g><g fill="#cb6ce6" fill-opacity="1"><g transform="translate(271.569075, 205.191433)"><g><path d="M 14.6875 -16.90625 C 13.21875 -16.90625 11.953125 -16.359375 10.890625 -15.265625 C 9.835938 -14.179688 9.3125 -12.875 9.3125 -11.34375 C 9.3125 -9.78125 9.835938 -8.453125 10.890625 -7.359375 C 11.953125 -6.273438 13.21875 -5.734375 14.6875 -5.734375 C 15.394531 -5.734375 16.066406 -5.820312 16.703125 -6 C 17.335938 -6.175781 17.800781 -6.351562 18.09375 -6.53125 L 18.484375 -6.796875 L 21.140625 -1.375 C 20.929688 -1.21875 20.640625 -1.03125 20.265625 -0.8125 C 19.898438 -0.59375 19.0625 -0.296875 17.75 0.078125 C 16.445312 0.460938 15.046875 0.65625 13.546875 0.65625 C 10.222656 0.65625 7.300781 -0.507812 4.78125 -2.84375 C 2.269531 -5.1875 1.015625 -7.988281 1.015625 -11.25 C 1.015625 -14.539062 2.269531 -17.367188 4.78125 -19.734375 C 7.300781 -22.109375 10.222656 -23.296875 13.546875 -23.296875 C 15.046875 -23.296875 16.425781 -23.117188 17.6875 -22.765625 C 18.957031 -22.410156 19.859375 -22.054688 20.390625 -21.703125 L 21.140625 -21.1875 L 18.484375 -15.84375 C 17.515625 -16.550781 16.25 -16.90625 14.6875 -16.90625 Z M 14.6875 -16.90625 "/></g></g></g><g fill="#cb6ce6" fill-opacity="1"><g transform="translate(292.129237, 205.191433)"><g><path d="M 2.640625 0 L 2.640625 -37.953125 L 10.453125 -37.953125 L 10.453125 -20.25 L 10.546875 -20.25 C 12.578125 -22.28125 14.738281 -23.296875 17.03125 -23.296875 C 18.144531 -23.296875 19.253906 -23.148438 20.359375 -22.859375 C 21.460938 -22.566406 22.519531 -22.109375 23.53125 -21.484375 C 24.550781 -20.867188 25.375 -19.992188 26 -18.859375 C 26.632812 -17.734375 26.953125 -16.421875 26.953125 -14.921875 L 26.953125 0 L 19.15625 0 L 19.15625 -12.796875 C 19.15625 -13.972656 18.78125 -15 18.03125 -15.875 C 17.28125 -16.757812 16.300781 -17.203125 15.09375 -17.203125 C 13.914062 -17.203125 12.847656 -16.742188 11.890625 -15.828125 C 10.929688 -14.921875 10.453125 -13.910156 10.453125 -12.796875 L 10.453125 0 Z M 2.640625 0 "/></g></g></g><g clip-path="url(#613e900505)"><path fill="#4a4a4a" d="M 67.382812 177.757812 C 66.269531 175.980469 65.203125 174.175781 64.191406 172.339844 C 61.070312 173.214844 57.917969 174.09375 54.765625 174.972656 C 58.1875 168.972656 61.609375 162.96875 65.027344 156.96875 C 66.085938 155.117188 67.433594 153.058594 69.550781 152.78125 C 70.828125 152.617188 72.082031 153.164062 73.242188 153.726562 C 78.277344 156.164062 83.074219 159.09375 87.453125 162.484375 C 93.558594 159.792969 106.652344 155.234375 108.300781 158.285156 C 109.949219 161.335938 73.34375 181.867188 54.546875 188.335938 C 52.757812 188.949219 52.390625 187.617188 52.871094 186.769531 C 54.613281 183.699219 62.328125 177.910156 66.324219 175.835938 " fill-opacity="1" fill-rule="nonzero"/></g><path fill="#cb6ce6" d="M 87.335938 162.417969 C 86.074219 161.425781 85.632812 161.140625 84.5625 160.382812 C 79.117188 166.21875 72.582031 171.421875 65.523438 174.695312 C 65.792969 175.160156 66.277344 175.984375 67.210938 177.496094 C 69.351562 176.417969 75.691406 172.871094 77.597656 171.476562 C 80.144531 169.609375 86.21875 165.347656 87.335938 162.417969 Z M 87.335938 162.417969 " fill-opacity="1" fill-rule="nonzero"/><g clip-path="url(#6a2bbbe9b0)"><g clip-path="url(#8c666aa908)"><g clip-path="url(#6822bd279b)"><path fill="#cb6ce6" d="M 239.265625 156.851562 L 237.429688 162.945312 L 235.597656 169.039062 C 238.03125 169.769531 240.464844 170.5 242.902344 171.230469 C 241.6875 166.4375 240.476562 161.644531 239.265625 156.851562 " fill-opacity="1" fill-rule="nonzero"/></g></g></g><g fill="#4a4a4a" fill-opacity="1"><g transform="translate(62.450312, 240.391086)"><g><path d="M 10.421875 0 L 9.640625 -2.359375 L 4.609375 -2.359375 L 3.828125 0 L 0.1875 0 L 5.0625 -14.09375 L 9.234375 -14.09375 L 14.09375 0 Z M 5.46875 -4.96875 L 8.78125 -4.96875 L 7.125 -9.96875 Z M 5.46875 -4.96875 "/></g></g></g><g fill="#4a4a4a" fill-opacity="1"><g transform="translate(76.716715, 240.391086)"><g><path d="M 9.09375 -11.171875 L 12.515625 -11.171875 L 12.515625 0 L 9.09375 0 L 9.09375 -1.640625 C 8.382812 -0.460938 7.253906 0.125 5.703125 0.125 C 4.421875 0.125 3.382812 -0.300781 2.59375 -1.15625 C 1.800781 -2.007812 1.40625 -3.171875 1.40625 -4.640625 L 1.40625 -11.171875 L 4.796875 -11.171875 L 4.796875 -5.109375 C 4.796875 -4.378906 4.984375 -3.816406 5.359375 -3.421875 C 5.742188 -3.035156 6.269531 -2.84375 6.9375 -2.84375 C 7.613281 -2.84375 8.140625 -3.035156 8.515625 -3.421875 C 8.898438 -3.816406 9.09375 -4.378906 9.09375 -5.109375 Z M 9.09375 -11.171875 "/></g></g></g><g fill="#4a4a4a" fill-opacity="1"><g transform="translate(90.723004, 240.391086)"><g><path d="M 6.25 -2.90625 L 7.46875 -2.90625 L 7.46875 0 L 5.71875 0 C 4.46875 0 3.5 -0.273438 2.8125 -0.828125 C 2.125 -1.378906 1.78125 -2.332031 1.78125 -3.6875 L 1.78125 -8.328125 L 0.734375 -8.328125 L 0.734375 -11.171875 L 1.78125 -11.171875 L 1.78125 -13.890625 L 5.203125 -13.890625 L 5.203125 -11.171875 L 7.453125 -11.171875 L 7.453125 -8.328125 L 5.203125 -8.328125 L 5.203125 -3.6875 C 5.203125 -3.164062 5.550781 -2.90625 6.25 -2.90625 Z M 6.25 -2.90625 "/></g></g></g><g fill="#4a4a4a" fill-opacity="1"><g transform="translate(99.026735, 240.391086)"><g><path d="M 8.203125 -3.5 C 8.660156 -3.976562 8.890625 -4.671875 8.890625 -5.578125 C 8.890625 -6.492188 8.65625 -7.1875 8.1875 -7.65625 C 7.71875 -8.125 7.160156 -8.359375 6.515625 -8.359375 C 5.878906 -8.359375 5.332031 -8.125 4.875 -7.65625 C 4.414062 -7.1875 4.1875 -6.492188 4.1875 -5.578125 C 4.1875 -4.671875 4.421875 -3.976562 4.890625 -3.5 C 5.367188 -3.019531 5.925781 -2.78125 6.5625 -2.78125 C 7.207031 -2.78125 7.753906 -3.019531 8.203125 -3.5 Z M 2.390625 -1.4375 C 1.265625 -2.488281 0.703125 -3.875 0.703125 -5.59375 C 0.703125 -7.320312 1.257812 -8.703125 2.375 -9.734375 C 3.5 -10.765625 4.890625 -11.28125 6.546875 -11.28125 C 8.203125 -11.28125 9.585938 -10.765625 10.703125 -9.734375 C 11.816406 -8.703125 12.375 -7.320312 12.375 -5.59375 C 12.375 -3.875 11.816406 -2.488281 10.703125 -1.4375 C 9.597656 -0.382812 8.21875 0.140625 6.5625 0.140625 C 4.90625 0.140625 3.515625 -0.382812 2.390625 -1.4375 Z M 2.390625 -1.4375 "/></g></g></g><g fill="#4a4a4a" fill-opacity="1"><g transform="translate(112.092593, 240.391086)"><g><path d="M 4.921875 -11.171875 L 4.921875 -9.53125 C 5.628906 -10.695312 6.757812 -11.28125 8.3125 -11.28125 C 9.132812 -11.28125 9.867188 -11.09375 10.515625 -10.71875 C 11.160156 -10.351562 11.664062 -9.820312 12.03125 -9.125 C 12.445312 -9.78125 12.984375 -10.300781 13.640625 -10.6875 C 14.296875 -11.082031 15.035156 -11.28125 15.859375 -11.28125 C 17.210938 -11.28125 18.289062 -10.859375 19.09375 -10.015625 C 19.894531 -9.179688 20.296875 -8.019531 20.296875 -6.53125 L 20.296875 0 L 16.890625 0 L 16.890625 -6.0625 C 16.890625 -6.78125 16.695312 -7.335938 16.3125 -7.734375 C 15.9375 -8.128906 15.414062 -8.328125 14.75 -8.328125 C 14.082031 -8.328125 13.554688 -8.128906 13.171875 -7.734375 C 12.796875 -7.335938 12.609375 -6.78125 12.609375 -6.0625 L 12.609375 0 L 9.203125 0 L 9.203125 -6.0625 C 9.203125 -6.78125 9.007812 -7.335938 8.625 -7.734375 C 8.25 -8.128906 7.726562 -8.328125 7.0625 -8.328125 C 6.394531 -8.328125 5.867188 -8.128906 5.484375 -7.734375 C 5.109375 -7.335938 4.921875 -6.78125 4.921875 -6.0625 L 4.921875 0 L 1.5 0 L 1.5 -11.171875 Z M 4.921875 -11.171875 "/></g></g></g><g fill="#4a4a4a" fill-opacity="1"><g transform="translate(133.782329, 240.391086)"><g><path d="M 8.296875 -3.546875 C 8.796875 -4.023438 9.046875 -4.703125 9.046875 -5.578125 C 9.046875 -6.460938 8.796875 -7.140625 8.296875 -7.609375 C 7.804688 -8.085938 7.238281 -8.328125 6.59375 -8.328125 C 5.957031 -8.328125 5.390625 -8.085938 4.890625 -7.609375 C 4.398438 -7.128906 4.15625 -6.445312 4.15625 -5.5625 C 4.15625 -4.6875 4.398438 -4.007812 4.890625 -3.53125 C 5.390625 -3.0625 5.957031 -2.828125 6.59375 -2.828125 C 7.238281 -2.828125 7.804688 -3.066406 8.296875 -3.546875 Z M 2.15625 -1.453125 C 1.175781 -2.523438 0.6875 -3.894531 0.6875 -5.5625 C 0.6875 -7.226562 1.175781 -8.597656 2.15625 -9.671875 C 3.144531 -10.742188 4.347656 -11.28125 5.765625 -11.28125 C 7.191406 -11.28125 8.285156 -10.753906 9.046875 -9.703125 L 9.046875 -11.171875 L 12.46875 -11.171875 L 12.46875 0 L 9.046875 0 L 9.046875 -1.625 C 8.222656 -0.445312 7.113281 0.140625 5.71875 0.140625 C 4.332031 0.140625 3.144531 -0.390625 2.15625 -1.453125 Z M 2.15625 -1.453125 "/></g></g></g><g fill="#4a4a4a" fill-opacity="1"><g transform="translate(147.748596, 240.391086)"><g><path d="M 6.25 -2.90625 L 7.46875 -2.90625 L 7.46875 0 L 5.71875 0 C 4.46875 0 3.5 -0.273438 2.8125 -0.828125 C 2.125 -1.378906 1.78125 -2.332031 1.78125 -3.6875 L 1.78125 -8.328125 L 0.734375 -8.328125 L 0.734375 -11.171875 L 1.78125 -11.171875 L 1.78125 -13.890625 L 5.203125 -13.890625 L 5.203125 -11.171875 L 7.453125 -11.171875 L 7.453125 -8.328125 L 5.203125 -8.328125 L 5.203125 -3.6875 C 5.203125 -3.164062 5.550781 -2.90625 6.25 -2.90625 Z M 6.25 -2.90625 "/></g></g></g><g fill="#4a4a4a" fill-opacity="1"><g transform="translate(156.052327, 240.391086)"><g><path d="M 6.25 0.140625 C 4.613281 0.140625 3.273438 -0.378906 2.234375 -1.421875 C 1.203125 -2.472656 0.6875 -3.863281 0.6875 -5.59375 C 0.6875 -7.332031 1.203125 -8.710938 2.234375 -9.734375 C 3.265625 -10.765625 4.597656 -11.28125 6.234375 -11.28125 C 7.878906 -11.28125 9.242188 -10.773438 10.328125 -9.765625 C 11.410156 -8.753906 11.953125 -7.347656 11.953125 -5.546875 C 11.953125 -5.160156 11.925781 -4.800781 11.875 -4.46875 L 4.1875 -4.46875 C 4.25 -3.96875 4.46875 -3.5625 4.84375 -3.25 C 5.21875 -2.9375 5.617188 -2.78125 6.046875 -2.78125 C 6.484375 -2.78125 6.804688 -2.820312 7.015625 -2.90625 C 7.234375 -3 7.390625 -3.085938 7.484375 -3.171875 C 7.585938 -3.253906 7.722656 -3.398438 7.890625 -3.609375 L 11.59375 -3.609375 C 11.269531 -2.484375 10.625 -1.578125 9.65625 -0.890625 C 8.695312 -0.203125 7.5625 0.140625 6.25 0.140625 Z M 8.390625 -6.609375 C 8.335938 -7.128906 8.109375 -7.550781 7.703125 -7.875 C 7.304688 -8.195312 6.832031 -8.359375 6.28125 -8.359375 C 5.738281 -8.359375 5.28125 -8.195312 4.90625 -7.875 C 4.53125 -7.550781 4.296875 -7.128906 4.203125 -6.609375 Z M 8.390625 -6.609375 "/></g></g></g><g fill="#4a4a4a" fill-opacity="1"><g transform="translate(168.697997, 240.391086)"><g/></g></g><g fill="#4a4a4a" fill-opacity="1"><g transform="translate(174.700693, 240.391086)"><g><path d="M 17.40625 -14.046875 L 17.40625 0 L 13.984375 0 L 13.984375 -7.921875 L 10.734375 0 L 8.1875 0 L 4.921875 -7.921875 L 4.921875 0 L 1.5 0 L 1.5 -14.046875 L 5.421875 -14.046875 L 9.46875 -4.359375 L 13.484375 -14.046875 Z M 17.40625 -14.046875 "/></g></g></g><g fill="#4a4a4a" fill-opacity="1"><g transform="translate(193.609172, 240.391086)"><g><path d="M 6.25 0.140625 C 4.613281 0.140625 3.273438 -0.378906 2.234375 -1.421875 C 1.203125 -2.472656 0.6875 -3.863281 0.6875 -5.59375 C 0.6875 -7.332031 1.203125 -8.710938 2.234375 -9.734375 C 3.265625 -10.765625 4.597656 -11.28125 6.234375 -11.28125 C 7.878906 -11.28125 9.242188 -10.773438 10.328125 -9.765625 C 11.410156 -8.753906 11.953125 -7.347656 11.953125 -5.546875 C 11.953125 -5.160156 11.925781 -4.800781 11.875 -4.46875 L 4.1875 -4.46875 C 4.25 -3.96875 4.46875 -3.5625 4.84375 -3.25 C 5.21875 -2.9375 5.617188 -2.78125 6.046875 -2.78125 C 6.484375 -2.78125 6.804688 -2.820312 7.015625 -2.90625 C 7.234375 -3 7.390625 -3.085938 7.484375 -3.171875 C 7.585938 -3.253906 7.722656 -3.398438 7.890625 -3.609375 L 11.59375 -3.609375 C 11.269531 -2.484375 10.625 -1.578125 9.65625 -0.890625 C 8.695312 -0.203125 7.5625 0.140625 6.25 0.140625 Z M 8.390625 -6.609375 C 8.335938 -7.128906 8.109375 -7.550781 7.703125 -7.875 C 7.304688 -8.195312 6.832031 -8.359375 6.28125 -8.359375 C 5.738281 -8.359375 5.28125 -8.195312 4.90625 -7.875 C 4.53125 -7.550781 4.296875 -7.128906 4.203125 -6.609375 Z M 8.390625 -6.609375 "/></g></g></g><g fill="#4a4a4a" fill-opacity="1"><g transform="translate(206.254842, 240.391086)"><g><path d="M 8.296875 -3.546875 C 8.796875 -4.023438 9.046875 -4.703125 9.046875 -5.578125 C 9.046875 -6.460938 8.796875 -7.140625 8.296875 -7.609375 C 7.804688 -8.085938 7.238281 -8.328125 6.59375 -8.328125 C 5.957031 -8.328125 5.390625 -8.085938 4.890625 -7.609375 C 4.398438 -7.128906 4.15625 -6.445312 4.15625 -5.5625 C 4.15625 -4.6875 4.398438 -4.007812 4.890625 -3.53125 C 5.390625 -3.0625 5.957031 -2.828125 6.59375 -2.828125 C 7.238281 -2.828125 7.804688 -3.066406 8.296875 -3.546875 Z M 2.15625 -1.453125 C 1.175781 -2.523438 0.6875 -3.894531 0.6875 -5.5625 C 0.6875 -7.226562 1.175781 -8.597656 2.15625 -9.671875 C 3.144531 -10.742188 4.347656 -11.28125 5.765625 -11.28125 C 7.191406 -11.28125 8.285156 -10.753906 9.046875 -9.703125 L 9.046875 -14.8125 L 12.46875 -14.8125 L 12.46875 0 L 9.046875 0 L 9.046875 -1.625 C 8.222656 -0.445312 7.113281 0.140625 5.71875 0.140625 C 4.332031 0.140625 3.144531 -0.390625 2.15625 -1.453125 Z M 2.15625 -1.453125 "/></g></g></g><g fill="#4a4a4a" fill-opacity="1"><g transform="translate(220.221109, 240.391086)"><g><path d="M 4.625 -12.421875 C 4.238281 -12.035156 3.765625 -11.84375 3.203125 -11.84375 C 2.640625 -11.84375 2.164062 -12.035156 1.78125 -12.421875 C 1.394531 -12.816406 1.203125 -13.296875 1.203125 -13.859375 C 1.203125 -14.429688 1.394531 -14.910156 1.78125 -15.296875 C 2.164062 -15.679688 2.640625 -15.875 3.203125 -15.875 C 3.765625 -15.875 4.238281 -15.679688 4.625 -15.296875 C 5.007812 -14.910156 5.203125 -14.429688 5.203125 -13.859375 C 5.203125 -13.296875 5.007812 -12.816406 4.625 -12.421875 Z M 1.5 0 L 1.5 -11.171875 L 4.921875 -11.171875 L 4.921875 0 Z M 1.5 0 "/></g></g></g><g fill="#4a4a4a" fill-opacity="1"><g transform="translate(226.643993, 240.391086)"><g><path d="M 2.234375 -1.421875 C 1.203125 -2.460938 0.6875 -3.847656 0.6875 -5.578125 C 0.6875 -7.316406 1.203125 -8.703125 2.234375 -9.734375 C 3.265625 -10.765625 4.601562 -11.28125 6.25 -11.28125 C 7.601562 -11.28125 8.753906 -10.941406 9.703125 -10.265625 C 10.648438 -9.597656 11.28125 -8.640625 11.59375 -7.390625 L 7.890625 -7.390625 C 7.566406 -8.054688 7.039062 -8.390625 6.3125 -8.390625 C 5.582031 -8.390625 5.039062 -8.128906 4.6875 -7.609375 C 4.332031 -7.097656 4.15625 -6.421875 4.15625 -5.578125 C 4.15625 -4.742188 4.332031 -4.066406 4.6875 -3.546875 C 5.039062 -3.035156 5.5625 -2.78125 6.25 -2.78125 C 6.675781 -2.78125 7.007812 -2.851562 7.25 -3 C 7.488281 -3.144531 7.703125 -3.40625 7.890625 -3.78125 L 11.59375 -3.78125 C 11.28125 -2.582031 10.644531 -1.628906 9.6875 -0.921875 C 8.726562 -0.210938 7.582031 0.140625 6.25 0.140625 C 4.601562 0.140625 3.265625 -0.378906 2.234375 -1.421875 Z M 2.234375 -1.421875 "/></g></g></g><g fill="#4a4a4a" fill-opacity="1"><g transform="translate(238.649384, 240.391086)"><g><path d="M 8.296875 -3.546875 C 8.796875 -4.023438 9.046875 -4.703125 9.046875 -5.578125 C 9.046875 -6.460938 8.796875 -7.140625 8.296875 -7.609375 C 7.804688 -8.085938 7.238281 -8.328125 6.59375 -8.328125 C 5.957031 -8.328125 5.390625 -8.085938 4.890625 -7.609375 C 4.398438 -7.128906 4.15625 -6.445312 4.15625 -5.5625 C 4.15625 -4.6875 4.398438 -4.007812 4.890625 -3.53125 C 5.390625 -3.0625 5.957031 -2.828125 6.59375 -2.828125 C 7.238281 -2.828125 7.804688 -3.066406 8.296875 -3.546875 Z M 2.15625 -1.453125 C 1.175781 -2.523438 0.6875 -3.894531 0.6875 -5.5625 C 0.6875 -7.226562 1.175781 -8.597656 2.15625 -9.671875 C 3.144531 -10.742188 4.347656 -11.28125 5.765625 -11.28125 C 7.191406 -11.28125 8.285156 -10.753906 9.046875 -9.703125 L 9.046875 -11.171875 L 12.46875 -11.171875 L 12.46875 0 L 9.046875 0 L 9.046875 -1.625 C 8.222656 -0.445312 7.113281 0.140625 5.71875 0.140625 C 4.332031 0.140625 3.144531 -0.390625 2.15625 -1.453125 Z M 2.15625 -1.453125 "/></g></g></g><g fill="#4a4a4a" fill-opacity="1"><g transform="translate(252.615651, 240.391086)"><g><path d="M 1.5 0 L 1.5 -14.8125 L 4.921875 -14.8125 L 4.921875 0 Z M 1.5 0 "/></g></g></g><g fill="#4a4a4a" fill-opacity="1"><g transform="translate(259.038534, 240.391086)"><g/></g></g><g fill="#4a4a4a" fill-opacity="1"><g transform="translate(265.041229, 240.391086)"><g><path d="M 10.640625 -14.09375 L 14.078125 -14.09375 L 14.078125 0 L 10.640625 0 L 4.921875 -8.859375 L 4.921875 0 L 1.5 0 L 1.5 -14.09375 L 4.921875 -14.09375 L 10.640625 -5.21875 Z M 10.640625 -14.09375 "/></g></g></g><g fill="#4a4a4a" fill-opacity="1"><g transform="translate(280.608219, 240.391086)"><g><path d="M 8.203125 -3.5 C 8.660156 -3.976562 8.890625 -4.671875 8.890625 -5.578125 C 8.890625 -6.492188 8.65625 -7.1875 8.1875 -7.65625 C 7.71875 -8.125 7.160156 -8.359375 6.515625 -8.359375 C 5.878906 -8.359375 5.332031 -8.125 4.875 -7.65625 C 4.414062 -7.1875 4.1875 -6.492188 4.1875 -5.578125 C 4.1875 -4.671875 4.421875 -3.976562 4.890625 -3.5 C 5.367188 -3.019531 5.925781 -2.78125 6.5625 -2.78125 C 7.207031 -2.78125 7.753906 -3.019531 8.203125 -3.5 Z M 2.390625 -1.4375 C 1.265625 -2.488281 0.703125 -3.875 0.703125 -5.59375 C 0.703125 -7.320312 1.257812 -8.703125 2.375 -9.734375 C 3.5 -10.765625 4.890625 -11.28125 6.546875 -11.28125 C 8.203125 -11.28125 9.585938 -10.765625 10.703125 -9.734375 C 11.816406 -8.703125 12.375 -7.320312 12.375 -5.59375 C 12.375 -3.875 11.816406 -2.488281 10.703125 -1.4375 C 9.597656 -0.382812 8.21875 0.140625 6.5625 0.140625 C 4.90625 0.140625 3.515625 -0.382812 2.390625 -1.4375 Z M 2.390625 -1.4375 "/></g></g></g><g fill="#4a4a4a" fill-opacity="1"><g transform="translate(293.674077, 240.391086)"><g><path d="M 6.25 -2.90625 L 7.46875 -2.90625 L 7.46875 0 L 5.71875 0 C 4.46875 0 3.5 -0.273438 2.8125 -0.828125 C 2.125 -1.378906 1.78125 -2.332031 1.78125 -3.6875 L 1.78125 -8.328125 L 0.734375 -8.328125 L 0.734375 -11.171875 L 1.78125 -11.171875 L 1.78125 -13.890625 L 5.203125 -13.890625 L 5.203125 -11.171875 L 7.453125 -11.171875 L 7.453125 -8.328125 L 5.203125 -8.328125 L 5.203125 -3.6875 C 5.203125 -3.164062 5.550781 -2.90625 6.25 -2.90625 Z M 6.25 -2.90625 "/></g></g></g><g fill="#4a4a4a" fill-opacity="1"><g transform="translate(301.977807, 240.391086)"><g><path d="M 6.25 0.140625 C 4.613281 0.140625 3.273438 -0.378906 2.234375 -1.421875 C 1.203125 -2.472656 0.6875 -3.863281 0.6875 -5.59375 C 0.6875 -7.332031 1.203125 -8.710938 2.234375 -9.734375 C 3.265625 -10.765625 4.597656 -11.28125 6.234375 -11.28125 C 7.878906 -11.28125 9.242188 -10.773438 10.328125 -9.765625 C 11.410156 -8.753906 11.953125 -7.347656 11.953125 -5.546875 C 11.953125 -5.160156 11.925781 -4.800781 11.875 -4.46875 L 4.1875 -4.46875 C 4.25 -3.96875 4.46875 -3.5625 4.84375 -3.25 C 5.21875 -2.9375 5.617188 -2.78125 6.046875 -2.78125 C 6.484375 -2.78125 6.804688 -2.820312 7.015625 -2.90625 C 7.234375 -3 7.390625 -3.085938 7.484375 -3.171875 C 7.585938 -3.253906 7.722656 -3.398438 7.890625 -3.609375 L 11.59375 -3.609375 C 11.269531 -2.484375 10.625 -1.578125 9.65625 -0.890625 C 8.695312 -0.203125 7.5625 0.140625 6.25 0.140625 Z M 8.390625 -6.609375 C 8.335938 -7.128906 8.109375 -7.550781 7.703125 -7.875 C 7.304688 -8.195312 6.832031 -8.359375 6.28125 -8.359375 C 5.738281 -8.359375 5.28125 -8.195312 4.90625 -7.875 C 4.53125 -7.550781 4.296875 -7.128906 4.203125 -6.609375 Z M 8.390625 -6.609375 "/></g></g></g><g fill="#4a4a4a" fill-opacity="1"><g transform="translate(314.623477, 240.391086)"><g><path d="M 0.734375 -7.8125 C 0.734375 -8.789062 1.15625 -9.613281 2 -10.28125 C 2.84375 -10.945312 3.976562 -11.28125 5.40625 -11.28125 C 6.84375 -11.28125 8 -10.953125 8.875 -10.296875 C 9.757812 -9.648438 10.226562 -8.757812 10.28125 -7.625 L 6.78125 -7.625 C 6.738281 -8.007812 6.601562 -8.269531 6.375 -8.40625 C 6.15625 -8.550781 5.816406 -8.625 5.359375 -8.625 C 4.460938 -8.625 4.015625 -8.351562 4.015625 -7.8125 C 4.015625 -7.3125 4.566406 -6.96875 5.671875 -6.78125 C 6.773438 -6.59375 7.78125 -6.304688 8.6875 -5.921875 C 9.15625 -5.734375 9.546875 -5.421875 9.859375 -4.984375 C 10.171875 -4.554688 10.328125 -4.03125 10.328125 -3.40625 C 10.328125 -2.363281 9.878906 -1.507812 8.984375 -0.84375 C 8.085938 -0.1875 6.957031 0.140625 5.59375 0.140625 C 4.238281 0.140625 3.109375 -0.164062 2.203125 -0.78125 C 1.296875 -1.40625 0.800781 -2.328125 0.71875 -3.546875 L 4.21875 -3.546875 C 4.3125 -2.859375 4.796875 -2.515625 5.671875 -2.515625 C 6.066406 -2.515625 6.394531 -2.609375 6.65625 -2.796875 C 6.914062 -2.984375 7.046875 -3.222656 7.046875 -3.515625 C 7.046875 -3.816406 6.828125 -4.050781 6.390625 -4.21875 C 5.960938 -4.394531 5.441406 -4.539062 4.828125 -4.65625 C 4.210938 -4.78125 3.59375 -4.929688 2.96875 -5.109375 C 2.351562 -5.296875 1.828125 -5.609375 1.390625 -6.046875 C 0.953125 -6.492188 0.734375 -7.082031 0.734375 -7.8125 Z M 0.734375 -7.8125 "/></g></g></g></svg>