<svg width="500" height="500" viewBox="0 0 500 500" fill="none" xmlns="http://www.w3.org/2000/svg">
<mask id="mask0_1_3" style="mask-type:luminance" maskUnits="userSpaceOnUse" x="344" y="144" width="21" height="29">
<path d="M344.656 144.333H364.656V172.333H344.656V144.333Z" fill="white"/>
</mask>
<g mask="url(#mask0_1_3)">
<mask id="mask1_1_3" style="mask-type:luminance" maskUnits="userSpaceOnUse" x="282" y="108" width="134" height="135">
<path d="M282.635 156.281L366.745 108.786L415.286 194.74L331.177 242.24L282.635 156.281Z" fill="white"/>
</mask>
<g mask="url(#mask1_1_3)">
<mask id="mask2_1_3" style="mask-type:luminance" maskUnits="userSpaceOnUse" x="282" y="108" width="134" height="135">
<path d="M366.786 108.76L282.682 156.255L331.219 242.214L415.328 194.719L366.786 108.76Z" fill="white"/>
</mask>
<g mask="url(#mask2_1_3)">
<path d="M351.599 169.161C351.5 169.135 351.401 169.109 351.302 169.083C348.13 168.224 344.964 167.724 344.766 168.417L350.62 147.375C351.021 145.948 352.719 145.172 354.417 145.641L361.328 147.568C363.026 148.036 364.083 149.583 363.682 151.01L357.828 172.047C357.943 171.615 356.823 170.979 355.203 170.344C354.151 169.932 352.885 169.521 351.599 169.161Z" fill="#CB6CE6"/>
</g>
</g>
</g>
<mask id="mask3_1_3" style="mask-type:luminance" maskUnits="userSpaceOnUse" x="325" y="172" width="32" height="67">
<path d="M325.99 172.333H356.656V239H325.99V172.333Z" fill="white"/>
</mask>
<g mask="url(#mask3_1_3)">
<mask id="mask4_1_3" style="mask-type:luminance" maskUnits="userSpaceOnUse" x="282" y="108" width="134" height="135">
<path d="M282.635 156.281L366.745 108.786L415.286 194.74L331.177 242.24L282.635 156.281Z" fill="white"/>
</mask>
<g mask="url(#mask4_1_3)">
<mask id="mask5_1_3" style="mask-type:luminance" maskUnits="userSpaceOnUse" x="282" y="108" width="134" height="135">
<path d="M366.786 108.76L282.682 156.255L331.219 242.214L415.328 194.719L366.786 108.76Z" fill="white"/>
</mask>
<g mask="url(#mask5_1_3)">
<path d="M343.297 173.698C343.49 173.016 346.578 173.495 349.703 174.328L349.708 174.307L350.005 174.391C353.26 175.297 356.422 176.557 356.234 177.276L339.354 237.958C337.188 237.609 335.057 237.115 332.958 236.474L332.953 236.495C332.953 236.495 328.568 234.969 326.521 234L343.297 173.698Z" fill="#CB6CE6"/>
</g>
</g>
</g>
<mask id="mask6_1_3" style="mask-type:luminance" maskUnits="userSpaceOnUse" x="363" y="129" width="22" height="22">
<path d="M363.323 129.667H384.656V151H363.323V129.667Z" fill="white"/>
</mask>
<g mask="url(#mask6_1_3)">
<mask id="mask7_1_3" style="mask-type:luminance" maskUnits="userSpaceOnUse" x="282" y="108" width="134" height="135">
<path d="M282.635 156.281L366.745 108.786L415.286 194.74L331.177 242.24L282.635 156.281Z" fill="white"/>
</mask>
<g mask="url(#mask7_1_3)">
<mask id="mask8_1_3" style="mask-type:luminance" maskUnits="userSpaceOnUse" x="282" y="108" width="134" height="135">
<path d="M366.786 108.76L282.682 156.255L331.219 242.214L415.328 194.719L366.786 108.76Z" fill="white"/>
</mask>
<g mask="url(#mask8_1_3)">
<path d="M364.286 141.26C364.286 141.26 370.719 139.625 371.812 138.38C372.901 137.13 373.672 130.542 373.672 130.542C373.672 130.542 375.307 136.974 376.552 138.068C377.802 139.161 384.396 139.932 384.396 139.932C384.396 139.932 377.844 141.693 376.87 142.807C375.891 143.927 375.005 150.651 375.005 150.651C375.005 150.651 373.24 144.099 372.089 143.089C370.932 142.083 364.286 141.26 364.286 141.26Z" fill="#CB6CE6"/>
</g>
</g>
</g>
<mask id="mask9_1_3" style="mask-type:luminance" maskUnits="userSpaceOnUse" x="324" y="123" width="30" height="30">
<path d="M324.656 123H353.99V152.333H324.656V123Z" fill="white"/>
</mask>
<g mask="url(#mask9_1_3)">
<mask id="mask10_1_3" style="mask-type:luminance" maskUnits="userSpaceOnUse" x="282" y="108" width="134" height="135">
<path d="M282.635 156.281L366.745 108.786L415.286 194.74L331.177 242.24L282.635 156.281Z" fill="white"/>
</mask>
<g mask="url(#mask10_1_3)">
<mask id="mask11_1_3" style="mask-type:luminance" maskUnits="userSpaceOnUse" x="282" y="108" width="134" height="135">
<path d="M366.786 108.76L282.682 156.255L331.219 242.214L415.328 194.719L366.786 108.76Z" fill="white"/>
</mask>
<g mask="url(#mask11_1_3)">
<path d="M342.615 141.38C340.995 142.792 338.589 151.875 338.589 151.875C338.589 151.875 337.547 142.625 336.021 140.87C334.495 139.109 325.49 136.786 325.49 136.786C325.49 136.786 334.734 135.745 336.49 134.219C338.245 132.693 340.568 123.687 340.568 123.687C340.568 123.687 341.776 133.12 343.135 134.687C344.5 136.26 353.672 138.771 353.672 138.771C353.672 138.771 344.24 139.974 342.615 141.38Z" fill="#CB6CE6"/>
</g>
</g>
</g>
<mask id="mask12_1_3" style="mask-type:luminance" maskUnits="userSpaceOnUse" x="324" y="153" width="17" height="18">
<path d="M324.656 153.667H340.656V171H324.656V153.667Z" fill="white"/>
</mask>
<g mask="url(#mask12_1_3)">
<mask id="mask13_1_3" style="mask-type:luminance" maskUnits="userSpaceOnUse" x="282" y="108" width="134" height="135">
<path d="M282.635 156.281L366.745 108.786L415.286 194.74L331.177 242.24L282.635 156.281Z" fill="white"/>
</mask>
<g mask="url(#mask13_1_3)">
<mask id="mask14_1_3" style="mask-type:luminance" maskUnits="userSpaceOnUse" x="282" y="108" width="134" height="135">
<path d="M366.786 108.76L282.682 156.255L331.219 242.214L415.328 194.719L366.786 108.76Z" fill="white"/>
</mask>
<g mask="url(#mask14_1_3)">
<path d="M340.484 162.583C340.484 162.583 335.495 163.333 334.651 164.104C333.807 164.87 332.641 169.714 332.641 169.714C332.641 169.714 331.979 164.823 331.146 163.911C330.318 163 325.516 161.875 325.516 161.875C325.516 161.875 330.401 161.214 331.318 160.38C332.229 159.552 333.354 154.745 333.354 154.745C333.354 154.745 334.104 159.734 334.844 160.547C335.589 161.365 340.484 162.583 340.484 162.583Z" fill="#CB6CE6"/>
</g>
</g>
</g>
<path d="M384.469 207.599C384.448 207.599 384.427 207.599 384.406 207.599C383.974 207.573 383.599 207.297 383.443 206.896L381.969 202.979L381.88 203.37C381.88 203.38 381.875 203.391 381.875 203.401L381.458 205.068C381.339 205.557 380.901 205.896 380.401 205.896L376.771 205.901C376.167 205.901 375.677 205.411 375.677 204.812C375.677 204.208 376.167 203.719 376.771 203.719L379.547 203.714L379.75 202.891L380.625 198.927C380.729 198.453 381.13 198.109 381.615 198.073C382.099 198.036 382.542 198.323 382.714 198.776L384.615 203.823L385.552 201.995C385.74 201.63 386.109 201.401 386.516 201.401C386.521 201.401 386.521 201.401 386.526 201.401C386.927 201.401 387.297 201.62 387.49 201.979L388.417 203.714L392.339 203.719C392.943 203.719 393.432 204.208 393.432 204.812C393.432 205.411 392.943 205.901 392.339 205.901L387.76 205.896C387.359 205.896 386.99 205.677 386.797 205.318L386.547 204.844L385.438 207.005C385.25 207.375 384.875 207.599 384.469 207.599Z" fill="white"/>
<path d="M390.885 215.182C390.604 215.182 390.323 215.073 390.109 214.859C388.703 213.453 387.104 211.854 385.677 210.276C385.271 209.833 385.307 209.141 385.755 208.734C386.198 208.333 386.891 208.365 387.297 208.812C388.432 210.073 389.698 211.354 390.88 212.542C395.297 208.12 399.609 203.583 399.609 199.37C399.609 197.266 397.896 195.557 395.792 195.557C393.984 195.557 392.333 197.208 391.958 199.401C391.865 199.943 391.385 200.328 390.833 200.307C390.286 200.281 389.844 199.854 389.792 199.307C389.646 197.609 387.911 195.552 385.974 195.552C384.953 195.552 383.99 195.953 383.271 196.682C382.844 197.109 382.151 197.109 381.724 196.682C381.297 196.26 381.297 195.568 381.724 195.141C382.859 194 384.37 193.37 385.974 193.37C387.99 193.37 389.786 194.62 390.88 196.229C392.005 194.479 393.807 193.37 395.792 193.37C399.099 193.37 401.786 196.062 401.786 199.37C401.786 204.734 396.635 209.88 391.651 214.859C391.443 215.073 391.161 215.182 390.885 215.182Z" fill="white"/>
<mask id="mask15_1_3" style="mask-type:luminance" maskUnits="userSpaceOnUse" x="379" y="179" width="21" height="10">
<path d="M379.323 179.141H399.323V188.333H379.323V179.141Z" fill="white"/>
</mask>
<g mask="url(#mask15_1_3)">
<path d="M397.682 188.125H381.37C380.766 188.125 380.281 187.635 380.281 187.036V180.234C380.281 179.635 380.766 179.146 381.37 179.146H397.682C398.286 179.146 398.776 179.635 398.776 180.234V187.036C398.776 187.641 398.286 188.125 397.682 188.125ZM382.464 185.943H396.589V181.328H382.464V185.943Z" fill="white"/>
</g>
<mask id="mask16_1_3" style="mask-type:luminance" maskUnits="userSpaceOnUse" x="367" y="183" width="45" height="55">
<path d="M367.005 183H411.583V237.521H367.005V183Z" fill="white"/>
</mask>
<g mask="url(#mask16_1_3)">
<path d="M406.385 237.182H372.672C369.599 237.182 367.099 234.682 367.099 231.609V188.682C367.099 185.609 369.599 183.109 372.672 183.109H381.37C381.974 183.109 382.464 183.599 382.464 184.198V185.943H396.589V184.198C396.589 183.599 397.078 183.109 397.682 183.109H406.385C409.458 183.109 411.953 185.609 411.953 188.682V231.609C411.953 234.682 409.458 237.182 406.385 237.182ZM372.672 185.292C370.802 185.292 369.281 186.812 369.281 188.682V231.609C369.281 233.479 370.802 235 372.672 235H406.385C408.25 235 409.771 233.479 409.771 231.609V188.682C409.771 186.812 408.25 185.292 406.385 185.292H398.776V187.036C398.776 187.635 398.286 188.125 397.682 188.125H381.37C380.766 188.125 380.281 187.635 380.281 187.036V185.292H372.672Z" fill="white"/>
</g>
<path d="M376.745 222.5C376.146 222.5 375.656 222.01 375.656 221.411C375.656 220.807 376.146 220.318 376.745 220.318L403.083 220.312C403.682 220.312 404.172 220.802 404.172 221.406C404.172 222.01 403.682 222.495 403.083 222.495L376.745 222.5Z" fill="white"/>
<path d="M376.74 228.703C376.135 228.703 375.651 228.214 375.651 227.609C375.646 227.005 376.135 226.521 376.74 226.516L403.073 226.51C403.677 226.51 404.167 227 404.167 227.599C404.167 228.203 403.677 228.693 403.073 228.693L376.74 228.703Z" fill="white"/>
<path d="M102.808 278.654C104.751 278.654 106.642 278.362 108.475 277.779C110.308 277.185 111.652 276.612 112.517 276.07L113.808 275.195L119.246 286.05C119.063 286.19 118.813 286.378 118.496 286.612C118.173 286.836 117.438 287.253 116.287 287.862C115.131 288.477 113.897 289.008 112.579 289.466C111.272 289.914 109.548 290.31 107.412 290.675C105.287 291.034 103.089 291.216 100.829 291.216C95.6207 291.216 90.6832 289.94 86.0166 287.383C81.3603 284.831 77.6051 281.31 74.7457 276.82C71.8968 272.336 70.4749 267.487 70.4749 262.279C70.4749 258.352 71.3082 254.57 72.9749 250.945C74.652 247.32 76.8811 244.216 79.6624 241.633C82.4541 239.05 85.7041 236.998 89.4124 235.466C93.1311 233.925 96.9384 233.154 100.829 233.154C104.454 233.154 107.793 233.586 110.85 234.445C113.902 235.294 116.063 236.149 117.329 237.008L119.246 238.3L113.808 249.175C113.485 248.899 113.006 248.57 112.371 248.195C111.746 247.81 110.48 247.3 108.579 246.675C106.673 246.039 104.751 245.716 102.808 245.716C99.7249 245.716 96.9593 246.216 94.5166 247.216C92.0686 248.206 90.1311 249.518 88.7041 251.154C87.2874 252.779 86.2041 254.529 85.4541 256.404C84.7041 258.279 84.3291 260.195 84.3291 262.154C84.3291 266.404 85.9228 270.216 89.1207 273.591C92.3134 276.966 96.8759 278.654 102.808 278.654Z" fill="white"/>
<path d="M122.431 290.195V231.779H134.452V259.029H134.577C137.702 255.904 141.025 254.341 144.556 254.341C146.275 254.341 147.983 254.57 149.681 255.029C151.39 255.477 153.02 256.175 154.577 257.133C156.145 258.081 157.416 259.425 158.39 261.175C159.358 262.914 159.848 264.935 159.848 267.237V290.195H147.827V270.508C147.827 268.69 147.249 267.107 146.098 265.758C144.942 264.399 143.436 263.716 141.577 263.716C139.77 263.716 138.129 264.419 136.66 265.82C135.186 267.227 134.452 268.789 134.452 270.508V290.195H122.431Z" fill="white"/>
<path d="M167.974 285.883C164.724 282.331 163.099 277.977 163.099 272.82C163.099 267.654 164.724 263.289 167.974 259.716C171.234 256.133 175.38 254.341 180.411 254.341C185.036 254.341 188.838 255.789 191.828 258.675V255.362H203.849V290.195H191.953V286.258H191.828C188.838 289.565 185.036 291.216 180.411 291.216C175.38 291.216 171.234 289.44 167.974 285.883ZM178.203 266.904C176.645 268.445 175.869 270.419 175.869 272.82C175.869 275.211 176.609 277.169 178.099 278.695C179.599 280.211 181.567 280.966 184.015 280.966C186.375 280.966 188.312 280.195 189.828 278.654C191.338 277.112 192.099 275.164 192.099 272.8C192.099 270.414 191.312 268.445 189.744 266.904C188.187 265.362 186.276 264.591 184.015 264.591C181.708 264.591 179.77 265.362 178.203 266.904Z" fill="white"/>
<path d="M210.301 290.195V255.362H222.322V260.383H222.447C222.541 260.206 222.687 259.982 222.885 259.716C223.093 259.44 223.536 258.961 224.218 258.279C224.895 257.602 225.619 256.987 226.385 256.445C227.161 255.904 228.161 255.419 229.385 254.987C230.603 254.56 231.848 254.341 233.114 254.341C234.416 254.341 235.702 254.524 236.968 254.883C238.244 255.248 239.176 255.607 239.76 255.966L240.718 256.508L235.697 266.695C234.197 265.435 232.114 264.8 229.447 264.8C227.999 264.8 226.76 265.123 225.718 265.758C224.676 266.383 223.937 267.149 223.51 268.05C223.077 268.956 222.77 269.727 222.593 270.362C222.411 271.003 222.322 271.503 222.322 271.862V290.195H210.301Z" fill="white"/>
<path d="M244.442 255.362V242.383H256.462V255.362H263.796V264.529H256.462V275.591C256.462 278.815 257.369 280.425 259.192 280.425C259.634 280.425 260.108 280.336 260.608 280.154C261.108 279.961 261.494 279.774 261.775 279.591L262.171 279.32L265.171 289.05C262.587 290.492 259.64 291.216 256.337 291.216C254.072 291.216 252.119 290.82 250.483 290.029C248.858 289.237 247.629 288.175 246.796 286.841C245.962 285.498 245.358 284.091 244.983 282.633C244.619 281.164 244.442 279.586 244.442 277.904V264.529H239.421V255.362H244.442Z" fill="white"/>
<path d="M310.537 290.195L301.579 258.758L292.621 290.195H278.412L262.454 234.175H276.642L286.225 272.612H286.558L296.746 234.175H306.392L316.579 272.612H316.933L326.496 234.175H340.621L324.662 290.195H310.537Z" fill="#CB6CE6"/>
<path d="M343.129 235.925C344.53 234.524 346.202 233.82 348.15 233.82C350.092 233.82 351.764 234.524 353.171 235.925C354.587 237.331 355.296 239.008 355.296 240.966C355.296 242.914 354.587 244.586 353.171 245.987C351.764 247.393 350.092 248.091 348.15 248.091C346.202 248.091 344.53 247.393 343.129 245.987C341.723 244.586 341.025 242.914 341.025 240.966C341.025 239.008 341.723 237.331 343.129 235.925ZM341.983 255.362V290.195H354.004V255.362H341.983Z" fill="#CB6CE6"/>
<path d="M362.814 255.362V242.383H374.835V255.362H382.168V264.529H374.835V275.591C374.835 278.815 375.741 280.425 377.564 280.425C378.007 280.425 378.48 280.336 378.98 280.154C379.48 279.961 379.866 279.774 380.147 279.591L380.543 279.32L383.543 289.05C380.96 290.492 378.012 291.216 374.71 291.216C372.444 291.216 370.491 290.82 368.855 290.029C367.23 289.237 366.001 288.175 365.168 286.841C364.335 285.498 363.73 284.091 363.355 282.633C362.991 281.164 362.814 279.586 362.814 277.904V264.529H357.793V255.362H362.814Z" fill="#CB6CE6"/>
<path d="M404.46 264.175C402.194 264.175 400.241 265.018 398.606 266.695C396.981 268.378 396.168 270.393 396.168 272.737C396.168 275.143 396.981 277.185 398.606 278.862C400.241 280.529 402.194 281.362 404.46 281.362C405.543 281.362 406.569 281.232 407.543 280.966C408.512 280.69 409.231 280.419 409.689 280.154L410.293 279.737L414.376 288.091C414.053 288.315 413.611 288.602 413.043 288.945C412.47 289.279 411.178 289.737 409.168 290.32C407.152 290.914 404.991 291.216 402.689 291.216C397.564 291.216 393.064 289.419 389.189 285.82C385.324 282.227 383.397 277.914 383.397 272.883C383.397 267.815 385.324 263.461 389.189 259.82C393.064 256.169 397.564 254.341 402.689 254.341C404.991 254.341 407.116 254.612 409.064 255.154C411.007 255.695 412.387 256.237 413.21 256.779L414.376 257.591L410.293 265.82C408.793 264.727 406.845 264.175 404.46 264.175Z" fill="#CB6CE6"/>
<path d="M417.562 290.195V231.779H429.583V259.029H429.708C432.833 255.904 436.156 254.341 439.687 254.341C441.406 254.341 443.114 254.57 444.812 255.029C446.52 255.477 448.151 256.175 449.708 257.133C451.276 258.081 452.547 259.425 453.52 261.175C454.489 262.914 454.979 264.935 454.979 267.237V290.195H442.958V270.508C442.958 268.69 442.38 267.107 441.229 265.758C440.073 264.399 438.567 263.716 436.708 263.716C434.901 263.716 433.26 264.419 431.791 265.82C430.317 267.227 429.583 268.789 429.583 270.508V290.195H417.562Z" fill="#CB6CE6"/>
<mask id="mask17_1_3" style="mask-type:luminance" maskUnits="userSpaceOnUse" x="45" y="209" width="86" height="56">
<path d="M45 209H130.99V264.474H45V209Z" fill="white"/>
</mask>
<g mask="url(#mask17_1_3)">
<path d="M67.599 247.766C65.8906 245.031 64.25 242.245 62.6875 239.422C57.8906 240.771 53.0417 242.125 48.1875 243.474C53.4531 234.24 58.7188 225.005 63.9792 215.771C65.6042 212.917 67.6823 209.75 70.9375 209.328C72.9063 209.073 74.8333 209.917 76.6198 210.781C84.3698 214.531 91.75 219.042 98.4896 224.26C107.88 220.115 128.036 213.104 130.573 217.797C133.109 222.495 76.776 254.083 47.849 264.036C45.099 264.984 44.5313 262.938 45.276 261.625C47.9531 256.906 59.8281 247.995 65.974 244.807" fill="#4A4A4A"/>
</g>
<path d="M98.3073 224.156C96.3646 222.625 95.6875 222.188 94.0417 221.021C85.6614 230.005 75.6042 238.01 64.7448 243.047C65.1562 243.766 65.9062 245.031 67.3385 247.359C70.6354 245.698 80.3906 240.245 83.3229 238.094C87.2448 235.224 96.5885 228.667 98.3073 224.156Z" fill="#CB6CE6"/>
<mask id="mask18_1_3" style="mask-type:luminance" maskUnits="userSpaceOnUse" x="325" y="215" width="14" height="23">
<path d="M325.656 215.141H338.99V237.807H325.656V215.141Z" fill="white"/>
</mask>
<g mask="url(#mask18_1_3)">
<mask id="mask19_1_3" style="mask-type:luminance" maskUnits="userSpaceOnUse" x="326" y="215" width="18" height="23">
<path d="M332.12 215.578L343.297 218.948L337.786 237.24L326.604 233.87L332.12 215.578Z" fill="white"/>
</mask>
<g mask="url(#mask19_1_3)">
<mask id="mask20_1_3" style="mask-type:luminance" maskUnits="userSpaceOnUse" x="326" y="215" width="18" height="23">
<path d="M332.12 215.578L343.297 218.948L337.786 237.24L326.604 233.87L332.12 215.578Z" fill="white"/>
</mask>
<g mask="url(#mask20_1_3)">
<path d="M332.115 215.589L329.292 224.969L326.464 234.349C330.214 235.474 333.964 236.599 337.708 237.719C335.844 230.344 333.979 222.969 332.115 215.589Z" fill="#CB6CE6"/>
</g>
</g>
</g>
</svg>
