<svg xmlns="http://www.w3.org/2000/svg" xmlns:xlink="http://www.w3.org/1999/xlink" width="500" zoomAndPan="magnify" viewBox="0 0 375 374.999991" height="500" preserveAspectRatio="xMidYMid meet" version="1.0"><defs><g/><clipPath id="9cd6e53767"><path d="M 251 119 L 266 119 L 266 141 L 251 141 Z M 251 119 " clip-rule="nonzero"/></clipPath><clipPath id="9b00e1c024"><path d="M 202.960938 127.890625 L 268.289062 91 L 306.058594 157.882812 L 240.730469 194.773438 Z M 202.960938 127.890625 " clip-rule="nonzero"/></clipPath><clipPath id="d246291767"><path d="M 268.070312 91.125 L 202.742188 128.015625 L 240.511719 194.898438 L 305.839844 158.007812 Z M 268.070312 91.125 " clip-rule="nonzero"/></clipPath><clipPath id="a78299263f"><path d="M 236 141 L 260 141 L 260 192 L 236 192 Z M 236 141 " clip-rule="nonzero"/></clipPath><clipPath id="0d5e911f5b"><path d="M 202.960938 127.890625 L 268.289062 91 L 306.058594 157.882812 L 240.730469 194.773438 Z M 202.960938 127.890625 " clip-rule="nonzero"/></clipPath><clipPath id="8cdb998e4f"><path d="M 268.070312 91.125 L 202.742188 128.015625 L 240.511719 194.898438 L 305.839844 158.007812 Z M 268.070312 91.125 " clip-rule="nonzero"/></clipPath><clipPath id="378b06ce6e"><path d="M 266 107 L 282 107 L 282 124 L 266 124 Z M 266 107 " clip-rule="nonzero"/></clipPath><clipPath id="40cbda679b"><path d="M 202.960938 127.890625 L 268.289062 91 L 306.058594 157.882812 L 240.730469 194.773438 Z M 202.960938 127.890625 " clip-rule="nonzero"/></clipPath><clipPath id="451c8e1a92"><path d="M 268.070312 91.125 L 202.742188 128.015625 L 240.511719 194.898438 L 305.839844 158.007812 Z M 268.070312 91.125 " clip-rule="nonzero"/></clipPath><clipPath id="ced6b20ce9"><path d="M 236 102 L 258 102 L 258 125 L 236 125 Z M 236 102 " clip-rule="nonzero"/></clipPath><clipPath id="cc32d2fc67"><path d="M 202.960938 127.890625 L 268.289062 91 L 306.058594 157.882812 L 240.730469 194.773438 Z M 202.960938 127.890625 " clip-rule="nonzero"/></clipPath><clipPath id="95565f93ea"><path d="M 268.070312 91.125 L 202.742188 128.015625 L 240.511719 194.898438 L 305.839844 158.007812 Z M 268.070312 91.125 " clip-rule="nonzero"/></clipPath><clipPath id="072bb26f5a"><path d="M 236 126 L 248 126 L 248 139 L 236 139 Z M 236 126 " clip-rule="nonzero"/></clipPath><clipPath id="d44936b7ea"><path d="M 202.960938 127.890625 L 268.289062 91 L 306.058594 157.882812 L 240.730469 194.773438 Z M 202.960938 127.890625 " clip-rule="nonzero"/></clipPath><clipPath id="9d47a338af"><path d="M 268.070312 91.125 L 202.742188 128.015625 L 240.511719 194.898438 L 305.839844 158.007812 Z M 268.070312 91.125 " clip-rule="nonzero"/></clipPath><clipPath id="d5904b82c3"><path d="M 278 145.582031 L 293 145.582031 L 293 153 L 278 153 Z M 278 145.582031 " clip-rule="nonzero"/></clipPath><clipPath id="33b553ba9d"><path d="M 268.25 148 L 303.082031 148 L 303.082031 190.238281 L 268.25 190.238281 Z M 268.25 148 " clip-rule="nonzero"/></clipPath><clipPath id="c219345f7b"><path d="M 18 170.644531 L 85 170.644531 L 85 214 L 18 214 Z M 18 170.644531 " clip-rule="nonzero"/></clipPath><clipPath id="216a6401ec"><path d="M 236 175 L 245 175 L 245 193 L 236 193 Z M 236 175 " clip-rule="nonzero"/></clipPath><clipPath id="1b2341e222"><path d="M 240.480469 175.734375 L 249.03125 178.3125 L 244.648438 192.851562 L 236.097656 190.273438 Z M 240.480469 175.734375 " clip-rule="nonzero"/></clipPath><clipPath id="0703cc20f7"><path d="M 240.480469 175.734375 L 249.03125 178.3125 L 244.648438 192.851562 L 236.097656 190.273438 Z M 240.480469 175.734375 " clip-rule="nonzero"/></clipPath></defs><g clip-path="url(#9cd6e53767)"><g clip-path="url(#9b00e1c024)"><g clip-path="url(#d246291767)"><path fill="#cb6ce6" d="M 256.320312 137.863281 C 256.242188 137.84375 256.167969 137.824219 256.089844 137.800781 C 253.640625 137.136719 251.1875 136.75 251.035156 137.289062 L 255.566406 121.007812 C 255.875 119.902344 257.1875 119.300781 258.5 119.664062 L 263.851562 121.15625 C 265.164062 121.519531 265.980469 122.714844 265.671875 123.820312 L 261.140625 140.09375 C 261.230469 139.761719 260.363281 139.269531 259.109375 138.78125 C 258.292969 138.460938 257.316406 138.140625 256.320312 137.863281 Z M 256.320312 137.863281 " fill-opacity="1" fill-rule="nonzero"/></g></g></g><g clip-path="url(#a78299263f)"><g clip-path="url(#0d5e911f5b)"><g clip-path="url(#8cdb998e4f)"><path fill="#cb6ce6" d="M 249.898438 141.375 C 250.046875 140.84375 252.433594 141.214844 254.851562 141.863281 L 254.855469 141.847656 L 255.085938 141.90625 C 257.605469 142.609375 260.050781 143.585938 259.90625 144.140625 L 246.847656 191.09375 C 245.171875 190.824219 243.519531 190.4375 241.898438 189.945312 L 241.894531 189.960938 C 241.894531 189.960938 238.503906 188.78125 236.917969 188.03125 Z M 249.898438 141.375 " fill-opacity="1" fill-rule="nonzero"/></g></g></g><g clip-path="url(#378b06ce6e)"><g clip-path="url(#40cbda679b)"><g clip-path="url(#451c8e1a92)"><path fill="#cb6ce6" d="M 266.136719 116.277344 C 266.136719 116.277344 271.113281 115.011719 271.960938 114.046875 C 272.804688 113.082031 273.402344 107.980469 273.402344 107.980469 C 273.402344 107.980469 274.664062 112.960938 275.628906 113.804688 C 276.59375 114.652344 281.695312 115.246094 281.695312 115.246094 C 281.695312 115.246094 276.628906 116.609375 275.871094 117.472656 C 275.113281 118.339844 274.429688 123.539062 274.429688 123.539062 C 274.429688 123.539062 273.066406 118.472656 272.175781 117.691406 C 271.28125 116.910156 266.136719 116.277344 266.136719 116.277344 Z M 266.136719 116.277344 " fill-opacity="1" fill-rule="nonzero"/></g></g></g><g clip-path="url(#ced6b20ce9)"><g clip-path="url(#cc32d2fc67)"><g clip-path="url(#95565f93ea)"><path fill="#cb6ce6" d="M 249.371094 116.371094 C 248.113281 117.460938 246.253906 124.488281 246.253906 124.488281 C 246.253906 124.488281 245.449219 117.328125 244.269531 115.972656 C 243.085938 114.613281 236.117188 112.816406 236.117188 112.816406 C 236.117188 112.816406 243.273438 112.007812 244.628906 110.828125 C 245.988281 109.648438 247.789062 102.675781 247.789062 102.675781 C 247.789062 102.675781 248.71875 109.976562 249.773438 111.191406 C 250.828125 112.40625 257.925781 114.347656 257.925781 114.347656 C 257.925781 114.347656 250.628906 115.277344 249.371094 116.371094 Z M 249.371094 116.371094 " fill-opacity="1" fill-rule="nonzero"/></g></g></g><g clip-path="url(#072bb26f5a)"><g clip-path="url(#d44936b7ea)"><g clip-path="url(#9d47a338af)"><path fill="#cb6ce6" d="M 247.71875 132.773438 C 247.71875 132.773438 243.859375 133.355469 243.210938 133.949219 C 242.554688 134.542969 241.65625 138.289062 241.65625 138.289062 C 241.65625 138.289062 241.140625 134.507812 240.496094 133.800781 C 239.855469 133.09375 236.136719 132.226562 236.136719 132.226562 C 236.136719 132.226562 239.921875 131.710938 240.628906 131.070312 C 241.335938 130.425781 242.203125 126.710938 242.203125 126.710938 C 242.203125 126.710938 242.785156 130.566406 243.359375 131.199219 C 243.933594 131.828125 247.71875 132.773438 247.71875 132.773438 Z M 247.71875 132.773438 " fill-opacity="1" fill-rule="nonzero"/></g></g></g><path fill="#ffffff" d="M 281.765625 167.601562 C 281.746094 167.601562 281.730469 167.601562 281.714844 167.601562 C 281.382812 167.582031 281.089844 167.367188 280.972656 167.054688 L 279.832031 164.027344 L 279.761719 164.332031 C 279.761719 164.335938 279.757812 164.34375 279.757812 164.351562 L 279.4375 165.644531 C 279.34375 166.019531 279.007812 166.285156 278.621094 166.285156 L 275.808594 166.285156 C 275.34375 166.285156 274.964844 165.910156 274.964844 165.445312 C 274.964844 164.976562 275.34375 164.597656 275.808594 164.597656 L 277.957031 164.597656 L 278.117188 163.957031 L 278.792969 160.890625 C 278.875 160.527344 279.183594 160.257812 279.554688 160.230469 C 279.929688 160.203125 280.273438 160.425781 280.40625 160.773438 L 281.878906 164.675781 L 282.605469 163.265625 C 282.75 162.984375 283.035156 162.808594 283.347656 162.804688 C 283.351562 162.804688 283.355469 162.804688 283.355469 162.804688 C 283.667969 162.804688 283.953125 162.976562 284.101562 163.25 L 284.820312 164.597656 L 287.855469 164.597656 C 288.324219 164.597656 288.699219 164.976562 288.699219 165.445312 C 288.699219 165.910156 288.320312 166.285156 287.855469 166.285156 L 284.3125 166.285156 C 284 166.285156 283.714844 166.113281 283.566406 165.835938 L 283.371094 165.46875 L 282.515625 167.140625 C 282.371094 167.425781 282.078125 167.601562 281.765625 167.601562 Z M 281.765625 167.601562 " fill-opacity="1" fill-rule="nonzero"/><path fill="#ffffff" d="M 286.726562 173.464844 C 286.511719 173.464844 286.296875 173.382812 286.132812 173.21875 C 285.039062 172.128906 283.804688 170.890625 282.699219 169.671875 C 282.386719 169.328125 282.414062 168.792969 282.761719 168.480469 C 283.105469 168.167969 283.640625 168.195312 283.953125 168.539062 C 284.832031 169.511719 285.8125 170.507812 286.726562 171.425781 C 290.140625 168.003906 293.476562 164.492188 293.476562 161.234375 C 293.476562 159.605469 292.152344 158.28125 290.523438 158.28125 C 289.125 158.28125 287.851562 159.5625 287.558594 161.257812 C 287.488281 161.675781 287.117188 161.976562 286.691406 161.957031 C 286.265625 161.941406 285.921875 161.609375 285.886719 161.1875 C 285.769531 159.871094 284.425781 158.28125 282.929688 158.28125 C 282.140625 158.28125 281.398438 158.59375 280.835938 159.152344 C 280.507812 159.484375 279.972656 159.484375 279.644531 159.15625 C 279.3125 158.828125 279.3125 158.292969 279.640625 157.964844 C 280.519531 157.078125 281.6875 156.59375 282.929688 156.59375 C 284.492188 156.59375 285.882812 157.558594 286.726562 158.804688 C 287.597656 157.453125 288.992188 156.59375 290.523438 156.59375 C 293.082031 156.59375 295.164062 158.675781 295.164062 161.234375 C 295.164062 165.382812 291.179688 169.363281 287.324219 173.21875 C 287.160156 173.382812 286.945312 173.464844 286.726562 173.464844 Z M 286.726562 173.464844 " fill-opacity="1" fill-rule="nonzero"/><g clip-path="url(#d5904b82c3)"><path fill="#ffffff" d="M 291.988281 152.535156 L 279.371094 152.535156 C 278.902344 152.535156 278.523438 152.15625 278.523438 151.691406 L 278.523438 146.429688 C 278.523438 145.964844 278.902344 145.585938 279.371094 145.585938 L 291.988281 145.585938 C 292.453125 145.585938 292.832031 145.964844 292.832031 146.429688 L 292.832031 151.691406 C 292.832031 152.15625 292.453125 152.535156 291.988281 152.535156 Z M 280.214844 150.847656 L 291.144531 150.847656 L 291.144531 147.277344 L 280.214844 147.277344 Z M 280.214844 150.847656 " fill-opacity="1" fill-rule="nonzero"/></g><g clip-path="url(#33b553ba9d)"><path fill="#ffffff" d="M 298.722656 190.484375 L 272.640625 190.484375 C 270.261719 190.484375 268.328125 188.550781 268.328125 186.175781 L 268.328125 152.964844 C 268.328125 150.585938 270.261719 148.652344 272.640625 148.652344 L 279.371094 148.652344 C 279.835938 148.652344 280.214844 149.03125 280.214844 149.496094 L 280.214844 150.847656 L 291.144531 150.847656 L 291.144531 149.496094 C 291.144531 149.03125 291.519531 148.652344 291.988281 148.652344 L 298.722656 148.652344 C 301.097656 148.652344 303.03125 150.585938 303.03125 152.964844 L 303.03125 186.175781 C 303.03125 188.550781 301.097656 190.484375 298.722656 190.484375 Z M 272.640625 150.34375 C 271.195312 150.34375 270.015625 151.519531 270.015625 152.964844 L 270.015625 186.175781 C 270.015625 187.621094 271.195312 188.796875 272.640625 188.796875 L 298.722656 188.796875 C 300.164062 188.796875 301.339844 187.621094 301.339844 186.175781 L 301.339844 152.964844 C 301.339844 151.519531 300.164062 150.339844 298.722656 150.339844 L 292.832031 150.339844 L 292.832031 151.691406 C 292.832031 152.15625 292.453125 152.535156 291.988281 152.535156 L 279.371094 152.535156 C 278.902344 152.535156 278.523438 152.15625 278.523438 151.691406 L 278.523438 150.339844 L 272.640625 150.339844 Z M 272.640625 150.34375 " fill-opacity="1" fill-rule="nonzero"/></g><path fill="#ffffff" d="M 275.792969 179.128906 C 275.324219 179.128906 274.949219 178.75 274.949219 178.285156 C 274.949219 177.820312 275.324219 177.441406 275.792969 177.441406 L 296.164062 177.4375 C 296.632812 177.4375 297.007812 177.816406 297.007812 178.28125 C 297.011719 178.75 296.632812 179.125 296.164062 179.125 Z M 275.792969 179.128906 " fill-opacity="1" fill-rule="nonzero"/><path fill="#ffffff" d="M 275.785156 183.925781 C 275.320312 183.925781 274.941406 183.546875 274.941406 183.082031 C 274.941406 182.617188 275.320312 182.238281 275.785156 182.238281 L 296.160156 182.230469 C 296.625 182.230469 297.003906 182.609375 297.003906 183.074219 C 297.003906 183.542969 296.625 183.917969 296.160156 183.921875 Z M 275.785156 183.925781 " fill-opacity="1" fill-rule="nonzero"/><g fill="#ffffff" fill-opacity="1"><g transform="translate(36.827246, 233.313112)"><g><path d="M 26.21875 -8.9375 C 27.726562 -8.9375 29.191406 -9.160156 30.609375 -9.609375 C 32.023438 -10.066406 33.066406 -10.507812 33.734375 -10.9375 L 34.734375 -11.609375 L 38.9375 -3.203125 C 38.800781 -3.097656 38.609375 -2.957031 38.359375 -2.78125 C 38.109375 -2.601562 37.535156 -2.28125 36.640625 -1.8125 C 35.753906 -1.34375 34.800781 -0.929688 33.78125 -0.578125 C 32.769531 -0.222656 31.441406 0.0859375 29.796875 0.359375 C 28.148438 0.640625 26.453125 0.78125 24.703125 0.78125 C 20.671875 0.78125 16.847656 -0.207031 13.234375 -2.1875 C 9.628906 -4.164062 6.722656 -6.882812 4.515625 -10.34375 C 2.304688 -13.8125 1.203125 -17.5625 1.203125 -21.59375 C 1.203125 -24.644531 1.847656 -27.570312 3.140625 -30.375 C 4.441406 -33.175781 6.171875 -35.570312 8.328125 -37.5625 C 10.484375 -39.5625 12.992188 -41.15625 15.859375 -42.34375 C 18.734375 -43.539062 21.679688 -44.140625 24.703125 -44.140625 C 27.503906 -44.140625 30.085938 -43.804688 32.453125 -43.140625 C 34.816406 -42.472656 36.488281 -41.804688 37.46875 -41.140625 L 38.9375 -40.140625 L 34.734375 -31.734375 C 34.484375 -31.941406 34.113281 -32.195312 33.625 -32.5 C 33.132812 -32.800781 32.15625 -33.195312 30.6875 -33.6875 C 29.21875 -34.175781 27.726562 -34.421875 26.21875 -34.421875 C 23.832031 -34.421875 21.691406 -34.035156 19.796875 -33.265625 C 17.910156 -32.492188 16.414062 -31.476562 15.3125 -30.21875 C 14.207031 -28.957031 13.363281 -27.597656 12.78125 -26.140625 C 12.207031 -24.691406 11.921875 -23.210938 11.921875 -21.703125 C 11.921875 -18.410156 13.15625 -15.457031 15.625 -12.84375 C 18.101562 -10.238281 21.632812 -8.9375 26.21875 -8.9375 Z M 26.21875 -8.9375 "/></g></g></g><g fill="#ffffff" fill-opacity="1"><g transform="translate(75.077508, 233.313112)"><g><path d="M 3.15625 0 L 3.15625 -45.1875 L 12.453125 -45.1875 L 12.453125 -24.125 L 12.5625 -24.125 C 14.976562 -26.539062 17.550781 -27.75 20.28125 -27.75 C 21.613281 -27.75 22.9375 -27.570312 24.25 -27.21875 C 25.5625 -26.863281 26.820312 -26.316406 28.03125 -25.578125 C 29.238281 -24.847656 30.21875 -23.804688 30.96875 -22.453125 C 31.726562 -21.109375 32.109375 -19.546875 32.109375 -17.765625 L 32.109375 0 L 22.8125 0 L 22.8125 -15.234375 C 22.8125 -16.640625 22.363281 -17.867188 21.46875 -18.921875 C 20.570312 -19.972656 19.40625 -20.5 17.96875 -20.5 C 16.570312 -20.5 15.300781 -19.953125 14.15625 -18.859375 C 13.019531 -17.773438 12.453125 -16.566406 12.453125 -15.234375 L 12.453125 0 Z M 3.15625 0 "/></g></g></g><g fill="#ffffff" fill-opacity="1"><g transform="translate(108.493909, 233.313112)"><g><path d="M 4.984375 -3.34375 C 2.460938 -6.09375 1.203125 -9.460938 1.203125 -13.453125 C 1.203125 -17.441406 2.460938 -20.820312 4.984375 -23.59375 C 7.515625 -26.363281 10.722656 -27.75 14.609375 -27.75 C 18.179688 -27.75 21.125 -26.625 23.4375 -24.375 L 23.4375 -26.953125 L 32.734375 -26.953125 L 32.734375 0 L 23.546875 0 L 23.546875 -3.046875 L 23.4375 -3.046875 C 21.125 -0.492188 18.179688 0.78125 14.609375 0.78125 C 10.722656 0.78125 7.515625 -0.59375 4.984375 -3.34375 Z M 12.90625 -18.015625 C 11.695312 -16.828125 11.09375 -15.304688 11.09375 -13.453125 C 11.09375 -11.597656 11.671875 -10.082031 12.828125 -8.90625 C 13.984375 -7.726562 15.503906 -7.140625 17.390625 -7.140625 C 19.210938 -7.140625 20.707031 -7.734375 21.875 -8.921875 C 23.050781 -10.117188 23.640625 -11.628906 23.640625 -13.453125 C 23.640625 -15.304688 23.035156 -16.828125 21.828125 -18.015625 C 20.617188 -19.210938 19.140625 -19.8125 17.390625 -19.8125 C 15.609375 -19.8125 14.113281 -19.210938 12.90625 -18.015625 Z M 12.90625 -18.015625 "/></g></g></g><g fill="#ffffff" fill-opacity="1"><g transform="translate(143.06622, 233.313112)"><g><path d="M 3.15625 0 L 3.15625 -26.953125 L 12.453125 -26.953125 L 12.453125 -23.0625 L 12.5625 -23.0625 C 12.625 -23.207031 12.734375 -23.382812 12.890625 -23.59375 C 13.054688 -23.800781 13.398438 -24.164062 13.921875 -24.6875 C 14.453125 -25.21875 15.015625 -25.691406 15.609375 -26.109375 C 16.203125 -26.535156 16.972656 -26.914062 17.921875 -27.25 C 18.867188 -27.582031 19.832031 -27.75 20.8125 -27.75 C 21.820312 -27.75 22.816406 -27.609375 23.796875 -27.328125 C 24.785156 -27.046875 25.503906 -26.765625 25.953125 -26.484375 L 26.6875 -26.0625 L 22.8125 -18.1875 C 21.65625 -19.164062 20.039062 -19.65625 17.96875 -19.65625 C 16.851562 -19.65625 15.890625 -19.410156 15.078125 -18.921875 C 14.273438 -18.429688 13.707031 -17.832031 13.375 -17.125 C 13.039062 -16.425781 12.800781 -15.832031 12.65625 -15.34375 C 12.519531 -14.851562 12.453125 -14.46875 12.453125 -14.1875 L 12.453125 0 Z M 3.15625 0 "/></g></g></g><g fill="#ffffff" fill-opacity="1"><g transform="translate(167.918272, 233.313112)"><g><path d="M 4.734375 -26.953125 L 4.734375 -37 L 14.03125 -37 L 14.03125 -26.953125 L 19.703125 -26.953125 L 19.703125 -19.859375 L 14.03125 -19.859375 L 14.03125 -11.296875 C 14.03125 -8.804688 14.726562 -7.5625 16.125 -7.5625 C 16.476562 -7.5625 16.847656 -7.628906 17.234375 -7.765625 C 17.617188 -7.910156 17.914062 -8.054688 18.125 -8.203125 L 18.4375 -8.40625 L 20.75 -0.890625 C 18.757812 0.222656 16.484375 0.78125 13.921875 0.78125 C 12.171875 0.78125 10.664062 0.476562 9.40625 -0.125 C 8.144531 -0.738281 7.1875 -1.5625 6.53125 -2.59375 C 5.882812 -3.632812 5.421875 -4.722656 5.140625 -5.859375 C 4.867188 -6.992188 4.734375 -8.210938 4.734375 -9.515625 L 4.734375 -19.859375 L 0.84375 -19.859375 L 0.84375 -26.953125 Z M 4.734375 -26.953125 "/></g></g></g><g fill="#cb6ce6" fill-opacity="1"><g transform="translate(187.36389, 233.313112)"><g><path d="M 36.421875 0 L 29.484375 -24.328125 L 22.546875 0 L 11.5625 0 L -0.78125 -43.34375 L 10.1875 -43.34375 L 17.609375 -13.609375 L 17.859375 -13.609375 L 25.75 -43.34375 L 33.203125 -43.34375 L 41.09375 -13.609375 L 41.359375 -13.609375 L 48.765625 -43.34375 L 59.6875 -43.34375 L 47.34375 0 Z M 36.421875 0 "/></g></g></g><g fill="#cb6ce6" fill-opacity="1"><g transform="translate(244.949598, 233.313112)"><g><path d="M 4.046875 -41.984375 C 5.128906 -43.066406 6.421875 -43.609375 7.921875 -43.609375 C 9.429688 -43.609375 10.726562 -43.066406 11.8125 -41.984375 C 12.90625 -40.898438 13.453125 -39.601562 13.453125 -38.09375 C 13.453125 -36.59375 12.90625 -35.296875 11.8125 -34.203125 C 10.726562 -33.117188 9.429688 -32.578125 7.921875 -32.578125 C 6.421875 -32.578125 5.128906 -33.117188 4.046875 -34.203125 C 2.960938 -35.296875 2.421875 -36.59375 2.421875 -38.09375 C 2.421875 -39.601562 2.960938 -40.898438 4.046875 -41.984375 Z M 3.15625 -26.953125 L 3.15625 0 L 12.453125 0 L 12.453125 -26.953125 Z M 3.15625 -26.953125 "/></g></g></g><g fill="#cb6ce6" fill-opacity="1"><g transform="translate(259.503427, 233.313112)"><g><path d="M 4.734375 -26.953125 L 4.734375 -37 L 14.03125 -37 L 14.03125 -26.953125 L 19.703125 -26.953125 L 19.703125 -19.859375 L 14.03125 -19.859375 L 14.03125 -11.296875 C 14.03125 -8.804688 14.726562 -7.5625 16.125 -7.5625 C 16.476562 -7.5625 16.847656 -7.628906 17.234375 -7.765625 C 17.617188 -7.910156 17.914062 -8.054688 18.125 -8.203125 L 18.4375 -8.40625 L 20.75 -0.890625 C 18.757812 0.222656 16.484375 0.78125 13.921875 0.78125 C 12.171875 0.78125 10.664062 0.476562 9.40625 -0.125 C 8.144531 -0.738281 7.1875 -1.5625 6.53125 -2.59375 C 5.882812 -3.632812 5.421875 -4.722656 5.140625 -5.859375 C 4.867188 -6.992188 4.734375 -8.210938 4.734375 -9.515625 L 4.734375 -19.859375 L 0.84375 -19.859375 L 0.84375 -26.953125 Z M 4.734375 -26.953125 "/></g></g></g><g fill="#cb6ce6" fill-opacity="1"><g transform="translate(278.943654, 233.313112)"><g><path d="M 17.5 -20.125 C 15.75 -20.125 14.242188 -19.472656 12.984375 -18.171875 C 11.722656 -16.878906 11.09375 -15.320312 11.09375 -13.5 C 11.09375 -11.644531 11.722656 -10.066406 12.984375 -8.765625 C 14.242188 -7.472656 15.75 -6.828125 17.5 -6.828125 C 18.34375 -6.828125 19.140625 -6.929688 19.890625 -7.140625 C 20.640625 -7.359375 21.191406 -7.570312 21.546875 -7.78125 L 22.015625 -8.09375 L 25.171875 -1.625 C 24.921875 -1.445312 24.578125 -1.226562 24.140625 -0.96875 C 23.703125 -0.707031 22.703125 -0.351562 21.140625 0.09375 C 19.585938 0.550781 17.914062 0.78125 16.125 0.78125 C 12.164062 0.78125 8.6875 -0.609375 5.6875 -3.390625 C 2.695312 -6.171875 1.203125 -9.507812 1.203125 -13.40625 C 1.203125 -17.320312 2.695312 -20.691406 5.6875 -23.515625 C 8.6875 -26.335938 12.164062 -27.75 16.125 -27.75 C 17.914062 -27.75 19.5625 -27.535156 21.0625 -27.109375 C 22.570312 -26.691406 23.644531 -26.273438 24.28125 -25.859375 L 25.171875 -25.21875 L 22.015625 -18.859375 C 20.859375 -19.703125 19.351562 -20.125 17.5 -20.125 Z M 17.5 -20.125 "/></g></g></g><g fill="#cb6ce6" fill-opacity="1"><g transform="translate(303.427905, 233.313112)"><g><path d="M 3.15625 0 L 3.15625 -45.1875 L 12.453125 -45.1875 L 12.453125 -24.125 L 12.5625 -24.125 C 14.976562 -26.539062 17.550781 -27.75 20.28125 -27.75 C 21.613281 -27.75 22.9375 -27.570312 24.25 -27.21875 C 25.5625 -26.863281 26.820312 -26.316406 28.03125 -25.578125 C 29.238281 -24.847656 30.21875 -23.804688 30.96875 -22.453125 C 31.726562 -21.109375 32.109375 -19.546875 32.109375 -17.765625 L 32.109375 0 L 22.8125 0 L 22.8125 -15.234375 C 22.8125 -16.640625 22.363281 -17.867188 21.46875 -18.921875 C 20.570312 -19.972656 19.40625 -20.5 17.96875 -20.5 C 16.570312 -20.5 15.300781 -19.953125 14.15625 -18.859375 C 13.019531 -17.773438 12.453125 -16.566406 12.453125 -15.234375 L 12.453125 0 Z M 3.15625 0 "/></g></g></g><g clip-path="url(#c219345f7b)"><path fill="#4a4a4a" d="M 35.785156 200.644531 C 34.460938 198.527344 33.191406 196.375 31.984375 194.191406 C 28.273438 195.234375 24.515625 196.28125 20.761719 197.328125 C 24.835938 190.179688 28.910156 183.035156 32.984375 175.886719 C 34.242188 173.679688 35.847656 171.230469 38.367188 170.902344 C 39.890625 170.703125 41.382812 171.355469 42.761719 172.027344 C 48.757812 174.929688 54.472656 178.417969 59.6875 182.457031 C 66.957031 179.25 82.550781 173.820312 84.515625 177.457031 C 86.476562 181.089844 42.882812 205.535156 20.5 213.238281 C 18.371094 213.96875 17.933594 212.386719 18.507812 211.371094 C 20.582031 207.71875 29.769531 200.824219 34.523438 198.355469 " fill-opacity="1" fill-rule="nonzero"/></g><path fill="#cb6ce6" d="M 59.546875 182.375 C 58.042969 181.191406 57.519531 180.855469 56.246094 179.953125 C 49.757812 186.902344 41.976562 193.097656 33.574219 196.996094 C 33.890625 197.550781 34.472656 198.53125 35.582031 200.332031 C 38.132812 199.046875 45.679688 194.824219 47.953125 193.164062 C 50.984375 190.941406 58.21875 185.867188 59.546875 182.375 Z M 59.546875 182.375 " fill-opacity="1" fill-rule="nonzero"/><g clip-path="url(#216a6401ec)"><g clip-path="url(#1b2341e222)"><g clip-path="url(#0703cc20f7)"><path fill="#cb6ce6" d="M 240.476562 175.746094 L 238.289062 183.003906 L 236.105469 190.261719 C 239.003906 191.128906 241.902344 192 244.804688 192.871094 C 243.359375 187.160156 241.917969 181.453125 240.476562 175.746094 " fill-opacity="1" fill-rule="nonzero"/></g></g></g><g fill="#4a4a4a" fill-opacity="1"><g transform="translate(29.912728, 275.230943)"><g><path d="M 12.421875 0 L 11.5 -2.8125 L 5.484375 -2.8125 L 4.546875 0 L 0.21875 0 L 6.03125 -16.78125 L 10.984375 -16.78125 L 16.78125 0 Z M 6.515625 -5.90625 L 10.46875 -5.90625 L 8.484375 -11.875 Z M 6.515625 -5.90625 "/></g></g></g><g fill="#4a4a4a" fill-opacity="1"><g transform="translate(46.902001, 275.230943)"><g><path d="M 10.828125 -13.3125 L 14.90625 -13.3125 L 14.90625 0 L 10.828125 0 L 10.828125 -1.953125 C 9.984375 -0.554688 8.640625 0.140625 6.796875 0.140625 C 5.265625 0.140625 4.023438 -0.363281 3.078125 -1.375 C 2.140625 -2.394531 1.671875 -3.78125 1.671875 -5.53125 L 1.671875 -13.3125 L 5.71875 -13.3125 L 5.71875 -6.078125 C 5.71875 -5.222656 5.941406 -4.5625 6.390625 -4.09375 C 6.847656 -3.625 7.472656 -3.390625 8.265625 -3.390625 C 9.066406 -3.390625 9.691406 -3.625 10.140625 -4.09375 C 10.597656 -4.5625 10.828125 -5.222656 10.828125 -6.078125 Z M 10.828125 -13.3125 "/></g></g></g><g fill="#4a4a4a" fill-opacity="1"><g transform="translate(63.581516, 275.230943)"><g><path d="M 7.4375 -3.453125 L 8.890625 -3.453125 L 8.890625 0 L 6.8125 0 C 5.320312 0 4.164062 -0.328125 3.34375 -0.984375 C 2.53125 -1.648438 2.125 -2.785156 2.125 -4.390625 L 2.125 -9.921875 L 0.875 -9.921875 L 0.875 -13.3125 L 2.125 -13.3125 L 2.125 -16.546875 L 6.203125 -16.546875 L 6.203125 -13.3125 L 8.875 -13.3125 L 8.875 -9.921875 L 6.203125 -9.921875 L 6.203125 -4.390625 C 6.203125 -3.765625 6.613281 -3.453125 7.4375 -3.453125 Z M 7.4375 -3.453125 "/></g></g></g><g fill="#4a4a4a" fill-opacity="1"><g transform="translate(73.470087, 275.230943)"><g><path d="M 9.78125 -4.171875 C 10.320312 -4.742188 10.59375 -5.570312 10.59375 -6.65625 C 10.59375 -7.738281 10.3125 -8.5625 9.75 -9.125 C 9.195312 -9.6875 8.535156 -9.96875 7.765625 -9.96875 C 7.003906 -9.96875 6.347656 -9.6875 5.796875 -9.125 C 5.253906 -8.5625 4.984375 -7.738281 4.984375 -6.65625 C 4.984375 -5.570312 5.265625 -4.742188 5.828125 -4.171875 C 6.390625 -3.597656 7.050781 -3.3125 7.8125 -3.3125 C 8.582031 -3.3125 9.238281 -3.597656 9.78125 -4.171875 Z M 2.84375 -1.703125 C 1.5 -2.960938 0.828125 -4.617188 0.828125 -6.671875 C 0.828125 -8.722656 1.492188 -10.363281 2.828125 -11.59375 C 4.171875 -12.832031 5.828125 -13.453125 7.796875 -13.453125 C 9.765625 -13.453125 11.410156 -12.832031 12.734375 -11.59375 C 14.066406 -10.363281 14.734375 -8.722656 14.734375 -6.671875 C 14.734375 -4.617188 14.070312 -2.960938 12.75 -1.703125 C 11.4375 -0.453125 9.789062 0.171875 7.8125 0.171875 C 5.84375 0.171875 4.1875 -0.453125 2.84375 -1.703125 Z M 2.84375 -1.703125 "/></g></g></g><g fill="#4a4a4a" fill-opacity="1"><g transform="translate(89.029681, 275.230943)"><g><path d="M 5.859375 -13.3125 L 5.859375 -11.34375 C 6.703125 -12.75 8.046875 -13.453125 9.890625 -13.453125 C 10.878906 -13.453125 11.757812 -13.226562 12.53125 -12.78125 C 13.300781 -12.332031 13.898438 -11.695312 14.328125 -10.875 C 14.816406 -11.65625 15.457031 -12.28125 16.25 -12.75 C 17.039062 -13.21875 17.921875 -13.453125 18.890625 -13.453125 C 20.503906 -13.453125 21.785156 -12.945312 22.734375 -11.9375 C 23.691406 -10.9375 24.171875 -9.546875 24.171875 -7.765625 L 24.171875 0 L 20.125 0 L 20.125 -7.21875 C 20.125 -8.082031 19.894531 -8.75 19.4375 -9.21875 C 18.988281 -9.6875 18.363281 -9.921875 17.5625 -9.921875 C 16.769531 -9.921875 16.144531 -9.6875 15.6875 -9.21875 C 15.238281 -8.75 15.015625 -8.082031 15.015625 -7.21875 L 15.015625 0 L 10.96875 0 L 10.96875 -7.21875 C 10.96875 -8.082031 10.738281 -8.75 10.28125 -9.21875 C 9.832031 -9.6875 9.207031 -9.921875 8.40625 -9.921875 C 7.613281 -9.921875 6.988281 -9.6875 6.53125 -9.21875 C 6.082031 -8.75 5.859375 -8.082031 5.859375 -7.21875 L 5.859375 0 L 1.78125 0 L 1.78125 -13.3125 Z M 5.859375 -13.3125 "/></g></g></g><g fill="#4a4a4a" fill-opacity="1"><g transform="translate(114.859097, 275.230943)"><g><path d="M 9.890625 -4.21875 C 10.484375 -4.789062 10.78125 -5.597656 10.78125 -6.640625 C 10.78125 -7.691406 10.484375 -8.5 9.890625 -9.0625 C 9.304688 -9.632812 8.628906 -9.921875 7.859375 -9.921875 C 7.097656 -9.921875 6.421875 -9.632812 5.828125 -9.0625 C 5.242188 -8.488281 4.953125 -7.675781 4.953125 -6.625 C 4.953125 -5.582031 5.242188 -4.773438 5.828125 -4.203125 C 6.421875 -3.640625 7.097656 -3.359375 7.859375 -3.359375 C 8.628906 -3.359375 9.304688 -3.644531 9.890625 -4.21875 Z M 2.578125 -1.734375 C 1.398438 -3.003906 0.8125 -4.632812 0.8125 -6.625 C 0.8125 -8.613281 1.398438 -10.25 2.578125 -11.53125 C 3.753906 -12.8125 5.1875 -13.453125 6.875 -13.453125 C 8.570312 -13.453125 9.875 -12.820312 10.78125 -11.5625 L 10.78125 -13.3125 L 14.859375 -13.3125 L 14.859375 0 L 10.78125 0 L 10.78125 -1.9375 C 9.789062 -0.53125 8.46875 0.171875 6.8125 0.171875 C 5.164062 0.171875 3.753906 -0.460938 2.578125 -1.734375 Z M 2.578125 -1.734375 "/></g></g></g><g fill="#4a4a4a" fill-opacity="1"><g transform="translate(131.490951, 275.230943)"><g><path d="M 7.4375 -3.453125 L 8.890625 -3.453125 L 8.890625 0 L 6.8125 0 C 5.320312 0 4.164062 -0.328125 3.34375 -0.984375 C 2.53125 -1.648438 2.125 -2.785156 2.125 -4.390625 L 2.125 -9.921875 L 0.875 -9.921875 L 0.875 -13.3125 L 2.125 -13.3125 L 2.125 -16.546875 L 6.203125 -16.546875 L 6.203125 -13.3125 L 8.875 -13.3125 L 8.875 -9.921875 L 6.203125 -9.921875 L 6.203125 -4.390625 C 6.203125 -3.765625 6.613281 -3.453125 7.4375 -3.453125 Z M 7.4375 -3.453125 "/></g></g></g><g fill="#4a4a4a" fill-opacity="1"><g transform="translate(141.379522, 275.230943)"><g><path d="M 7.4375 0.171875 C 5.5 0.171875 3.910156 -0.453125 2.671875 -1.703125 C 1.429688 -2.953125 0.8125 -4.609375 0.8125 -6.671875 C 0.8125 -8.742188 1.425781 -10.390625 2.65625 -11.609375 C 3.882812 -12.835938 5.476562 -13.453125 7.4375 -13.453125 C 9.394531 -13.453125 11.015625 -12.847656 12.296875 -11.640625 C 13.585938 -10.429688 14.234375 -8.753906 14.234375 -6.609375 C 14.234375 -6.140625 14.203125 -5.707031 14.140625 -5.3125 L 4.984375 -5.3125 C 5.066406 -4.726562 5.328125 -4.25 5.765625 -3.875 C 6.210938 -3.5 6.691406 -3.3125 7.203125 -3.3125 C 7.722656 -3.3125 8.109375 -3.363281 8.359375 -3.46875 C 8.617188 -3.570312 8.804688 -3.675781 8.921875 -3.78125 C 9.046875 -3.882812 9.203125 -4.054688 9.390625 -4.296875 L 13.8125 -4.296875 C 13.425781 -2.953125 12.660156 -1.867188 11.515625 -1.046875 C 10.367188 -0.234375 9.007812 0.171875 7.4375 0.171875 Z M 9.984375 -7.875 C 9.921875 -8.488281 9.648438 -8.988281 9.171875 -9.375 C 8.703125 -9.769531 8.140625 -9.96875 7.484375 -9.96875 C 6.835938 -9.96875 6.289062 -9.769531 5.84375 -9.375 C 5.394531 -8.988281 5.113281 -8.488281 5 -7.875 Z M 9.984375 -7.875 "/></g></g></g><g fill="#4a4a4a" fill-opacity="1"><g transform="translate(156.438731, 275.230943)"><g/></g></g><g fill="#4a4a4a" fill-opacity="1"><g transform="translate(163.587095, 275.230943)"><g><path d="M 20.75 -16.734375 L 20.75 0 L 16.671875 0 L 16.671875 -9.4375 L 12.78125 0 L 9.75 0 L 5.859375 -9.4375 L 5.859375 0 L 1.78125 0 L 1.78125 -16.734375 L 6.46875 -16.734375 L 11.28125 -5.203125 L 16.078125 -16.734375 Z M 20.75 -16.734375 "/></g></g></g><g fill="#4a4a4a" fill-opacity="1"><g transform="translate(186.104426, 275.230943)"><g><path d="M 7.4375 0.171875 C 5.5 0.171875 3.910156 -0.453125 2.671875 -1.703125 C 1.429688 -2.953125 0.8125 -4.609375 0.8125 -6.671875 C 0.8125 -8.742188 1.425781 -10.390625 2.65625 -11.609375 C 3.882812 -12.835938 5.476562 -13.453125 7.4375 -13.453125 C 9.394531 -13.453125 11.015625 -12.847656 12.296875 -11.640625 C 13.585938 -10.429688 14.234375 -8.753906 14.234375 -6.609375 C 14.234375 -6.140625 14.203125 -5.707031 14.140625 -5.3125 L 4.984375 -5.3125 C 5.066406 -4.726562 5.328125 -4.25 5.765625 -3.875 C 6.210938 -3.5 6.691406 -3.3125 7.203125 -3.3125 C 7.722656 -3.3125 8.109375 -3.363281 8.359375 -3.46875 C 8.617188 -3.570312 8.804688 -3.675781 8.921875 -3.78125 C 9.046875 -3.882812 9.203125 -4.054688 9.390625 -4.296875 L 13.8125 -4.296875 C 13.425781 -2.953125 12.660156 -1.867188 11.515625 -1.046875 C 10.367188 -0.234375 9.007812 0.171875 7.4375 0.171875 Z M 9.984375 -7.875 C 9.921875 -8.488281 9.648438 -8.988281 9.171875 -9.375 C 8.703125 -9.769531 8.140625 -9.96875 7.484375 -9.96875 C 6.835938 -9.96875 6.289062 -9.769531 5.84375 -9.375 C 5.394531 -8.988281 5.113281 -8.488281 5 -7.875 Z M 9.984375 -7.875 "/></g></g></g><g fill="#4a4a4a" fill-opacity="1"><g transform="translate(201.163635, 275.230943)"><g><path d="M 9.890625 -4.21875 C 10.484375 -4.789062 10.78125 -5.597656 10.78125 -6.640625 C 10.78125 -7.691406 10.484375 -8.5 9.890625 -9.0625 C 9.304688 -9.632812 8.628906 -9.921875 7.859375 -9.921875 C 7.097656 -9.921875 6.421875 -9.632812 5.828125 -9.0625 C 5.242188 -8.488281 4.953125 -7.675781 4.953125 -6.625 C 4.953125 -5.582031 5.242188 -4.773438 5.828125 -4.203125 C 6.421875 -3.640625 7.097656 -3.359375 7.859375 -3.359375 C 8.628906 -3.359375 9.304688 -3.644531 9.890625 -4.21875 Z M 2.578125 -1.734375 C 1.398438 -3.003906 0.8125 -4.632812 0.8125 -6.625 C 0.8125 -8.613281 1.398438 -10.25 2.578125 -11.53125 C 3.753906 -12.8125 5.1875 -13.453125 6.875 -13.453125 C 8.570312 -13.453125 9.875 -12.820312 10.78125 -11.5625 L 10.78125 -17.640625 L 14.859375 -17.640625 L 14.859375 0 L 10.78125 0 L 10.78125 -1.9375 C 9.789062 -0.53125 8.46875 0.171875 6.8125 0.171875 C 5.164062 0.171875 3.753906 -0.460938 2.578125 -1.734375 Z M 2.578125 -1.734375 "/></g></g></g><g fill="#4a4a4a" fill-opacity="1"><g transform="translate(217.795489, 275.230943)"><g><path d="M 5.5 -14.796875 C 5.039062 -14.335938 4.476562 -14.109375 3.8125 -14.109375 C 3.144531 -14.109375 2.582031 -14.335938 2.125 -14.796875 C 1.664062 -15.265625 1.4375 -15.835938 1.4375 -16.515625 C 1.4375 -17.191406 1.664062 -17.757812 2.125 -18.21875 C 2.582031 -18.675781 3.144531 -18.90625 3.8125 -18.90625 C 4.476562 -18.90625 5.039062 -18.675781 5.5 -18.21875 C 5.96875 -17.757812 6.203125 -17.191406 6.203125 -16.515625 C 6.203125 -15.835938 5.96875 -15.265625 5.5 -14.796875 Z M 1.78125 0 L 1.78125 -13.3125 L 5.859375 -13.3125 L 5.859375 0 Z M 1.78125 0 "/></g></g></g><g fill="#4a4a4a" fill-opacity="1"><g transform="translate(225.444237, 275.230943)"><g><path d="M 2.65625 -1.6875 C 1.425781 -2.925781 0.8125 -4.578125 0.8125 -6.640625 C 0.8125 -8.710938 1.425781 -10.363281 2.65625 -11.59375 C 3.882812 -12.832031 5.476562 -13.453125 7.4375 -13.453125 C 9.0625 -13.453125 10.4375 -13.050781 11.5625 -12.25 C 12.6875 -11.445312 13.4375 -10.296875 13.8125 -8.796875 L 9.390625 -8.796875 C 9.015625 -9.585938 8.390625 -9.984375 7.515625 -9.984375 C 6.648438 -9.984375 6.003906 -9.675781 5.578125 -9.0625 C 5.160156 -8.457031 4.953125 -7.65625 4.953125 -6.65625 C 4.953125 -5.65625 5.160156 -4.847656 5.578125 -4.234375 C 6.003906 -3.617188 6.625 -3.3125 7.4375 -3.3125 C 7.945312 -3.3125 8.34375 -3.398438 8.625 -3.578125 C 8.914062 -3.753906 9.171875 -4.0625 9.390625 -4.5 L 13.8125 -4.5 C 13.4375 -3.070312 12.675781 -1.9375 11.53125 -1.09375 C 10.394531 -0.25 9.03125 0.171875 7.4375 0.171875 C 5.476562 0.171875 3.882812 -0.445312 2.65625 -1.6875 Z M 2.65625 -1.6875 "/></g></g></g><g fill="#4a4a4a" fill-opacity="1"><g transform="translate(239.740963, 275.230943)"><g><path d="M 9.890625 -4.21875 C 10.484375 -4.789062 10.78125 -5.597656 10.78125 -6.640625 C 10.78125 -7.691406 10.484375 -8.5 9.890625 -9.0625 C 9.304688 -9.632812 8.628906 -9.921875 7.859375 -9.921875 C 7.097656 -9.921875 6.421875 -9.632812 5.828125 -9.0625 C 5.242188 -8.488281 4.953125 -7.675781 4.953125 -6.625 C 4.953125 -5.582031 5.242188 -4.773438 5.828125 -4.203125 C 6.421875 -3.640625 7.097656 -3.359375 7.859375 -3.359375 C 8.628906 -3.359375 9.304688 -3.644531 9.890625 -4.21875 Z M 2.578125 -1.734375 C 1.398438 -3.003906 0.8125 -4.632812 0.8125 -6.625 C 0.8125 -8.613281 1.398438 -10.25 2.578125 -11.53125 C 3.753906 -12.8125 5.1875 -13.453125 6.875 -13.453125 C 8.570312 -13.453125 9.875 -12.820312 10.78125 -11.5625 L 10.78125 -13.3125 L 14.859375 -13.3125 L 14.859375 0 L 10.78125 0 L 10.78125 -1.9375 C 9.789062 -0.53125 8.46875 0.171875 6.8125 0.171875 C 5.164062 0.171875 3.753906 -0.460938 2.578125 -1.734375 Z M 2.578125 -1.734375 "/></g></g></g><g fill="#4a4a4a" fill-opacity="1"><g transform="translate(256.372817, 275.230943)"><g><path d="M 1.78125 0 L 1.78125 -17.640625 L 5.859375 -17.640625 L 5.859375 0 Z M 1.78125 0 "/></g></g></g><g fill="#4a4a4a" fill-opacity="1"><g transform="translate(264.021565, 275.230943)"><g/></g></g><g fill="#4a4a4a" fill-opacity="1"><g transform="translate(271.169928, 275.230943)"><g><path d="M 12.6875 -16.78125 L 16.765625 -16.78125 L 16.765625 0 L 12.6875 0 L 5.859375 -10.5625 L 5.859375 0 L 1.78125 0 L 1.78125 -16.78125 L 5.859375 -16.78125 L 12.6875 -6.21875 Z M 12.6875 -16.78125 "/></g></g></g><g fill="#4a4a4a" fill-opacity="1"><g transform="translate(289.708016, 275.230943)"><g><path d="M 9.78125 -4.171875 C 10.320312 -4.742188 10.59375 -5.570312 10.59375 -6.65625 C 10.59375 -7.738281 10.3125 -8.5625 9.75 -9.125 C 9.195312 -9.6875 8.535156 -9.96875 7.765625 -9.96875 C 7.003906 -9.96875 6.347656 -9.6875 5.796875 -9.125 C 5.253906 -8.5625 4.984375 -7.738281 4.984375 -6.65625 C 4.984375 -5.570312 5.265625 -4.742188 5.828125 -4.171875 C 6.390625 -3.597656 7.050781 -3.3125 7.8125 -3.3125 C 8.582031 -3.3125 9.238281 -3.597656 9.78125 -4.171875 Z M 2.84375 -1.703125 C 1.5 -2.960938 0.828125 -4.617188 0.828125 -6.671875 C 0.828125 -8.722656 1.492188 -10.363281 2.828125 -11.59375 C 4.171875 -12.832031 5.828125 -13.453125 7.796875 -13.453125 C 9.765625 -13.453125 11.410156 -12.832031 12.734375 -11.59375 C 14.066406 -10.363281 14.734375 -8.722656 14.734375 -6.671875 C 14.734375 -4.617188 14.070312 -2.960938 12.75 -1.703125 C 11.4375 -0.453125 9.789062 0.171875 7.8125 0.171875 C 5.84375 0.171875 4.1875 -0.453125 2.84375 -1.703125 Z M 2.84375 -1.703125 "/></g></g></g><g fill="#4a4a4a" fill-opacity="1"><g transform="translate(305.26761, 275.230943)"><g><path d="M 7.4375 -3.453125 L 8.890625 -3.453125 L 8.890625 0 L 6.8125 0 C 5.320312 0 4.164062 -0.328125 3.34375 -0.984375 C 2.53125 -1.648438 2.125 -2.785156 2.125 -4.390625 L 2.125 -9.921875 L 0.875 -9.921875 L 0.875 -13.3125 L 2.125 -13.3125 L 2.125 -16.546875 L 6.203125 -16.546875 L 6.203125 -13.3125 L 8.875 -13.3125 L 8.875 -9.921875 L 6.203125 -9.921875 L 6.203125 -4.390625 C 6.203125 -3.765625 6.613281 -3.453125 7.4375 -3.453125 Z M 7.4375 -3.453125 "/></g></g></g><g fill="#4a4a4a" fill-opacity="1"><g transform="translate(315.156181, 275.230943)"><g><path d="M 7.4375 0.171875 C 5.5 0.171875 3.910156 -0.453125 2.671875 -1.703125 C 1.429688 -2.953125 0.8125 -4.609375 0.8125 -6.671875 C 0.8125 -8.742188 1.425781 -10.390625 2.65625 -11.609375 C 3.882812 -12.835938 5.476562 -13.453125 7.4375 -13.453125 C 9.394531 -13.453125 11.015625 -12.847656 12.296875 -11.640625 C 13.585938 -10.429688 14.234375 -8.753906 14.234375 -6.609375 C 14.234375 -6.140625 14.203125 -5.707031 14.140625 -5.3125 L 4.984375 -5.3125 C 5.066406 -4.726562 5.328125 -4.25 5.765625 -3.875 C 6.210938 -3.5 6.691406 -3.3125 7.203125 -3.3125 C 7.722656 -3.3125 8.109375 -3.363281 8.359375 -3.46875 C 8.617188 -3.570312 8.804688 -3.675781 8.921875 -3.78125 C 9.046875 -3.882812 9.203125 -4.054688 9.390625 -4.296875 L 13.8125 -4.296875 C 13.425781 -2.953125 12.660156 -1.867188 11.515625 -1.046875 C 10.367188 -0.234375 9.007812 0.171875 7.4375 0.171875 Z M 9.984375 -7.875 C 9.921875 -8.488281 9.648438 -8.988281 9.171875 -9.375 C 8.703125 -9.769531 8.140625 -9.96875 7.484375 -9.96875 C 6.835938 -9.96875 6.289062 -9.769531 5.84375 -9.375 C 5.394531 -8.988281 5.113281 -8.488281 5 -7.875 Z M 9.984375 -7.875 "/></g></g></g><g fill="#4a4a4a" fill-opacity="1"><g transform="translate(330.21539, 275.230943)"><g><path d="M 0.875 -9.296875 C 0.875 -10.472656 1.375 -11.457031 2.375 -12.25 C 3.382812 -13.050781 4.742188 -13.453125 6.453125 -13.453125 C 8.160156 -13.453125 9.535156 -13.0625 10.578125 -12.28125 C 11.628906 -11.5 12.1875 -10.429688 12.25 -9.078125 L 8.078125 -9.078125 C 8.035156 -9.546875 7.878906 -9.863281 7.609375 -10.03125 C 7.335938 -10.195312 6.929688 -10.28125 6.390625 -10.28125 C 5.328125 -10.28125 4.796875 -9.953125 4.796875 -9.296875 C 4.796875 -8.710938 5.445312 -8.304688 6.75 -8.078125 C 8.070312 -7.859375 9.269531 -7.519531 10.34375 -7.0625 C 10.90625 -6.832031 11.367188 -6.457031 11.734375 -5.9375 C 12.109375 -5.425781 12.296875 -4.796875 12.296875 -4.046875 C 12.296875 -2.804688 11.765625 -1.789062 10.703125 -1 C 9.640625 -0.21875 8.296875 0.171875 6.671875 0.171875 C 5.054688 0.171875 3.707031 -0.195312 2.625 -0.9375 C 1.539062 -1.675781 0.953125 -2.769531 0.859375 -4.21875 L 5.03125 -4.21875 C 5.144531 -3.40625 5.71875 -3 6.75 -3 C 7.226562 -3 7.617188 -3.109375 7.921875 -3.328125 C 8.234375 -3.554688 8.390625 -3.84375 8.390625 -4.1875 C 8.390625 -4.539062 8.128906 -4.820312 7.609375 -5.03125 C 7.097656 -5.238281 6.476562 -5.410156 5.75 -5.546875 C 5.019531 -5.691406 4.285156 -5.867188 3.546875 -6.078125 C 2.804688 -6.296875 2.175781 -6.671875 1.65625 -7.203125 C 1.132812 -7.742188 0.875 -8.441406 0.875 -9.296875 Z M 0.875 -9.296875 "/></g></g></g></svg>
