<svg width="500" height="500" viewBox="0 0 500 500" fill="none" xmlns="http://www.w3.org/2000/svg">
<mask id="mask0_1_143" style="mask-type:luminance" maskUnits="userSpaceOnUse" x="345" y="141" width="21" height="29">
<path d="M345.656 141.333H365.656V169.333H345.656V141.333Z" fill="white"/>
</mask>
<g mask="url(#mask0_1_143)">
<mask id="mask1_1_143" style="mask-type:luminance" maskUnits="userSpaceOnUse" x="283" y="105" width="134" height="135">
<path d="M283.635 153.281L367.745 105.786L416.286 191.74L332.177 239.24L283.635 153.281Z" fill="white"/>
</mask>
<g mask="url(#mask1_1_143)">
<mask id="mask2_1_143" style="mask-type:luminance" maskUnits="userSpaceOnUse" x="283" y="105" width="134" height="135">
<path d="M367.786 105.76L283.682 153.255L332.219 239.214L416.328 191.719L367.786 105.76Z" fill="white"/>
</mask>
<g mask="url(#mask2_1_143)">
<path d="M352.599 166.161C352.5 166.135 352.401 166.109 352.302 166.083C349.13 165.224 345.964 164.724 345.766 165.417L351.62 144.375C352.021 142.948 353.719 142.172 355.417 142.641L362.328 144.568C364.026 145.036 365.083 146.583 364.682 148.01L358.828 169.047C358.943 168.615 357.823 167.979 356.203 167.344C355.151 166.932 353.885 166.521 352.599 166.161Z" fill="#CB6CE6"/>
</g>
</g>
</g>
<mask id="mask3_1_143" style="mask-type:luminance" maskUnits="userSpaceOnUse" x="326" y="169" width="32" height="67">
<path d="M326.99 169.333H357.656V236H326.99V169.333Z" fill="white"/>
</mask>
<g mask="url(#mask3_1_143)">
<mask id="mask4_1_143" style="mask-type:luminance" maskUnits="userSpaceOnUse" x="283" y="105" width="134" height="135">
<path d="M283.635 153.281L367.745 105.786L416.286 191.74L332.177 239.24L283.635 153.281Z" fill="white"/>
</mask>
<g mask="url(#mask4_1_143)">
<mask id="mask5_1_143" style="mask-type:luminance" maskUnits="userSpaceOnUse" x="283" y="105" width="134" height="135">
<path d="M367.786 105.76L283.682 153.255L332.219 239.214L416.328 191.719L367.786 105.76Z" fill="white"/>
</mask>
<g mask="url(#mask5_1_143)">
<path d="M344.297 170.698C344.49 170.016 347.578 170.495 350.703 171.328L350.708 171.307L351.005 171.391C354.26 172.297 357.422 173.557 357.234 174.276L340.354 234.958C338.188 234.609 336.057 234.115 333.958 233.474L333.953 233.495C333.953 233.495 329.568 231.969 327.521 231L344.297 170.698Z" fill="#CB6CE6"/>
</g>
</g>
</g>
<mask id="mask6_1_143" style="mask-type:luminance" maskUnits="userSpaceOnUse" x="364" y="126" width="22" height="22">
<path d="M364.323 126.667H385.656V148H364.323V126.667Z" fill="white"/>
</mask>
<g mask="url(#mask6_1_143)">
<mask id="mask7_1_143" style="mask-type:luminance" maskUnits="userSpaceOnUse" x="283" y="105" width="134" height="135">
<path d="M283.635 153.281L367.745 105.786L416.286 191.74L332.177 239.24L283.635 153.281Z" fill="white"/>
</mask>
<g mask="url(#mask7_1_143)">
<mask id="mask8_1_143" style="mask-type:luminance" maskUnits="userSpaceOnUse" x="283" y="105" width="134" height="135">
<path d="M367.786 105.76L283.682 153.255L332.219 239.214L416.328 191.719L367.786 105.76Z" fill="white"/>
</mask>
<g mask="url(#mask8_1_143)">
<path d="M365.286 138.26C365.286 138.26 371.719 136.625 372.813 135.38C373.901 134.13 374.672 127.542 374.672 127.542C374.672 127.542 376.307 133.974 377.552 135.068C378.802 136.161 385.396 136.932 385.396 136.932C385.396 136.932 378.844 138.693 377.87 139.807C376.891 140.927 376.005 147.651 376.005 147.651C376.005 147.651 374.24 141.099 373.089 140.089C371.932 139.083 365.286 138.26 365.286 138.26Z" fill="#CB6CE6"/>
</g>
</g>
</g>
<mask id="mask9_1_143" style="mask-type:luminance" maskUnits="userSpaceOnUse" x="325" y="120" width="30" height="30">
<path d="M325.656 120H354.99V149.333H325.656V120Z" fill="white"/>
</mask>
<g mask="url(#mask9_1_143)">
<mask id="mask10_1_143" style="mask-type:luminance" maskUnits="userSpaceOnUse" x="283" y="105" width="134" height="135">
<path d="M283.635 153.281L367.745 105.786L416.286 191.74L332.177 239.24L283.635 153.281Z" fill="white"/>
</mask>
<g mask="url(#mask10_1_143)">
<mask id="mask11_1_143" style="mask-type:luminance" maskUnits="userSpaceOnUse" x="283" y="105" width="134" height="135">
<path d="M367.786 105.76L283.682 153.255L332.219 239.214L416.328 191.719L367.786 105.76Z" fill="white"/>
</mask>
<g mask="url(#mask11_1_143)">
<path d="M343.615 138.38C341.995 139.792 339.589 148.875 339.589 148.875C339.589 148.875 338.547 139.625 337.021 137.87C335.495 136.109 326.49 133.786 326.49 133.786C326.49 133.786 335.734 132.745 337.49 131.219C339.245 129.693 341.568 120.688 341.568 120.688C341.568 120.688 342.776 130.12 344.135 131.688C345.5 133.26 354.672 135.771 354.672 135.771C354.672 135.771 345.24 136.974 343.615 138.38Z" fill="#CB6CE6"/>
</g>
</g>
</g>
<mask id="mask12_1_143" style="mask-type:luminance" maskUnits="userSpaceOnUse" x="325" y="150" width="17" height="18">
<path d="M325.656 150.667H341.656V168H325.656V150.667Z" fill="white"/>
</mask>
<g mask="url(#mask12_1_143)">
<mask id="mask13_1_143" style="mask-type:luminance" maskUnits="userSpaceOnUse" x="283" y="105" width="134" height="135">
<path d="M283.635 153.281L367.745 105.786L416.286 191.74L332.177 239.24L283.635 153.281Z" fill="white"/>
</mask>
<g mask="url(#mask13_1_143)">
<mask id="mask14_1_143" style="mask-type:luminance" maskUnits="userSpaceOnUse" x="283" y="105" width="134" height="135">
<path d="M367.786 105.76L283.682 153.255L332.219 239.214L416.328 191.719L367.786 105.76Z" fill="white"/>
</mask>
<g mask="url(#mask14_1_143)">
<path d="M341.484 159.583C341.484 159.583 336.495 160.333 335.651 161.104C334.807 161.87 333.641 166.714 333.641 166.714C333.641 166.714 332.979 161.823 332.146 160.911C331.318 160 326.516 158.875 326.516 158.875C326.516 158.875 331.401 158.214 332.318 157.38C333.229 156.552 334.354 151.745 334.354 151.745C334.354 151.745 335.104 156.734 335.844 157.547C336.589 158.365 341.484 159.583 341.484 159.583Z" fill="#CB6CE6"/>
</g>
</g>
</g>
<path d="M385.286 204.766C385.266 204.766 385.245 204.766 385.224 204.76C384.797 204.734 384.427 204.458 384.276 204.052L382.812 200.115L382.729 200.51C382.724 200.521 382.724 200.526 382.719 200.536L382.312 202.219C382.193 202.708 381.76 203.052 381.266 203.052H377.672C377.073 203.052 376.589 202.562 376.589 201.958C376.589 201.349 377.073 200.859 377.667 200.859L380.417 200.854L380.62 200.026L381.484 196.042C381.589 195.568 381.984 195.219 382.464 195.182C382.943 195.146 383.38 195.432 383.552 195.891L385.437 200.964L386.365 199.125C386.547 198.76 386.911 198.531 387.312 198.526C387.318 198.526 387.323 198.526 387.323 198.526C387.724 198.526 388.089 198.75 388.276 199.109L389.198 200.854L393.078 200.859C393.677 200.859 394.161 201.349 394.161 201.958C394.156 202.562 393.677 203.052 393.078 203.052H388.547C388.151 203.052 387.781 202.828 387.594 202.469L387.344 201.99L386.245 204.167C386.062 204.536 385.687 204.766 385.286 204.766Z" fill="black"/>
<path d="M391.635 212.385C391.359 212.385 391.083 212.281 390.875 212.063C389.479 210.646 387.896 209.042 386.484 207.458C386.083 207.005 386.12 206.312 386.563 205.906C387 205.5 387.682 205.531 388.089 205.984C389.214 207.25 390.464 208.542 391.635 209.734C396.005 205.286 400.271 200.724 400.271 196.484C400.271 194.37 398.578 192.651 396.495 192.651C394.703 192.651 393.073 194.312 392.698 196.516C392.609 197.062 392.135 197.448 391.589 197.427C391.047 197.401 390.604 196.974 390.557 196.427C390.411 194.714 388.693 192.646 386.781 192.646C385.771 192.646 384.818 193.052 384.099 193.781C383.677 194.214 382.995 194.214 382.573 193.786C382.151 193.359 382.151 192.661 382.568 192.234C383.693 191.083 385.188 190.453 386.781 190.453C388.776 190.453 390.552 191.708 391.635 193.328C392.75 191.568 394.531 190.453 396.495 190.453C399.766 190.453 402.427 193.161 402.427 196.484C402.427 201.88 397.328 207.057 392.396 212.063C392.188 212.281 391.911 212.385 391.635 212.385Z" fill="black"/>
<mask id="mask15_1_143" style="mask-type:luminance" maskUnits="userSpaceOnUse" x="380" y="176" width="21" height="10">
<path d="M380.323 176.141H400.323V185.333H380.323V176.141Z" fill="white"/>
</mask>
<g mask="url(#mask15_1_143)">
<path d="M398.365 185.177H382.224C381.625 185.177 381.146 184.687 381.146 184.078V177.245C381.146 176.635 381.625 176.146 382.224 176.146H398.365C398.964 176.146 399.448 176.635 399.448 177.245V184.078C399.448 184.687 398.964 185.177 398.365 185.177ZM383.302 182.984H397.286V178.339H383.302V182.984Z" fill="black"/>
</g>
<mask id="mask16_1_143" style="mask-type:luminance" maskUnits="userSpaceOnUse" x="368" y="180" width="45" height="55">
<path d="M368.005 180H412.583V234.521H368.005V180Z" fill="white"/>
</mask>
<g mask="url(#mask16_1_143)">
<path d="M406.979 234.51H373.615C370.573 234.51 368.099 232 368.099 228.906V185.734C368.099 182.646 370.573 180.13 373.615 180.13H382.224C382.818 180.13 383.302 180.62 383.302 181.229V182.984H397.286V181.229C397.286 180.625 397.771 180.13 398.365 180.13H406.979C410.021 180.13 412.49 182.646 412.49 185.734V228.906C412.49 232 410.021 234.51 406.979 234.51ZM373.615 182.328C371.766 182.328 370.26 183.854 370.26 185.734V228.906C370.26 230.786 371.766 232.318 373.615 232.318H406.979C408.828 232.318 410.328 230.786 410.328 228.906V185.734C410.328 183.854 408.828 182.328 406.979 182.328H399.448V184.078C399.448 184.687 398.964 185.177 398.365 185.177H382.224C381.625 185.177 381.146 184.687 381.146 184.078V182.328H373.615Z" fill="black"/>
</g>
<path d="M377.646 219.75C377.052 219.75 376.568 219.255 376.568 218.651C376.568 218.047 377.052 217.552 377.646 217.552H403.708C404.307 217.552 404.792 218.042 404.792 218.646C404.792 219.255 404.307 219.745 403.708 219.745L377.646 219.75Z" fill="black"/>
<path d="M377.641 225.984C377.042 225.984 376.557 225.495 376.557 224.885C376.557 224.281 377.042 223.792 377.641 223.786L403.703 223.781C404.297 223.781 404.781 224.271 404.781 224.88C404.781 225.484 404.297 225.974 403.703 225.974L377.641 225.984Z" fill="black"/>
<path d="M102.844 278.442C104.787 278.442 106.678 278.15 108.511 277.567C110.344 276.973 111.688 276.4 112.553 275.858L113.844 274.983L119.282 285.837C119.1 285.978 118.85 286.165 118.532 286.4C118.209 286.624 117.475 287.04 116.323 287.65C115.167 288.264 113.933 288.796 112.615 289.254C111.308 289.702 109.584 290.098 107.448 290.462C105.323 290.822 103.126 291.004 100.865 291.004C95.6568 291.004 90.7193 289.728 86.0527 287.171C81.3964 284.619 77.6412 281.098 74.7818 276.608C71.9329 272.124 70.511 267.275 70.511 262.067C70.511 258.139 71.3443 254.358 73.011 250.733C74.6881 247.108 76.9172 244.004 79.6985 241.421C82.4902 238.837 85.7402 236.785 89.4485 235.254C93.1672 233.712 96.9745 232.942 100.865 232.942C104.49 232.942 107.829 233.374 110.886 234.233C113.938 235.082 116.1 235.936 117.365 236.796L119.282 238.087L113.844 248.962C113.521 248.686 113.042 248.358 112.407 247.983C111.782 247.598 110.516 247.087 108.615 246.462C106.709 245.827 104.787 245.504 102.844 245.504C99.761 245.504 96.9954 246.004 94.5527 247.004C92.1047 247.994 90.1672 249.306 88.7402 250.942C87.3235 252.567 86.2402 254.317 85.4902 256.192C84.7402 258.067 84.3652 259.983 84.3652 261.942C84.3652 266.192 85.9589 270.004 89.1568 273.379C92.3495 276.754 96.912 278.442 102.844 278.442Z" fill="black"/>
<path d="M122.461 289.983V231.567H134.482V258.817H134.607C137.732 255.692 141.055 254.129 144.586 254.129C146.305 254.129 148.013 254.358 149.711 254.817C151.419 255.264 153.049 255.962 154.607 256.921C156.174 257.869 157.445 259.212 158.419 260.962C159.388 262.702 159.878 264.723 159.878 267.025V289.983H147.857V270.296C147.857 268.478 147.279 266.895 146.128 265.546C144.971 264.186 143.466 263.504 141.607 263.504C139.799 263.504 138.159 264.207 136.69 265.608C135.216 267.014 134.482 268.577 134.482 270.296V289.983H122.461Z" fill="black"/>
<path d="M167.998 285.671C164.748 282.119 163.123 277.764 163.123 272.608C163.123 267.442 164.748 263.077 167.998 259.504C171.258 255.921 175.404 254.129 180.435 254.129C185.06 254.129 188.862 255.577 191.852 258.462V255.15H203.873V289.983H191.977V286.046H191.852C188.862 289.353 185.06 291.004 180.435 291.004C175.404 291.004 171.258 289.228 167.998 285.671ZM178.227 266.692C176.67 268.233 175.893 270.207 175.893 272.608C175.893 274.999 176.633 276.957 178.123 278.483C179.623 279.999 181.591 280.754 184.039 280.754C186.399 280.754 188.336 279.983 189.852 278.442C191.362 276.9 192.123 274.952 192.123 272.587C192.123 270.202 191.336 268.233 189.768 266.692C188.211 265.15 186.3 264.379 184.039 264.379C181.732 264.379 179.795 265.15 178.227 266.692Z" fill="black"/>
<path d="M210.32 289.983V255.15H222.341V260.171H222.466C222.559 259.994 222.705 259.77 222.903 259.504C223.111 259.228 223.554 258.749 224.236 258.067C224.914 257.389 225.637 256.775 226.403 256.233C227.179 255.692 228.179 255.207 229.403 254.775C230.622 254.348 231.867 254.129 233.132 254.129C234.434 254.129 235.721 254.311 236.986 254.671C238.262 255.035 239.195 255.395 239.778 255.754L240.736 256.296L235.716 266.483C234.216 265.223 232.132 264.587 229.466 264.587C228.018 264.587 226.778 264.91 225.736 265.546C224.695 266.171 223.955 266.936 223.528 267.837C223.096 268.744 222.789 269.514 222.611 270.15C222.429 270.79 222.341 271.29 222.341 271.65V289.983H210.32Z" fill="black"/>
<path d="M244.456 255.15V242.171H256.477V255.15H263.81V264.317H256.477V275.379C256.477 278.603 257.383 280.212 259.206 280.212C259.649 280.212 260.122 280.124 260.622 279.942C261.122 279.749 261.508 279.561 261.789 279.379L262.185 279.108L265.185 288.837C262.602 290.28 259.654 291.004 256.352 291.004C254.086 291.004 252.133 290.608 250.497 289.817C248.872 289.025 247.643 287.962 246.81 286.629C245.977 285.285 245.372 283.879 244.997 282.421C244.633 280.952 244.456 279.374 244.456 277.692V264.317H239.435V255.15H244.456Z" fill="black"/>
<path d="M310.543 289.983L301.585 258.546L292.626 289.983H278.418L262.46 233.962H276.647L286.23 272.4H286.564L296.751 233.962H306.397L316.585 272.4H316.939L326.501 233.962H340.626L324.668 289.983H310.543Z" fill="#CB6CE6"/>
<path d="M343.125 235.712C344.526 234.311 346.198 233.608 348.146 233.608C350.089 233.608 351.76 234.311 353.167 235.712C354.583 237.119 355.292 238.796 355.292 240.754C355.292 242.702 354.583 244.374 353.167 245.775C351.76 247.181 350.089 247.879 348.146 247.879C346.198 247.879 344.526 247.181 343.125 245.775C341.719 244.374 341.021 242.702 341.021 240.754C341.021 238.796 341.719 237.119 343.125 235.712ZM341.979 255.15V289.983H354V255.15H341.979Z" fill="#CB6CE6"/>
<path d="M362.807 255.15V242.171H374.828V255.15H382.161V264.317H374.828V275.379C374.828 278.603 375.734 280.212 377.557 280.212C378 280.212 378.474 280.124 378.974 279.942C379.474 279.749 379.859 279.561 380.141 279.379L380.536 279.108L383.536 288.837C380.953 290.28 378.005 291.004 374.703 291.004C372.438 291.004 370.484 290.608 368.849 289.817C367.224 289.025 365.995 287.962 365.161 286.629C364.328 285.285 363.724 283.879 363.349 282.421C362.984 280.952 362.807 279.374 362.807 277.692V264.317H357.786V255.15H362.807Z" fill="#CB6CE6"/>
<path d="M404.45 263.962C402.184 263.962 400.231 264.806 398.596 266.483C396.971 268.165 396.158 270.181 396.158 272.525C396.158 274.931 396.971 276.973 398.596 278.65C400.231 280.317 402.184 281.15 404.45 281.15C405.533 281.15 406.559 281.02 407.533 280.754C408.502 280.478 409.221 280.207 409.679 279.942L410.283 279.525L414.367 287.879C414.044 288.103 413.601 288.389 413.033 288.733C412.46 289.067 411.169 289.525 409.158 290.108C407.143 290.702 404.981 291.004 402.679 291.004C397.554 291.004 393.054 289.207 389.179 285.608C385.314 282.014 383.387 277.702 383.387 272.671C383.387 267.603 385.314 263.249 389.179 259.608C393.054 255.957 397.554 254.129 402.679 254.129C404.981 254.129 407.106 254.4 409.054 254.942C410.997 255.483 412.377 256.025 413.2 256.567L414.367 257.379L410.283 265.608C408.783 264.514 406.835 263.962 404.45 263.962Z" fill="#CB6CE6"/>
<path d="M417.548 289.983V231.567H429.569V258.817H429.694C432.819 255.692 436.142 254.129 439.673 254.129C441.392 254.129 443.1 254.358 444.798 254.817C446.506 255.264 448.137 255.962 449.694 256.921C451.262 257.869 452.533 259.212 453.506 260.962C454.475 262.702 454.965 264.723 454.965 267.025V289.983H442.944V270.296C442.944 268.478 442.366 266.895 441.215 265.546C440.059 264.186 438.553 263.504 436.694 263.504C434.887 263.504 433.246 264.207 431.777 265.608C430.303 267.014 429.569 268.577 429.569 270.296V289.983H417.548Z" fill="#CB6CE6"/>
<mask id="mask17_1_143" style="mask-type:luminance" maskUnits="userSpaceOnUse" x="45" y="209" width="86" height="56">
<path d="M45 209H130.99V264.474H45V209Z" fill="white"/>
</mask>
<g mask="url(#mask17_1_143)">
<path d="M67.599 247.766C65.8906 245.031 64.25 242.245 62.6875 239.422C57.8906 240.771 53.0417 242.125 48.1875 243.474C53.4531 234.24 58.7188 225.005 63.9792 215.771C65.6042 212.917 67.6823 209.75 70.9375 209.328C72.9063 209.073 74.8333 209.917 76.6198 210.781C84.3698 214.531 91.75 219.042 98.4896 224.26C107.88 220.115 128.036 213.104 130.573 217.797C133.109 222.495 76.776 254.083 47.849 264.036C45.099 264.984 44.5313 262.938 45.276 261.625C47.9531 256.906 59.8281 247.995 65.974 244.807" fill="#4A4A4A"/>
</g>
<path d="M98.3073 224.156C96.3646 222.625 95.6875 222.188 94.0417 221.021C85.6615 230.005 75.6042 238.01 64.7448 243.047C65.1562 243.766 65.9062 245.031 67.3385 247.359C70.6354 245.698 80.3906 240.245 83.3229 238.094C87.2448 235.224 96.5885 228.667 98.3073 224.156Z" fill="#CB6CE6"/>
<mask id="mask18_1_143" style="mask-type:luminance" maskUnits="userSpaceOnUse" x="325" y="215" width="14" height="23">
<path d="M325.656 215.141H338.99V237.807H325.656V215.141Z" fill="white"/>
</mask>
<g mask="url(#mask18_1_143)">
<mask id="mask19_1_143" style="mask-type:luminance" maskUnits="userSpaceOnUse" x="326" y="215" width="18" height="23">
<path d="M332.12 215.578L343.297 218.948L337.786 237.24L326.604 233.87L332.12 215.578Z" fill="white"/>
</mask>
<g mask="url(#mask19_1_143)">
<mask id="mask20_1_143" style="mask-type:luminance" maskUnits="userSpaceOnUse" x="326" y="215" width="18" height="23">
<path d="M332.12 215.578L343.297 218.948L337.786 237.24L326.604 233.87L332.12 215.578Z" fill="white"/>
</mask>
<g mask="url(#mask20_1_143)">
<path d="M332.115 215.589L329.292 224.969L326.464 234.349C330.214 235.474 333.964 236.599 337.708 237.719C335.844 230.344 333.979 222.969 332.115 215.589Z" fill="#CB6CE6"/>
</g>
</g>
</g>
</svg>
