<svg xmlns="http://www.w3.org/2000/svg" xmlns:xlink="http://www.w3.org/1999/xlink" width="428" zoomAndPan="magnify" viewBox="0 0 321 132.749998" height="177" preserveAspectRatio="xMidYMid meet" version="1.2"><defs><clipPath id="5b6486776b"><path d="M 232 17 L 248 17 L 248 39 L 232 39 Z M 232 17 "/></clipPath><clipPath id="f38d12cb7a"><path d="M 185.441406 26.195312 L 250.117188 -10.328125 L 287.382812 55.667969 L 222.707031 92.191406 Z M 185.441406 26.195312 "/></clipPath><clipPath id="a36e39ecc4"><path d="M 249.601562 -10.035156 L 184.925781 26.484375 L 222.191406 92.480469 L 286.867188 55.960938 Z M 249.601562 -10.035156 "/></clipPath><clipPath id="61ed35ae6c"><path d="M 218 39 L 242 39 L 242 89 L 218 89 Z M 218 39 "/></clipPath><clipPath id="738b6bffdd"><path d="M 185.441406 26.195312 L 250.117188 -10.328125 L 287.382812 55.667969 L 222.707031 92.191406 Z M 185.441406 26.195312 "/></clipPath><clipPath id="6f2165951d"><path d="M 249.601562 -10.035156 L 184.925781 26.484375 L 222.191406 92.480469 L 286.867188 55.960938 Z M 249.601562 -10.035156 "/></clipPath><clipPath id="d9ef1d036d"><path d="M 247 6 L 264 6 L 264 22 L 247 22 Z M 247 6 "/></clipPath><clipPath id="4044b72514"><path d="M 185.441406 26.195312 L 250.117188 -10.328125 L 287.382812 55.667969 L 222.707031 92.191406 Z M 185.441406 26.195312 "/></clipPath><clipPath id="1b0cc9e015"><path d="M 249.601562 -10.035156 L 184.925781 26.484375 L 222.191406 92.480469 L 286.867188 55.960938 Z M 249.601562 -10.035156 "/></clipPath><clipPath id="199bedb83a"><path d="M 218 1 L 240 1 L 240 23 L 218 23 Z M 218 1 "/></clipPath><clipPath id="8646cb1474"><path d="M 185.441406 26.195312 L 250.117188 -10.328125 L 287.382812 55.667969 L 222.707031 92.191406 Z M 185.441406 26.195312 "/></clipPath><clipPath id="7ccb7540d9"><path d="M 249.601562 -10.035156 L 184.925781 26.484375 L 222.191406 92.480469 L 286.867188 55.960938 Z M 249.601562 -10.035156 "/></clipPath><clipPath id="356453f629"><path d="M 218 25 L 230 25 L 230 37 L 218 37 Z M 218 25 "/></clipPath><clipPath id="77acdd675c"><path d="M 185.441406 26.195312 L 250.117188 -10.328125 L 287.382812 55.667969 L 222.707031 92.191406 Z M 185.441406 26.195312 "/></clipPath><clipPath id="c8b038fb83"><path d="M 249.601562 -10.035156 L 184.925781 26.484375 L 222.191406 92.480469 L 286.867188 55.960938 Z M 249.601562 -10.035156 "/></clipPath><clipPath id="3d6fed2398"><path d="M 3.09375 68.328125 L 69 68.328125 L 69 110.769531 L 3.09375 110.769531 Z M 3.09375 68.328125 "/></clipPath><clipPath id="f8add86111"><path d="M 218 73 L 227 73 L 227 91 L 218 91 Z M 218 73 "/></clipPath><clipPath id="5709a04669"><path d="M 222.410156 73.339844 L 231.117188 75.964844 L 226.742188 90.480469 L 218.035156 87.855469 Z M 222.410156 73.339844 "/></clipPath><clipPath id="2c98cf5579"><path d="M 222.410156 73.339844 L 231.117188 75.964844 L 226.742188 90.480469 L 218.035156 87.855469 Z M 222.410156 73.339844 "/></clipPath><clipPath id="dd1e73c411"><path d="M 246.882812 55.261719 L 286.292969 55.261719 L 286.292969 91 L 246.882812 91 Z M 246.882812 55.261719 "/></clipPath><clipPath id="ac90f1a655"><path d="M 251.519531 59.707031 L 262.132812 59.707031 L 262.132812 70.316406 L 251.519531 70.316406 Z M 251.519531 59.707031 "/></clipPath><clipPath id="a5afa6e3df"><path d="M 266.367188 69 L 281.527344 69 L 281.527344 72 L 266.367188 72 Z M 266.367188 69 "/></clipPath><clipPath id="cb5a73ce6d"><path d="M 266.367188 73 L 281.527344 73 L 281.527344 75.429688 L 266.367188 75.429688 Z M 266.367188 73 "/></clipPath><clipPath id="2a56a775bd"><path d="M 266.367188 64.816406 L 281.527344 64.816406 L 281.527344 67 L 266.367188 67 Z M 266.367188 64.816406 "/></clipPath></defs><g id="947a39fbe7"><g clip-rule="nonzero" clip-path="url(#5b6486776b)"><g clip-rule="nonzero" clip-path="url(#f38d12cb7a)"><g clip-rule="nonzero" clip-path="url(#a36e39ecc4)"><path style=" stroke:none;fill-rule:nonzero;fill:#cb6ce6;fill-opacity:1;" d="M 238.019531 36.019531 C 237.945312 36 237.871094 35.980469 237.792969 35.960938 C 235.378906 35.304688 232.960938 34.925781 232.8125 35.453125 L 237.277344 19.410156 C 237.582031 18.320312 238.875 17.726562 240.167969 18.085938 L 245.441406 19.554688 C 246.734375 19.914062 247.539062 21.089844 247.234375 22.179688 L 242.773438 38.21875 C 242.855469 37.890625 242.003906 37.40625 240.769531 36.921875 C 239.964844 36.609375 239 36.292969 238.019531 36.019531 Z M 238.019531 36.019531 "/></g></g></g><g clip-rule="nonzero" clip-path="url(#61ed35ae6c)"><g clip-rule="nonzero" clip-path="url(#738b6bffdd)"><g clip-rule="nonzero" clip-path="url(#6f2165951d)"><path style=" stroke:none;fill-rule:nonzero;fill:#cb6ce6;fill-opacity:1;" d="M 231.691406 39.480469 C 231.839844 38.957031 234.191406 39.320312 236.574219 39.960938 L 236.578125 39.945312 L 236.804688 40.007812 C 239.289062 40.699219 241.695312 41.660156 241.554688 42.207031 L 228.6875 88.472656 C 227.035156 88.207031 225.40625 87.828125 223.808594 87.34375 L 223.804688 87.359375 C 223.804688 87.359375 220.460938 86.195312 218.902344 85.457031 Z M 231.691406 39.480469 "/></g></g></g><g clip-rule="nonzero" clip-path="url(#d9ef1d036d)"><g clip-rule="nonzero" clip-path="url(#4044b72514)"><g clip-rule="nonzero" clip-path="url(#1b0cc9e015)"><path style=" stroke:none;fill-rule:nonzero;fill:#cb6ce6;fill-opacity:1;" d="M 247.695312 14.746094 C 247.695312 14.746094 252.597656 13.5 253.433594 12.550781 C 254.265625 11.597656 254.851562 6.574219 254.851562 6.574219 C 254.851562 6.574219 256.097656 11.480469 257.046875 12.3125 C 258 13.144531 263.023438 13.734375 263.023438 13.734375 C 263.023438 13.734375 258.03125 15.078125 257.289062 15.929688 C 256.542969 16.78125 255.867188 21.90625 255.867188 21.90625 C 255.867188 21.90625 254.523438 16.914062 253.644531 16.140625 C 252.761719 15.375 247.695312 14.746094 247.695312 14.746094 Z M 247.695312 14.746094 "/></g></g></g><g clip-rule="nonzero" clip-path="url(#199bedb83a)"><g clip-rule="nonzero" clip-path="url(#8646cb1474)"><g clip-rule="nonzero" clip-path="url(#7ccb7540d9)"><path style=" stroke:none;fill-rule:nonzero;fill:#cb6ce6;fill-opacity:1;" d="M 231.171875 14.839844 C 229.933594 15.914062 228.101562 22.839844 228.101562 22.839844 C 228.101562 22.839844 227.308594 15.785156 226.144531 14.449219 C 224.980469 13.109375 218.113281 11.335938 218.113281 11.335938 C 218.113281 11.335938 225.164062 10.542969 226.5 9.378906 C 227.839844 8.214844 229.613281 1.347656 229.613281 1.347656 C 229.613281 1.347656 230.53125 8.539062 231.570312 9.734375 C 232.609375 10.933594 239.601562 12.847656 239.601562 12.847656 C 239.601562 12.847656 232.410156 13.765625 231.171875 14.839844 Z M 231.171875 14.839844 "/></g></g></g><g clip-rule="nonzero" clip-path="url(#356453f629)"><g clip-rule="nonzero" clip-path="url(#77acdd675c)"><g clip-rule="nonzero" clip-path="url(#c8b038fb83)"><path style=" stroke:none;fill-rule:nonzero;fill:#cb6ce6;fill-opacity:1;" d="M 229.546875 31.003906 C 229.546875 31.003906 225.742188 31.578125 225.101562 32.164062 C 224.457031 32.75 223.570312 36.441406 223.570312 36.441406 C 223.570312 36.441406 223.0625 32.710938 222.429688 32.015625 C 221.796875 31.320312 218.132812 30.464844 218.132812 30.464844 C 218.132812 30.464844 221.859375 29.957031 222.558594 29.324219 C 223.253906 28.691406 224.109375 25.027344 224.109375 25.027344 C 224.109375 25.027344 224.683594 28.832031 225.246094 29.453125 C 225.816406 30.074219 229.546875 31.003906 229.546875 31.003906 Z M 229.546875 31.003906 "/></g></g></g><g style="fill:#ffffff;fill-opacity:1;"><g transform="translate(21.692618, 129.281087)"><path style="stroke:none" d="M 25.84375 -8.796875 C 27.320312 -8.796875 28.757812 -9.019531 30.15625 -9.46875 C 31.5625 -9.925781 32.59375 -10.359375 33.25 -10.765625 L 34.234375 -11.4375 L 38.375 -3.15625 C 38.226562 -3.050781 38.035156 -2.910156 37.796875 -2.734375 C 37.554688 -2.566406 36.992188 -2.25 36.109375 -1.78125 C 35.234375 -1.320312 34.296875 -0.914062 33.296875 -0.5625 C 32.296875 -0.21875 30.984375 0.0859375 29.359375 0.359375 C 27.734375 0.640625 26.0625 0.78125 24.34375 0.78125 C 20.363281 0.78125 16.597656 -0.191406 13.046875 -2.140625 C 9.492188 -4.097656 6.628906 -6.785156 4.453125 -10.203125 C 2.273438 -13.617188 1.1875 -17.3125 1.1875 -21.28125 C 1.1875 -24.28125 1.820312 -27.160156 3.09375 -29.921875 C 4.375 -32.691406 6.078125 -35.054688 8.203125 -37.015625 C 10.328125 -38.984375 12.804688 -40.554688 15.640625 -41.734375 C 18.472656 -42.910156 21.375 -43.5 24.34375 -43.5 C 27.101562 -43.5 29.644531 -43.171875 31.96875 -42.515625 C 34.300781 -41.859375 35.953125 -41.203125 36.921875 -40.546875 L 38.375 -39.5625 L 34.234375 -31.28125 C 33.984375 -31.488281 33.617188 -31.738281 33.140625 -32.03125 C 32.660156 -32.320312 31.691406 -32.707031 30.234375 -33.1875 C 28.785156 -33.675781 27.320312 -33.921875 25.84375 -33.921875 C 23.488281 -33.921875 21.378906 -33.539062 19.515625 -32.78125 C 17.648438 -32.019531 16.175781 -31.015625 15.09375 -29.765625 C 14.007812 -28.523438 13.179688 -27.1875 12.609375 -25.75 C 12.035156 -24.320312 11.75 -22.867188 11.75 -21.390625 C 11.75 -18.140625 12.96875 -15.226562 15.40625 -12.65625 C 17.84375 -10.082031 21.320312 -8.796875 25.84375 -8.796875 Z M 25.84375 -8.796875 "/></g></g><g style="fill:#ffffff;fill-opacity:1;"><g transform="translate(59.389934, 129.281087)"><path style="stroke:none" d="M 3.109375 0 L 3.109375 -44.53125 L 12.265625 -44.53125 L 12.265625 -23.765625 L 12.375 -23.765625 C 14.757812 -26.148438 17.296875 -27.34375 19.984375 -27.34375 C 21.296875 -27.34375 22.597656 -27.171875 23.890625 -26.828125 C 25.191406 -26.484375 26.4375 -25.945312 27.625 -25.21875 C 28.8125 -24.488281 29.773438 -23.457031 30.515625 -22.125 C 31.265625 -20.800781 31.640625 -19.257812 31.640625 -17.5 L 31.640625 0 L 22.46875 0 L 22.46875 -15.015625 C 22.46875 -16.398438 22.023438 -17.609375 21.140625 -18.640625 C 20.265625 -19.671875 19.117188 -20.1875 17.703125 -20.1875 C 16.328125 -20.1875 15.078125 -19.648438 13.953125 -18.578125 C 12.828125 -17.515625 12.265625 -16.328125 12.265625 -15.015625 L 12.265625 0 Z M 3.109375 0 "/></g></g><g style="fill:#ffffff;fill-opacity:1;"><g transform="translate(92.323285, 129.281087)"><path style="stroke:none" d="M 4.90625 -3.28125 C 2.425781 -6 1.1875 -9.320312 1.1875 -13.25 C 1.1875 -17.1875 2.425781 -20.519531 4.90625 -23.25 C 7.394531 -25.976562 10.554688 -27.34375 14.390625 -27.34375 C 17.910156 -27.34375 20.8125 -26.238281 23.09375 -24.03125 L 23.09375 -26.5625 L 32.265625 -26.5625 L 32.265625 0 L 23.203125 0 L 23.203125 -3 L 23.09375 -3 C 20.8125 -0.476562 17.910156 0.78125 14.390625 0.78125 C 10.554688 0.78125 7.394531 -0.570312 4.90625 -3.28125 Z M 12.703125 -17.75 C 11.515625 -16.582031 10.921875 -15.082031 10.921875 -13.25 C 10.921875 -11.425781 11.488281 -9.9375 12.625 -8.78125 C 13.769531 -7.625 15.273438 -7.046875 17.140625 -7.046875 C 18.929688 -7.046875 20.40625 -7.628906 21.5625 -8.796875 C 22.71875 -9.972656 23.296875 -11.457031 23.296875 -13.25 C 23.296875 -15.082031 22.703125 -16.582031 21.515625 -17.75 C 20.328125 -18.925781 18.867188 -19.515625 17.140625 -19.515625 C 15.378906 -19.515625 13.898438 -18.925781 12.703125 -17.75 Z M 12.703125 -17.75 "/></g></g><g style="fill:#ffffff;fill-opacity:1;"><g transform="translate(126.395855, 129.281087)"><path style="stroke:none" d="M 3.109375 0 L 3.109375 -26.5625 L 12.265625 -26.5625 L 12.265625 -22.734375 L 12.375 -22.734375 C 12.445312 -22.867188 12.554688 -23.039062 12.703125 -23.25 C 12.859375 -23.457031 13.195312 -23.816406 13.71875 -24.328125 C 14.238281 -24.847656 14.789062 -25.316406 15.375 -25.734375 C 15.96875 -26.148438 16.726562 -26.519531 17.65625 -26.84375 C 18.59375 -27.175781 19.539062 -27.34375 20.5 -27.34375 C 21.5 -27.34375 22.484375 -27.203125 23.453125 -26.921875 C 24.421875 -26.648438 25.128906 -26.375 25.578125 -26.09375 L 26.3125 -25.6875 L 22.46875 -17.921875 C 21.332031 -18.878906 19.742188 -19.359375 17.703125 -19.359375 C 16.597656 -19.359375 15.648438 -19.117188 14.859375 -18.640625 C 14.066406 -18.160156 13.503906 -17.570312 13.171875 -16.875 C 12.847656 -16.1875 12.613281 -15.597656 12.46875 -15.109375 C 12.332031 -14.628906 12.265625 -14.253906 12.265625 -13.984375 L 12.265625 0 Z M 3.109375 0 "/></g></g><g style="fill:#ffffff;fill-opacity:1;"><g transform="translate(150.888697, 129.281087)"><path style="stroke:none" d="M 4.65625 -26.5625 L 4.65625 -36.453125 L 13.828125 -36.453125 L 13.828125 -26.5625 L 19.421875 -26.5625 L 19.421875 -19.578125 L 13.828125 -19.578125 L 13.828125 -11.140625 C 13.828125 -8.679688 14.515625 -7.453125 15.890625 -7.453125 C 16.242188 -7.453125 16.609375 -7.519531 16.984375 -7.65625 C 17.359375 -7.800781 17.648438 -7.941406 17.859375 -8.078125 L 18.171875 -8.28125 L 20.453125 -0.875 C 18.484375 0.226562 16.238281 0.78125 13.71875 0.78125 C 12 0.78125 10.515625 0.476562 9.265625 -0.125 C 8.023438 -0.726562 7.082031 -1.539062 6.4375 -2.5625 C 5.800781 -3.582031 5.34375 -4.648438 5.0625 -5.765625 C 4.789062 -6.890625 4.65625 -8.09375 4.65625 -9.375 L 4.65625 -19.578125 L 0.828125 -19.578125 L 0.828125 -26.5625 Z M 4.65625 -26.5625 "/></g></g><g style="fill:#cb6ce6;fill-opacity:1;"><g transform="translate(170.063626, 129.281087)"><path style="stroke:none" d="M 35.890625 0 L 29.046875 -23.96875 L 22.21875 0 L 11.390625 0 L -0.78125 -42.71875 L 10.046875 -42.71875 L 17.34375 -13.40625 L 17.609375 -13.40625 L 25.375 -42.71875 L 32.71875 -42.71875 L 40.5 -13.40625 L 40.75 -13.40625 L 48.046875 -42.71875 L 58.828125 -42.71875 L 46.65625 0 Z M 35.890625 0 "/></g></g><g style="fill:#cb6ce6;fill-opacity:1;"><g transform="translate(226.816821, 129.281087)"><path style="stroke:none" d="M 3.984375 -41.375 C 5.054688 -42.445312 6.332031 -42.984375 7.8125 -42.984375 C 9.300781 -42.984375 10.578125 -42.445312 11.640625 -41.375 C 12.710938 -40.300781 13.25 -39.019531 13.25 -37.53125 C 13.25 -36.050781 12.710938 -34.773438 11.640625 -33.703125 C 10.578125 -32.640625 9.300781 -32.109375 7.8125 -32.109375 C 6.332031 -32.109375 5.054688 -32.640625 3.984375 -33.703125 C 2.910156 -34.773438 2.375 -36.050781 2.375 -37.53125 C 2.375 -39.019531 2.910156 -40.300781 3.984375 -41.375 Z M 3.109375 -26.5625 L 3.109375 0 L 12.265625 0 L 12.265625 -26.5625 Z M 3.109375 -26.5625 "/></g></g><g style="fill:#cb6ce6;fill-opacity:1;"><g transform="translate(241.16035, 129.281087)"><path style="stroke:none" d="M 4.65625 -26.5625 L 4.65625 -36.453125 L 13.828125 -36.453125 L 13.828125 -26.5625 L 19.421875 -26.5625 L 19.421875 -19.578125 L 13.828125 -19.578125 L 13.828125 -11.140625 C 13.828125 -8.679688 14.515625 -7.453125 15.890625 -7.453125 C 16.242188 -7.453125 16.609375 -7.519531 16.984375 -7.65625 C 17.359375 -7.800781 17.648438 -7.941406 17.859375 -8.078125 L 18.171875 -8.28125 L 20.453125 -0.875 C 18.484375 0.226562 16.238281 0.78125 13.71875 0.78125 C 12 0.78125 10.515625 0.476562 9.265625 -0.125 C 8.023438 -0.726562 7.082031 -1.539062 6.4375 -2.5625 C 5.800781 -3.582031 5.34375 -4.648438 5.0625 -5.765625 C 4.789062 -6.890625 4.65625 -8.09375 4.65625 -9.375 L 4.65625 -19.578125 L 0.828125 -19.578125 L 0.828125 -26.5625 Z M 4.65625 -26.5625 "/></g></g><g style="fill:#cb6ce6;fill-opacity:1;"><g transform="translate(260.319625, 129.281087)"><path style="stroke:none" d="M 17.25 -19.828125 C 15.519531 -19.828125 14.03125 -19.1875 12.78125 -17.90625 C 11.539062 -16.632812 10.921875 -15.101562 10.921875 -13.3125 C 10.921875 -11.476562 11.539062 -9.921875 12.78125 -8.640625 C 14.03125 -7.367188 15.519531 -6.734375 17.25 -6.734375 C 18.070312 -6.734375 18.851562 -6.835938 19.59375 -7.046875 C 20.34375 -7.253906 20.890625 -7.457031 21.234375 -7.65625 L 21.703125 -7.96875 L 24.796875 -1.609375 C 24.554688 -1.429688 24.21875 -1.210938 23.78125 -0.953125 C 23.351562 -0.691406 22.367188 -0.335938 20.828125 0.109375 C 19.296875 0.554688 17.648438 0.78125 15.890625 0.78125 C 11.992188 0.78125 8.566406 -0.585938 5.609375 -3.328125 C 2.660156 -6.078125 1.1875 -9.367188 1.1875 -13.203125 C 1.1875 -17.066406 2.660156 -20.390625 5.609375 -23.171875 C 8.566406 -25.953125 11.992188 -27.34375 15.890625 -27.34375 C 17.648438 -27.34375 19.269531 -27.132812 20.75 -26.71875 C 22.238281 -26.300781 23.296875 -25.882812 23.921875 -25.46875 L 24.796875 -24.859375 L 21.703125 -18.59375 C 20.554688 -19.414062 19.070312 -19.828125 17.25 -19.828125 Z M 17.25 -19.828125 "/></g></g><g style="fill:#cb6ce6;fill-opacity:1;"><g transform="translate(284.450004, 129.281087)"><path style="stroke:none" d="M 3.109375 0 L 3.109375 -44.53125 L 12.265625 -44.53125 L 12.265625 -23.765625 L 12.375 -23.765625 C 14.757812 -26.148438 17.296875 -27.34375 19.984375 -27.34375 C 21.296875 -27.34375 22.597656 -27.171875 23.890625 -26.828125 C 25.191406 -26.484375 26.4375 -25.945312 27.625 -25.21875 C 28.8125 -24.488281 29.773438 -23.457031 30.515625 -22.125 C 31.265625 -20.800781 31.640625 -19.257812 31.640625 -17.5 L 31.640625 0 L 22.46875 0 L 22.46875 -15.015625 C 22.46875 -16.398438 22.023438 -17.609375 21.140625 -18.640625 C 20.265625 -19.671875 19.117188 -20.1875 17.703125 -20.1875 C 16.328125 -20.1875 15.078125 -19.648438 13.953125 -18.578125 C 12.828125 -17.515625 12.265625 -16.328125 12.265625 -15.015625 L 12.265625 0 Z M 3.109375 0 "/></g></g><g clip-rule="nonzero" clip-path="url(#3d6fed2398)"><path style=" stroke:none;fill-rule:nonzero;fill:#6b6666;fill-opacity:1;" d="M 21.03125 97.6875 C 19.730469 95.613281 18.492188 93.507812 17.308594 91.367188 C 13.675781 92.390625 10 93.414062 6.324219 94.4375 C 10.3125 87.441406 14.300781 80.445312 18.289062 73.453125 C 19.519531 71.289062 21.089844 68.890625 23.558594 68.570312 C 25.046875 68.375 26.507812 69.015625 27.859375 69.671875 C 33.730469 72.511719 39.320312 75.929688 44.425781 79.878906 C 51.542969 76.742188 66.808594 71.429688 68.730469 74.984375 C 70.652344 78.542969 27.976562 102.472656 6.066406 110.011719 C 3.984375 110.730469 3.554688 109.179688 4.117188 108.1875 C 6.148438 104.609375 15.140625 97.859375 19.796875 95.445312 "/></g><path style=" stroke:none;fill-rule:nonzero;fill:#cb6ce6;fill-opacity:1;" d="M 44.289062 79.804688 C 42.820312 78.644531 42.304688 78.3125 41.058594 77.429688 C 34.707031 84.234375 27.089844 90.296875 18.867188 94.113281 C 19.175781 94.65625 19.742188 95.617188 20.832031 97.378906 C 23.328125 96.121094 30.71875 91.988281 32.9375 90.363281 C 35.910156 88.1875 42.988281 83.21875 44.289062 79.804688 Z M 44.289062 79.804688 "/><g clip-rule="nonzero" clip-path="url(#f8add86111)"><g clip-rule="nonzero" clip-path="url(#5709a04669)"><g clip-rule="nonzero" clip-path="url(#2c98cf5579)"><path style=" stroke:none;fill-rule:nonzero;fill:#cb6ce6;fill-opacity:1;" d="M 222.40625 73.34375 L 218.101562 87.648438 C 220.957031 88.503906 223.816406 89.359375 226.671875 90.21875 C 225.25 84.59375 223.828125 78.96875 222.40625 73.34375 "/></g></g></g><g clip-rule="nonzero" clip-path="url(#dd1e73c411)"><path style=" stroke:none;fill-rule:evenodd;fill:#a6a6a6;fill-opacity:1;" d="M 283.5625 57.734375 L 249.613281 57.734375 C 249.539062 57.734375 249.46875 57.765625 249.429688 57.816406 C 249.378906 57.867188 249.351562 57.933594 249.351562 58 L 249.351562 79.632812 C 249.351562 79.710938 249.386719 79.777344 249.429688 79.816406 C 249.480469 79.867188 249.546875 79.902344 249.613281 79.902344 L 283.554688 79.902344 C 283.628906 79.902344 283.695312 79.867188 283.738281 79.816406 C 283.789062 79.769531 283.820312 79.699219 283.820312 79.632812 L 283.820312 58 C 283.820312 57.925781 283.789062 57.859375 283.738281 57.816406 C 283.703125 57.765625 283.636719 57.734375 283.5625 57.734375 Z M 263.144531 84.199219 L 270.03125 84.199219 L 270.03125 86.664062 L 263.144531 86.664062 Z M 258.671875 88.507812 L 274.503906 88.507812 L 274.503906 90.96875 L 258.671875 90.96875 Z M 249.613281 55.269531 L 283.554688 55.269531 C 284.308594 55.269531 284.996094 55.578125 285.488281 56.074219 C 285.984375 56.570312 286.292969 57.253906 286.292969 58.007812 L 286.292969 79.640625 C 286.292969 80.394531 285.984375 81.082031 285.488281 81.578125 C 284.996094 82.070312 284.308594 82.382812 283.554688 82.382812 L 249.613281 82.382812 C 248.859375 82.382812 248.171875 82.070312 247.679688 81.578125 C 247.191406 81.074219 246.882812 80.386719 246.882812 79.632812 L 246.882812 58 C 246.882812 57.246094 247.191406 56.558594 247.6875 56.066406 C 248.179688 55.578125 248.867188 55.269531 249.613281 55.269531 Z M 249.613281 55.269531 "/></g><g clip-rule="nonzero" clip-path="url(#ac90f1a655)"><path style=" stroke:none;fill-rule:nonzero;fill:#a6a6a6;fill-opacity:1;" d="M 262.035156 63.980469 L 262.035156 65.945312 C 262.035156 66.234375 261.804688 66.464844 261.515625 66.464844 L 258.28125 66.464844 L 258.28125 69.703125 C 258.28125 69.988281 258.046875 70.222656 257.761719 70.222656 L 255.796875 70.222656 C 255.507812 70.222656 255.277344 69.988281 255.277344 69.703125 L 255.277344 66.464844 L 252.039062 66.464844 C 251.753906 66.464844 251.519531 66.234375 251.519531 65.945312 L 251.519531 63.980469 C 251.519531 63.695312 251.753906 63.460938 252.039062 63.460938 L 255.277344 63.460938 L 255.277344 60.226562 C 255.277344 59.9375 255.507812 59.707031 255.796875 59.707031 L 257.761719 59.707031 C 258.046875 59.707031 258.28125 59.9375 258.28125 60.226562 L 258.28125 63.460938 L 261.515625 63.460938 C 261.804688 63.460938 262.035156 63.695312 262.035156 63.980469 "/></g><g clip-rule="nonzero" clip-path="url(#a5afa6e3df)"><path style=" stroke:none;fill-rule:nonzero;fill:#a6a6a6;fill-opacity:1;" d="M 280.410156 69.1875 L 267.304688 69.1875 C 266.789062 69.1875 266.367188 69.605469 266.367188 70.121094 C 266.367188 70.640625 266.789062 71.058594 267.304688 71.058594 L 280.410156 71.058594 C 280.925781 71.058594 281.34375 70.640625 281.34375 70.121094 C 281.34375 69.605469 280.925781 69.1875 280.410156 69.1875 Z M 280.410156 69.1875 "/></g><g clip-rule="nonzero" clip-path="url(#cb5a73ce6d)"><path style=" stroke:none;fill-rule:nonzero;fill:#a6a6a6;fill-opacity:1;" d="M 280.410156 73.554688 L 267.304688 73.554688 C 266.789062 73.554688 266.367188 73.972656 266.367188 74.492188 C 266.367188 75.007812 266.789062 75.425781 267.304688 75.425781 L 280.410156 75.425781 C 280.925781 75.425781 281.34375 75.007812 281.34375 74.492188 C 281.34375 73.972656 280.925781 73.554688 280.410156 73.554688 Z M 280.410156 73.554688 "/></g><g clip-rule="nonzero" clip-path="url(#2a56a775bd)"><path style=" stroke:none;fill-rule:nonzero;fill:#a6a6a6;fill-opacity:1;" d="M 267.304688 66.691406 L 280.410156 66.691406 C 280.925781 66.691406 281.34375 66.273438 281.34375 65.753906 C 281.34375 65.238281 280.925781 64.820312 280.410156 64.820312 L 267.304688 64.820312 C 266.789062 64.820312 266.367188 65.238281 266.367188 65.753906 C 266.367188 66.273438 266.789062 66.691406 267.304688 66.691406 Z M 267.304688 66.691406 "/></g></g></svg>