<svg xmlns="http://www.w3.org/2000/svg" xmlns:xlink="http://www.w3.org/1999/xlink" width="500" zoomAndPan="magnify" viewBox="0 0 375 374.999991" height="500" preserveAspectRatio="xMidYMid meet" version="1.0"><defs><g/><clipPath id="894dc3329f"><path d="M 249 137 L 264 137 L 264 158 L 249 158 Z M 249 137 " clip-rule="nonzero"/></clipPath><clipPath id="b4d11402f8"><path d="M 202.484375 145.960938 L 265.566406 110.339844 L 301.972656 174.804688 L 238.890625 210.429688 Z M 202.484375 145.960938 " clip-rule="nonzero"/></clipPath><clipPath id="b8abb07aba"><path d="M 265.597656 110.320312 L 202.519531 145.941406 L 238.921875 210.410156 L 302.003906 174.789062 Z M 265.597656 110.320312 " clip-rule="nonzero"/></clipPath><clipPath id="ef49c22e35"><path d="M 235 158 L 258 158 L 258 208 L 235 208 Z M 235 158 " clip-rule="nonzero"/></clipPath><clipPath id="d537a5c608"><path d="M 202.484375 145.960938 L 265.566406 110.339844 L 301.972656 174.804688 L 238.890625 210.429688 Z M 202.484375 145.960938 " clip-rule="nonzero"/></clipPath><clipPath id="e318e52832"><path d="M 265.597656 110.320312 L 202.519531 145.941406 L 238.921875 210.410156 L 302.003906 174.789062 Z M 265.597656 110.320312 " clip-rule="nonzero"/></clipPath><clipPath id="4fd3fba52f"><path d="M 263 126 L 279 126 L 279 142 L 263 142 Z M 263 126 " clip-rule="nonzero"/></clipPath><clipPath id="c4b32ee25a"><path d="M 202.484375 145.960938 L 265.566406 110.339844 L 301.972656 174.804688 L 238.890625 210.429688 Z M 202.484375 145.960938 " clip-rule="nonzero"/></clipPath><clipPath id="de7b79df10"><path d="M 265.597656 110.320312 L 202.519531 145.941406 L 238.921875 210.410156 L 302.003906 174.789062 Z M 265.597656 110.320312 " clip-rule="nonzero"/></clipPath><clipPath id="1e1a4372ee"><path d="M 234 121 L 256 121 L 256 143 L 234 143 Z M 234 121 " clip-rule="nonzero"/></clipPath><clipPath id="94b2f5cec0"><path d="M 202.484375 145.960938 L 265.566406 110.339844 L 301.972656 174.804688 L 238.890625 210.429688 Z M 202.484375 145.960938 " clip-rule="nonzero"/></clipPath><clipPath id="a89e94c31a"><path d="M 265.597656 110.320312 L 202.519531 145.941406 L 238.921875 210.410156 L 302.003906 174.789062 Z M 265.597656 110.320312 " clip-rule="nonzero"/></clipPath><clipPath id="59a3dfd9db"><path d="M 234 144 L 246 144 L 246 157 L 234 157 Z M 234 144 " clip-rule="nonzero"/></clipPath><clipPath id="2b2cd1ce98"><path d="M 202.484375 145.960938 L 265.566406 110.339844 L 301.972656 174.804688 L 238.890625 210.429688 Z M 202.484375 145.960938 " clip-rule="nonzero"/></clipPath><clipPath id="d4be279bcc"><path d="M 265.597656 110.320312 L 202.519531 145.941406 L 238.921875 210.410156 L 302.003906 174.789062 Z M 265.597656 110.320312 " clip-rule="nonzero"/></clipPath><clipPath id="ea948efd7a"><path d="M 275 163.105469 L 290 163.105469 L 290 170 L 275 170 Z M 275 163.105469 " clip-rule="nonzero"/></clipPath><clipPath id="9afa354ad8"><path d="M 265.761719 166 L 299.195312 166 L 299.195312 206.890625 L 265.761719 206.890625 Z M 265.761719 166 " clip-rule="nonzero"/></clipPath><clipPath id="4801255bb2"><path d="M 23.507812 187.394531 L 88 187.394531 L 88 229 L 23.507812 229 Z M 23.507812 187.394531 " clip-rule="nonzero"/></clipPath><clipPath id="8d81caa4da"><path d="M 234 192 L 244 192 L 244 209 L 234 209 Z M 234 192 " clip-rule="nonzero"/></clipPath><clipPath id="c415b834be"><path d="M 238.847656 192.328125 L 247.230469 194.855469 L 243.097656 208.574219 L 234.710938 206.046875 Z M 238.847656 192.328125 " clip-rule="nonzero"/></clipPath><clipPath id="2aff275ede"><path d="M 238.847656 192.328125 L 247.230469 194.855469 L 243.097656 208.574219 L 234.710938 206.046875 Z M 238.847656 192.328125 " clip-rule="nonzero"/></clipPath></defs><g clip-path="url(#894dc3329f)"><g clip-path="url(#b4d11402f8)"><g clip-path="url(#b8abb07aba)"><path fill="#cb6ce6" d="M 254.207031 155.621094 C 254.132812 155.601562 254.058594 155.582031 253.984375 155.5625 C 251.605469 154.917969 249.230469 154.542969 249.082031 155.0625 L 253.472656 139.28125 C 253.773438 138.210938 255.046875 137.628906 256.320312 137.980469 L 261.503906 139.425781 C 262.777344 139.777344 263.570312 140.9375 263.269531 142.007812 L 258.878906 157.785156 C 258.964844 157.460938 258.125 156.984375 256.910156 156.507812 C 256.121094 156.199219 255.171875 155.890625 254.207031 155.621094 Z M 254.207031 155.621094 " fill-opacity="1" fill-rule="nonzero"/></g></g></g><g clip-path="url(#ef49c22e35)"><g clip-path="url(#d537a5c608)"><g clip-path="url(#e318e52832)"><path fill="#cb6ce6" d="M 247.980469 159.023438 C 248.125 158.511719 250.441406 158.871094 252.785156 159.496094 L 252.789062 159.480469 L 253.011719 159.542969 C 255.453125 160.222656 257.824219 161.167969 257.683594 161.707031 L 245.023438 207.21875 C 243.398438 206.957031 241.800781 206.585938 240.226562 206.105469 L 240.222656 206.121094 C 240.222656 206.121094 236.933594 204.976562 235.398438 204.25 Z M 247.980469 159.023438 " fill-opacity="1" fill-rule="nonzero"/></g></g></g><g clip-path="url(#4fd3fba52f)"><g clip-path="url(#c4b32ee25a)"><g clip-path="url(#de7b79df10)"><path fill="#cb6ce6" d="M 263.722656 134.695312 C 263.722656 134.695312 268.546875 133.46875 269.367188 132.535156 C 270.183594 131.597656 270.761719 126.65625 270.761719 126.65625 C 270.761719 126.65625 271.988281 131.480469 272.921875 132.300781 C 273.859375 133.121094 278.804688 133.699219 278.804688 133.699219 C 278.804688 133.699219 273.890625 135.019531 273.160156 135.855469 C 272.425781 136.695312 271.761719 141.738281 271.761719 141.738281 C 271.761719 141.738281 270.4375 136.824219 269.574219 136.066406 C 268.707031 135.3125 263.722656 134.695312 263.722656 134.695312 Z M 263.722656 134.695312 " fill-opacity="1" fill-rule="nonzero"/></g></g></g><g clip-path="url(#1e1a4372ee)"><g clip-path="url(#94b2f5cec0)"><g clip-path="url(#a89e94c31a)"><path fill="#cb6ce6" d="M 247.46875 134.785156 C 246.253906 135.84375 244.449219 142.65625 244.449219 142.65625 C 244.449219 142.65625 243.667969 135.71875 242.523438 134.402344 C 241.378906 133.082031 234.625 131.339844 234.625 131.339844 C 234.625 131.339844 241.558594 130.558594 242.875 129.414062 C 244.191406 128.269531 245.933594 121.515625 245.933594 121.515625 C 245.933594 121.515625 246.839844 128.589844 247.859375 129.765625 C 248.882812 130.945312 255.761719 132.828125 255.761719 132.828125 C 255.761719 132.828125 248.6875 133.730469 247.46875 134.785156 Z M 247.46875 134.785156 " fill-opacity="1" fill-rule="nonzero"/></g></g></g><g clip-path="url(#59a3dfd9db)"><g clip-path="url(#2b2cd1ce98)"><g clip-path="url(#d4be279bcc)"><path fill="#cb6ce6" d="M 245.871094 150.6875 C 245.871094 150.6875 242.128906 151.25 241.496094 151.828125 C 240.863281 152.402344 239.988281 156.035156 239.988281 156.035156 C 239.988281 156.035156 239.492188 152.367188 238.867188 151.683594 C 238.246094 151 234.644531 150.15625 234.644531 150.15625 C 234.644531 150.15625 238.308594 149.660156 238.996094 149.035156 C 239.679688 148.414062 240.523438 144.808594 240.523438 144.808594 C 240.523438 144.808594 241.085938 148.550781 241.640625 149.160156 C 242.199219 149.773438 245.871094 150.6875 245.871094 150.6875 Z M 245.871094 150.6875 " fill-opacity="1" fill-rule="nonzero"/></g></g></g><path fill="#ffffff" d="M 278.859375 184.449219 C 278.84375 184.449219 278.828125 184.449219 278.8125 184.449219 C 278.488281 184.429688 278.207031 184.222656 278.089844 183.921875 L 276.984375 180.984375 L 276.917969 181.277344 C 276.917969 181.285156 276.914062 181.292969 276.914062 181.300781 L 276.601562 182.550781 C 276.511719 182.917969 276.183594 183.171875 275.808594 183.171875 L 273.085938 183.175781 C 272.632812 183.175781 272.265625 182.808594 272.265625 182.359375 C 272.265625 181.90625 272.632812 181.539062 273.085938 181.539062 L 275.167969 181.535156 L 275.320312 180.917969 L 275.976562 177.945312 C 276.054688 177.589844 276.355469 177.332031 276.71875 177.304688 C 277.082031 177.277344 277.414062 177.492188 277.542969 177.832031 L 278.96875 181.617188 L 279.671875 180.246094 C 279.8125 179.972656 280.089844 179.800781 280.394531 179.800781 C 280.398438 179.800781 280.398438 179.800781 280.402344 179.800781 C 280.703125 179.800781 280.980469 179.964844 281.125 180.234375 L 281.820312 181.535156 L 284.761719 181.539062 C 285.214844 181.539062 285.582031 181.90625 285.582031 182.359375 C 285.582031 182.808594 285.214844 183.175781 284.761719 183.175781 L 281.328125 183.171875 C 281.027344 183.171875 280.75 183.007812 280.605469 182.738281 L 280.417969 182.382812 L 279.585938 184.003906 C 279.445312 184.28125 279.164062 184.449219 278.859375 184.449219 Z M 278.859375 184.449219 " fill-opacity="1" fill-rule="nonzero"/><path fill="#ffffff" d="M 283.671875 190.136719 C 283.460938 190.136719 283.25 190.054688 283.089844 189.894531 C 282.035156 188.839844 280.835938 187.640625 279.765625 186.457031 C 279.460938 186.125 279.488281 185.605469 279.824219 185.300781 C 280.15625 185 280.675781 185.023438 280.980469 185.359375 C 281.832031 186.304688 282.78125 187.265625 283.667969 188.15625 C 286.980469 184.839844 290.214844 181.4375 290.214844 178.277344 C 290.214844 176.699219 288.929688 175.417969 287.351562 175.417969 C 285.996094 175.417969 284.757812 176.65625 284.476562 178.300781 C 284.40625 178.707031 284.046875 178.996094 283.632812 178.980469 C 283.222656 178.960938 282.890625 178.640625 282.851562 178.230469 C 282.742188 176.957031 281.441406 175.414062 279.988281 175.414062 C 279.222656 175.414062 278.5 175.714844 277.960938 176.261719 C 277.640625 176.582031 277.121094 176.582031 276.800781 176.261719 C 276.480469 175.945312 276.480469 175.425781 276.800781 175.105469 C 277.652344 174.25 278.785156 173.777344 279.988281 173.777344 C 281.5 173.777344 282.847656 174.714844 283.667969 175.921875 C 284.511719 174.609375 285.863281 173.777344 287.351562 173.777344 C 289.832031 173.777344 291.847656 175.796875 291.847656 178.277344 C 291.847656 182.300781 287.984375 186.160156 284.246094 189.894531 C 284.089844 190.054688 283.878906 190.136719 283.671875 190.136719 Z M 283.671875 190.136719 " fill-opacity="1" fill-rule="nonzero"/><g clip-path="url(#ea948efd7a)"><path fill="#ffffff" d="M 288.769531 169.84375 L 276.535156 169.84375 C 276.082031 169.84375 275.71875 169.476562 275.71875 169.027344 L 275.71875 163.925781 C 275.71875 163.476562 276.082031 163.109375 276.535156 163.109375 L 288.769531 163.109375 C 289.222656 163.109375 289.589844 163.476562 289.589844 163.925781 L 289.589844 169.027344 C 289.589844 169.480469 289.222656 169.84375 288.769531 169.84375 Z M 277.355469 168.207031 L 287.949219 168.207031 L 287.949219 164.746094 L 277.355469 164.746094 Z M 277.355469 168.207031 " fill-opacity="1" fill-rule="nonzero"/></g><g clip-path="url(#9afa354ad8)"><path fill="#ffffff" d="M 295.296875 206.636719 L 270.011719 206.636719 C 267.707031 206.636719 265.832031 204.761719 265.832031 202.457031 L 265.832031 170.261719 C 265.832031 167.957031 267.707031 166.082031 270.011719 166.082031 L 276.535156 166.082031 C 276.988281 166.082031 277.355469 166.449219 277.355469 166.898438 L 277.355469 168.207031 L 287.949219 168.207031 L 287.949219 166.898438 C 287.949219 166.449219 288.316406 166.082031 288.769531 166.082031 L 295.296875 166.082031 C 297.601562 166.082031 299.472656 167.957031 299.472656 170.261719 L 299.472656 202.457031 C 299.472656 204.761719 297.601562 206.636719 295.296875 206.636719 Z M 270.011719 167.71875 C 268.609375 167.71875 267.46875 168.859375 267.46875 170.261719 L 267.46875 202.457031 C 267.46875 203.859375 268.609375 205 270.011719 205 L 295.296875 205 C 296.695312 205 297.835938 203.859375 297.835938 202.457031 L 297.835938 170.261719 C 297.835938 168.859375 296.695312 167.71875 295.296875 167.71875 L 289.589844 167.71875 L 289.589844 169.027344 C 289.589844 169.476562 289.222656 169.84375 288.769531 169.84375 L 276.535156 169.84375 C 276.082031 169.84375 275.71875 169.476562 275.71875 169.027344 L 275.71875 167.71875 Z M 270.011719 167.71875 " fill-opacity="1" fill-rule="nonzero"/></g><path fill="#ffffff" d="M 273.066406 195.625 C 272.617188 195.625 272.25 195.257812 272.25 194.808594 C 272.25 194.355469 272.617188 193.988281 273.066406 193.988281 L 292.820312 193.984375 C 293.269531 193.984375 293.636719 194.351562 293.636719 194.804688 C 293.636719 195.257812 293.269531 195.621094 292.820312 195.621094 Z M 273.066406 195.625 " fill-opacity="1" fill-rule="nonzero"/><path fill="#ffffff" d="M 273.0625 200.277344 C 272.609375 200.277344 272.246094 199.910156 272.246094 199.457031 C 272.242188 199.003906 272.609375 198.640625 273.0625 198.636719 L 292.8125 198.632812 C 293.265625 198.632812 293.632812 199 293.632812 199.449219 C 293.632812 199.902344 293.265625 200.269531 292.8125 200.269531 Z M 273.0625 200.277344 " fill-opacity="1" fill-rule="nonzero"/><g fill="#ffffff" fill-opacity="1"><g transform="translate(41.442107, 248.291117)"><g><path d="M 25.421875 -8.65625 C 26.878906 -8.65625 28.296875 -8.875 29.671875 -9.3125 C 31.046875 -9.757812 32.054688 -10.1875 32.703125 -10.59375 L 33.671875 -11.25 L 37.75 -3.109375 C 37.613281 -3.003906 37.425781 -2.863281 37.1875 -2.6875 C 36.945312 -2.519531 36.394531 -2.207031 35.53125 -1.75 C 34.664062 -1.289062 33.738281 -0.890625 32.75 -0.546875 C 31.769531 -0.210938 30.476562 0.0859375 28.875 0.359375 C 27.28125 0.628906 25.632812 0.765625 23.9375 0.765625 C 20.03125 0.765625 16.328125 -0.191406 12.828125 -2.109375 C 9.335938 -4.023438 6.519531 -6.664062 4.375 -10.03125 C 2.238281 -13.394531 1.171875 -17.03125 1.171875 -20.9375 C 1.171875 -23.882812 1.796875 -26.71875 3.046875 -29.4375 C 4.304688 -32.15625 5.976562 -34.484375 8.0625 -36.421875 C 10.15625 -38.359375 12.59375 -39.898438 15.375 -41.046875 C 18.164062 -42.203125 21.019531 -42.78125 23.9375 -42.78125 C 26.65625 -42.78125 29.160156 -42.457031 31.453125 -41.8125 C 33.742188 -41.175781 35.363281 -40.535156 36.3125 -39.890625 L 37.75 -38.921875 L 33.671875 -30.765625 C 33.429688 -30.972656 33.070312 -31.21875 32.59375 -31.5 C 32.125 -31.789062 31.175781 -32.171875 29.75 -32.640625 C 28.320312 -33.117188 26.878906 -33.359375 25.421875 -33.359375 C 23.109375 -33.359375 21.035156 -32.984375 19.203125 -32.234375 C 17.367188 -31.492188 15.914062 -30.507812 14.84375 -29.28125 C 13.78125 -28.0625 12.96875 -26.75 12.40625 -25.34375 C 11.84375 -23.9375 11.5625 -22.5 11.5625 -21.03125 C 11.5625 -17.84375 12.757812 -14.984375 15.15625 -12.453125 C 17.550781 -9.921875 20.972656 -8.65625 25.421875 -8.65625 Z M 25.421875 -8.65625 "/></g></g></g><g fill="#ffffff" fill-opacity="1"><g transform="translate(78.518724, 248.291117)"><g><path d="M 3.0625 0 L 3.0625 -43.8125 L 12.078125 -43.8125 L 12.078125 -23.375 L 12.171875 -23.375 C 14.515625 -25.71875 17.007812 -26.890625 19.65625 -26.890625 C 20.945312 -26.890625 22.226562 -26.71875 23.5 -26.375 C 24.78125 -26.039062 26.003906 -25.515625 27.171875 -24.796875 C 28.347656 -24.085938 29.300781 -23.078125 30.03125 -21.765625 C 30.757812 -20.460938 31.125 -18.945312 31.125 -17.21875 L 31.125 0 L 22.109375 0 L 22.109375 -14.765625 C 22.109375 -16.128906 21.675781 -17.316406 20.8125 -18.328125 C 19.945312 -19.347656 18.816406 -19.859375 17.421875 -19.859375 C 16.066406 -19.859375 14.835938 -19.332031 13.734375 -18.28125 C 12.628906 -17.226562 12.078125 -16.054688 12.078125 -14.765625 L 12.078125 0 Z M 3.0625 0 "/></g></g></g><g fill="#ffffff" fill-opacity="1"><g transform="translate(110.909811, 248.291117)"><g><path d="M 4.828125 -3.234375 C 2.390625 -5.898438 1.171875 -9.164062 1.171875 -13.03125 C 1.171875 -16.90625 2.390625 -20.179688 4.828125 -22.859375 C 7.273438 -25.546875 10.382812 -26.890625 14.15625 -26.890625 C 17.625 -26.890625 20.476562 -25.804688 22.71875 -23.640625 L 22.71875 -26.125 L 31.734375 -26.125 L 31.734375 0 L 22.8125 0 L 22.8125 -2.953125 L 22.71875 -2.953125 C 20.476562 -0.472656 17.625 0.765625 14.15625 0.765625 C 10.382812 0.765625 7.273438 -0.566406 4.828125 -3.234375 Z M 12.5 -17.46875 C 11.332031 -16.3125 10.75 -14.832031 10.75 -13.03125 C 10.75 -11.238281 11.304688 -9.769531 12.421875 -8.625 C 13.546875 -7.488281 15.023438 -6.921875 16.859375 -6.921875 C 18.628906 -6.921875 20.082031 -7.5 21.21875 -8.65625 C 22.351562 -9.8125 22.921875 -11.273438 22.921875 -13.046875 C 22.921875 -14.835938 22.332031 -16.3125 21.15625 -17.46875 C 19.988281 -18.625 18.554688 -19.203125 16.859375 -19.203125 C 15.128906 -19.203125 13.675781 -18.625 12.5 -17.46875 Z M 12.5 -17.46875 "/></g></g></g><g fill="#ffffff" fill-opacity="1"><g transform="translate(144.421348, 248.291117)"><g><path d="M 3.0625 0 L 3.0625 -26.125 L 12.078125 -26.125 L 12.078125 -22.359375 L 12.171875 -22.359375 C 12.242188 -22.492188 12.351562 -22.660156 12.5 -22.859375 C 12.65625 -23.066406 12.988281 -23.425781 13.5 -23.9375 C 14.007812 -24.445312 14.550781 -24.90625 15.125 -25.3125 C 15.707031 -25.71875 16.457031 -26.082031 17.375 -26.40625 C 18.289062 -26.726562 19.222656 -26.890625 20.171875 -26.890625 C 21.148438 -26.890625 22.113281 -26.753906 23.0625 -26.484375 C 24.019531 -26.210938 24.71875 -25.941406 25.15625 -25.671875 L 25.875 -25.265625 L 22.109375 -17.625 C 20.984375 -18.570312 19.421875 -19.046875 17.421875 -19.046875 C 16.335938 -19.046875 15.40625 -18.804688 14.625 -18.328125 C 13.84375 -17.859375 13.289062 -17.285156 12.96875 -16.609375 C 12.644531 -15.929688 12.414062 -15.351562 12.28125 -14.875 C 12.144531 -14.394531 12.078125 -14.019531 12.078125 -13.75 L 12.078125 0 Z M 3.0625 0 "/></g></g></g><g fill="#ffffff" fill-opacity="1"><g transform="translate(168.510908, 248.291117)"><g><path d="M 4.578125 -26.125 L 4.578125 -35.859375 L 13.59375 -35.859375 L 13.59375 -26.125 L 19.09375 -26.125 L 19.09375 -19.25 L 13.59375 -19.25 L 13.59375 -10.953125 C 13.59375 -8.535156 14.273438 -7.328125 15.640625 -7.328125 C 15.972656 -7.328125 16.328125 -7.394531 16.703125 -7.53125 C 17.078125 -7.675781 17.367188 -7.816406 17.578125 -7.953125 L 17.875 -8.15625 L 20.125 -0.859375 C 18.1875 0.222656 15.976562 0.765625 13.5 0.765625 C 11.800781 0.765625 10.335938 0.46875 9.109375 -0.125 C 7.890625 -0.71875 6.96875 -1.515625 6.34375 -2.515625 C 5.71875 -3.523438 5.265625 -4.578125 4.984375 -5.671875 C 4.710938 -6.773438 4.578125 -7.957031 4.578125 -9.21875 L 4.578125 -19.25 L 0.8125 -19.25 L 0.8125 -26.125 Z M 4.578125 -26.125 "/></g></g></g><g fill="#cb6ce6" fill-opacity="1"><g transform="translate(187.363976, 248.291117)"><g><path d="M 35.296875 0 L 28.578125 -23.578125 L 21.859375 0 L 11.203125 0 L -0.765625 -42.015625 L 9.875 -42.015625 L 17.0625 -13.1875 L 17.3125 -13.1875 L 24.953125 -42.015625 L 32.1875 -42.015625 L 39.828125 -13.1875 L 40.09375 -13.1875 L 47.265625 -42.015625 L 57.859375 -42.015625 L 45.890625 0 Z M 35.296875 0 "/></g></g></g><g fill="#cb6ce6" fill-opacity="1"><g transform="translate(243.182685, 248.291117)"><g><path d="M 3.921875 -40.703125 C 4.972656 -41.753906 6.226562 -42.28125 7.6875 -42.28125 C 9.144531 -42.28125 10.398438 -41.753906 11.453125 -40.703125 C 12.515625 -39.648438 13.046875 -38.390625 13.046875 -36.921875 C 13.046875 -35.460938 12.515625 -34.207031 11.453125 -33.15625 C 10.398438 -32.101562 9.144531 -31.578125 7.6875 -31.578125 C 6.226562 -31.578125 4.972656 -32.101562 3.921875 -33.15625 C 2.867188 -34.207031 2.34375 -35.460938 2.34375 -36.921875 C 2.34375 -38.390625 2.867188 -39.648438 3.921875 -40.703125 Z M 3.0625 -26.125 L 3.0625 0 L 12.078125 0 L 12.078125 -26.125 Z M 3.0625 -26.125 "/></g></g></g><g fill="#cb6ce6" fill-opacity="1"><g transform="translate(257.29005, 248.291117)"><g><path d="M 4.578125 -26.125 L 4.578125 -35.859375 L 13.59375 -35.859375 L 13.59375 -26.125 L 19.09375 -26.125 L 19.09375 -19.25 L 13.59375 -19.25 L 13.59375 -10.953125 C 13.59375 -8.535156 14.273438 -7.328125 15.640625 -7.328125 C 15.972656 -7.328125 16.328125 -7.394531 16.703125 -7.53125 C 17.078125 -7.675781 17.367188 -7.816406 17.578125 -7.953125 L 17.875 -8.15625 L 20.125 -0.859375 C 18.1875 0.222656 15.976562 0.765625 13.5 0.765625 C 11.800781 0.765625 10.335938 0.46875 9.109375 -0.125 C 7.890625 -0.71875 6.96875 -1.515625 6.34375 -2.515625 C 5.71875 -3.523438 5.265625 -4.578125 4.984375 -5.671875 C 4.710938 -6.773438 4.578125 -7.957031 4.578125 -9.21875 L 4.578125 -19.25 L 0.8125 -19.25 L 0.8125 -26.125 Z M 4.578125 -26.125 "/></g></g></g><g fill="#cb6ce6" fill-opacity="1"><g transform="translate(276.133862, 248.291117)"><g><path d="M 16.96875 -19.515625 C 15.269531 -19.515625 13.804688 -18.882812 12.578125 -17.625 C 11.359375 -16.363281 10.75 -14.851562 10.75 -13.09375 C 10.75 -11.289062 11.359375 -9.757812 12.578125 -8.5 C 13.804688 -7.25 15.269531 -6.625 16.96875 -6.625 C 17.78125 -6.625 18.550781 -6.722656 19.28125 -6.921875 C 20.007812 -7.128906 20.546875 -7.332031 20.890625 -7.53125 L 21.34375 -7.84375 L 24.40625 -1.578125 C 24.164062 -1.410156 23.832031 -1.195312 23.40625 -0.9375 C 22.976562 -0.6875 22.007812 -0.34375 20.5 0.09375 C 18.988281 0.539062 17.367188 0.765625 15.640625 0.765625 C 11.796875 0.765625 8.421875 -0.582031 5.515625 -3.28125 C 2.617188 -5.976562 1.171875 -9.210938 1.171875 -12.984375 C 1.171875 -16.785156 2.617188 -20.050781 5.515625 -22.78125 C 8.421875 -25.519531 11.796875 -26.890625 15.640625 -26.890625 C 17.367188 -26.890625 18.960938 -26.6875 20.421875 -26.28125 C 21.878906 -25.875 22.914062 -25.46875 23.53125 -25.0625 L 24.40625 -24.453125 L 21.34375 -18.28125 C 20.21875 -19.101562 18.757812 -19.515625 16.96875 -19.515625 Z M 16.96875 -19.515625 "/></g></g></g><g fill="#cb6ce6" fill-opacity="1"><g transform="translate(299.866921, 248.291117)"><g><path d="M 3.0625 0 L 3.0625 -43.8125 L 12.078125 -43.8125 L 12.078125 -23.375 L 12.171875 -23.375 C 14.515625 -25.71875 17.007812 -26.890625 19.65625 -26.890625 C 20.945312 -26.890625 22.226562 -26.71875 23.5 -26.375 C 24.78125 -26.039062 26.003906 -25.515625 27.171875 -24.796875 C 28.347656 -24.085938 29.300781 -23.078125 30.03125 -21.765625 C 30.757812 -20.460938 31.125 -18.945312 31.125 -17.21875 L 31.125 0 L 22.109375 0 L 22.109375 -14.765625 C 22.109375 -16.128906 21.675781 -17.316406 20.8125 -18.328125 C 19.945312 -19.347656 18.816406 -19.859375 17.421875 -19.859375 C 16.066406 -19.859375 14.835938 -19.332031 13.734375 -18.28125 C 12.628906 -17.226562 12.078125 -16.054688 12.078125 -14.765625 L 12.078125 0 Z M 3.0625 0 "/></g></g></g><g clip-path="url(#4801255bb2)"><path fill="#4a4a4a" d="M 40.457031 216.46875 C 39.175781 214.417969 37.945312 212.328125 36.773438 210.210938 C 33.175781 211.222656 29.539062 212.238281 25.898438 213.25 C 29.847656 206.324219 33.796875 199.398438 37.742188 192.472656 C 38.960938 190.332031 40.519531 187.957031 42.960938 187.640625 C 44.4375 187.449219 45.882812 188.082031 47.222656 188.730469 C 53.035156 191.542969 58.570312 194.925781 63.625 198.839844 C 70.667969 195.730469 85.785156 190.472656 87.6875 193.992188 C 89.589844 197.515625 47.339844 221.207031 25.644531 228.671875 C 23.582031 229.382812 23.15625 227.847656 23.714844 226.863281 C 25.722656 223.324219 34.628906 216.640625 39.238281 214.25 " fill-opacity="1" fill-rule="nonzero"/></g><path fill="#cb6ce6" d="M 63.488281 198.761719 C 62.03125 197.613281 61.523438 197.285156 60.289062 196.410156 C 54.003906 203.148438 46.460938 209.152344 38.316406 212.929688 C 38.625 213.46875 39.1875 214.417969 40.261719 216.164062 C 42.734375 214.917969 50.050781 210.828125 52.25 209.214844 C 55.191406 207.0625 62.199219 202.144531 63.488281 198.761719 Z M 63.488281 198.761719 " fill-opacity="1" fill-rule="nonzero"/><g clip-path="url(#8d81caa4da)"><g clip-path="url(#c415b834be)"><g clip-path="url(#2aff275ede)"><path fill="#cb6ce6" d="M 238.84375 192.335938 L 236.726562 199.371094 L 234.605469 206.40625 C 237.417969 207.25 240.230469 208.09375 243.039062 208.933594 C 241.640625 203.402344 240.242188 197.871094 238.84375 192.335938 " fill-opacity="1" fill-rule="nonzero"/></g></g></g></svg>
