<svg width="428" height="177" viewBox="0 0 428 177" fill="none" xmlns="http://www.w3.org/2000/svg">
<mask id="mask0_9_2" style="mask-type:luminance" maskUnits="userSpaceOnUse" x="308" y="26" width="21" height="29">
<path d="M308.656 26.3333H328.656V54.3333H308.656V26.3333Z" fill="white"/>
</mask>
<g mask="url(#mask0_9_2)">
<mask id="mask1_9_2" style="mask-type:luminance" maskUnits="userSpaceOnUse" x="246" y="-10" width="134" height="135">
<path d="M246.635 38.2812L330.745 -9.21362L379.286 76.7395L295.177 124.24L246.635 38.2812Z" fill="white"/>
</mask>
<g mask="url(#mask1_9_2)">
<mask id="mask2_9_2" style="mask-type:luminance" maskUnits="userSpaceOnUse" x="246" y="-10" width="134" height="135">
<path d="M330.786 -9.23962L246.682 38.2552L295.219 124.214L379.328 76.7187L330.786 -9.23962Z" fill="white"/>
</mask>
<g mask="url(#mask2_9_2)">
<path d="M315.599 51.1614C315.5 51.1353 315.401 51.1093 315.302 51.0833C312.13 50.2239 308.964 49.7239 308.766 50.4166L314.62 29.3749C315.021 27.9478 316.719 27.1718 318.417 27.6406L325.328 29.5676C327.026 30.0364 328.083 31.5833 327.682 33.0103L321.828 54.0468C321.943 53.6145 320.823 52.9791 319.203 52.3437C318.151 51.9322 316.885 51.5208 315.599 51.1614Z" fill="#CB6CE6"/>
</g>
</g>
</g>
<mask id="mask3_9_2" style="mask-type:luminance" maskUnits="userSpaceOnUse" x="289" y="54" width="32" height="67">
<path d="M289.99 54.3333H320.656V121H289.99V54.3333Z" fill="white"/>
</mask>
<g mask="url(#mask3_9_2)">
<mask id="mask4_9_2" style="mask-type:luminance" maskUnits="userSpaceOnUse" x="246" y="-10" width="134" height="135">
<path d="M246.635 38.2812L330.745 -9.21362L379.286 76.7395L295.177 124.24L246.635 38.2812Z" fill="white"/>
</mask>
<g mask="url(#mask4_9_2)">
<mask id="mask5_9_2" style="mask-type:luminance" maskUnits="userSpaceOnUse" x="246" y="-10" width="134" height="135">
<path d="M330.786 -9.23962L246.682 38.2552L295.219 124.214L379.328 76.7187L330.786 -9.23962Z" fill="white"/>
</mask>
<g mask="url(#mask5_9_2)">
<path d="M307.297 55.6978C307.49 55.0156 310.578 55.4947 313.703 56.3281L313.708 56.3072L314.005 56.3906C317.26 57.2968 320.422 58.5572 320.234 59.276L303.354 119.958C301.188 119.609 299.057 119.115 296.958 118.474L296.953 118.495C296.953 118.495 292.568 116.969 290.521 116L307.297 55.6978Z" fill="#CB6CE6"/>
</g>
</g>
</g>
<mask id="mask6_9_2" style="mask-type:luminance" maskUnits="userSpaceOnUse" x="327" y="11" width="22" height="22">
<path d="M327.323 11.6666H348.656V33H327.323V11.6666Z" fill="white"/>
</mask>
<g mask="url(#mask6_9_2)">
<mask id="mask7_9_2" style="mask-type:luminance" maskUnits="userSpaceOnUse" x="246" y="-10" width="134" height="135">
<path d="M246.635 38.2812L330.745 -9.21362L379.286 76.7395L295.177 124.24L246.635 38.2812Z" fill="white"/>
</mask>
<g mask="url(#mask7_9_2)">
<mask id="mask8_9_2" style="mask-type:luminance" maskUnits="userSpaceOnUse" x="246" y="-10" width="134" height="135">
<path d="M330.786 -9.23962L246.682 38.2552L295.219 124.214L379.328 76.7187L330.786 -9.23962Z" fill="white"/>
</mask>
<g mask="url(#mask8_9_2)">
<path d="M328.286 23.2604C328.286 23.2604 334.719 21.625 335.812 20.3802C336.901 19.1302 337.672 12.5416 337.672 12.5416C337.672 12.5416 339.307 18.9739 340.552 20.0677C341.802 21.1614 348.396 21.9323 348.396 21.9323C348.396 21.9323 341.844 23.6927 340.87 24.8073C339.891 25.927 339.005 32.651 339.005 32.651C339.005 32.651 337.24 26.0989 336.089 25.0885C334.932 24.0833 328.286 23.2604 328.286 23.2604Z" fill="#CB6CE6"/>
</g>
</g>
</g>
<mask id="mask9_9_2" style="mask-type:luminance" maskUnits="userSpaceOnUse" x="288" y="5" width="30" height="30">
<path d="M288.656 5H317.99V34.3333H288.656V5Z" fill="white"/>
</mask>
<g mask="url(#mask9_9_2)">
<mask id="mask10_9_2" style="mask-type:luminance" maskUnits="userSpaceOnUse" x="246" y="-10" width="134" height="135">
<path d="M246.635 38.2813L330.745 -9.2135L379.286 76.7396L295.177 124.24L246.635 38.2813Z" fill="white"/>
</mask>
<g mask="url(#mask10_9_2)">
<mask id="mask11_9_2" style="mask-type:luminance" maskUnits="userSpaceOnUse" x="246" y="-10" width="134" height="135">
<path d="M330.786 -9.2395L246.682 38.2553L295.219 124.214L379.328 76.7188L330.786 -9.2395Z" fill="white"/>
</mask>
<g mask="url(#mask11_9_2)">
<path d="M306.615 23.3803C304.995 24.7918 302.589 33.8751 302.589 33.8751C302.589 33.8751 301.547 24.6251 300.021 22.8699C298.495 21.1095 289.49 18.7866 289.49 18.7866C289.49 18.7866 298.734 17.7449 300.49 16.2189C302.245 14.6928 304.568 5.68762 304.568 5.68762C304.568 5.68762 305.776 15.1199 307.135 16.6876C308.5 18.2605 317.672 20.771 317.672 20.771C317.672 20.771 308.24 21.9741 306.615 23.3803Z" fill="#CB6CE6"/>
</g>
</g>
</g>
<mask id="mask12_9_2" style="mask-type:luminance" maskUnits="userSpaceOnUse" x="288" y="35" width="17" height="18">
<path d="M288.656 35.6666H304.656V53H288.656V35.6666Z" fill="white"/>
</mask>
<g mask="url(#mask12_9_2)">
<mask id="mask13_9_2" style="mask-type:luminance" maskUnits="userSpaceOnUse" x="246" y="-10" width="134" height="135">
<path d="M246.635 38.2812L330.745 -9.21362L379.286 76.7395L295.177 124.24L246.635 38.2812Z" fill="white"/>
</mask>
<g mask="url(#mask13_9_2)">
<mask id="mask14_9_2" style="mask-type:luminance" maskUnits="userSpaceOnUse" x="246" y="-10" width="134" height="135">
<path d="M330.786 -9.23962L246.682 38.2552L295.219 124.214L379.328 76.7187L330.786 -9.23962Z" fill="white"/>
</mask>
<g mask="url(#mask14_9_2)">
<path d="M304.484 44.5833C304.484 44.5833 299.495 45.3333 298.651 46.1041C297.807 46.8698 296.641 51.7135 296.641 51.7135C296.641 51.7135 295.979 46.8229 295.146 45.9114C294.318 45 289.516 43.875 289.516 43.875C289.516 43.875 294.401 43.2135 295.318 42.3802C296.229 41.552 297.354 36.7448 297.354 36.7448C297.354 36.7448 298.104 41.7343 298.844 42.5468C299.589 43.3645 304.484 44.5833 304.484 44.5833Z" fill="#CB6CE6"/>
</g>
</g>
</g>
<path d="M348.469 89.599C348.448 89.599 348.427 89.599 348.406 89.599C347.974 89.5729 347.599 89.2969 347.443 88.8959L345.969 84.9792L345.88 85.3698C345.88 85.3802 345.875 85.3906 345.875 85.4011L345.458 87.0677C345.339 87.5573 344.901 87.8959 344.401 87.8959L340.771 87.9011C340.167 87.9011 339.677 87.4115 339.677 86.8125C339.677 86.2084 340.167 85.7188 340.771 85.7188L343.547 85.7136L343.75 84.8906L344.625 80.9271C344.729 80.4531 345.13 80.1094 345.615 80.0729C346.099 80.0365 346.542 80.3229 346.714 80.7761L348.615 85.8229L349.552 83.9948C349.74 83.6302 350.109 83.4011 350.516 83.4011C350.521 83.4011 350.521 83.4011 350.526 83.4011C350.927 83.4011 351.297 83.6198 351.49 83.9792L352.417 85.7136L356.339 85.7188C356.943 85.7188 357.432 86.2084 357.432 86.8125C357.432 87.4115 356.943 87.9011 356.339 87.9011L351.76 87.8959C351.359 87.8959 350.99 87.6771 350.797 87.3177L350.547 86.8438L349.438 89.0052C349.25 89.375 348.875 89.599 348.469 89.599Z" fill="white"/>
<path d="M354.885 97.1823C354.604 97.1823 354.323 97.0729 354.109 96.8593C352.703 95.4531 351.104 93.8541 349.677 92.276C349.271 91.8333 349.307 91.1406 349.755 90.7343C350.198 90.3333 350.891 90.3645 351.297 90.8125C352.432 92.0729 353.698 93.3541 354.88 94.5416C359.297 90.1198 363.609 85.5833 363.609 81.3698C363.609 79.2656 361.896 77.5573 359.792 77.5573C357.984 77.5573 356.333 79.2083 355.958 81.401C355.865 81.9427 355.385 82.3281 354.833 82.3073C354.286 82.2812 353.844 81.8541 353.792 81.3073C353.646 79.6093 351.911 77.552 349.974 77.552C348.953 77.552 347.99 77.9531 347.271 78.6823C346.844 79.1093 346.151 79.1093 345.724 78.6823C345.297 78.2604 345.297 77.5677 345.724 77.1406C346.859 76 348.37 75.3698 349.974 75.3698C351.99 75.3698 353.786 76.6198 354.88 78.2291C356.005 76.4791 357.807 75.3698 359.792 75.3698C363.099 75.3698 365.786 78.0625 365.786 81.3698C365.786 86.7343 360.635 91.8802 355.651 96.8593C355.443 97.0729 355.161 97.1823 354.885 97.1823Z" fill="white"/>
<mask id="mask15_9_2" style="mask-type:luminance" maskUnits="userSpaceOnUse" x="343" y="61" width="21" height="10">
<path d="M343.323 61.1406H363.323V70.3333H343.323V61.1406Z" fill="white"/>
</mask>
<g mask="url(#mask15_9_2)">
<path d="M361.682 70.125H345.37C344.766 70.125 344.281 69.6355 344.281 69.0365V62.2344C344.281 61.6355 344.766 61.1459 345.37 61.1459H361.682C362.286 61.1459 362.776 61.6355 362.776 62.2344V69.0365C362.776 69.6407 362.286 70.125 361.682 70.125ZM346.464 67.9427H360.589V63.3282H346.464V67.9427Z" fill="white"/>
</g>
<mask id="mask16_9_2" style="mask-type:luminance" maskUnits="userSpaceOnUse" x="331" y="65" width="45" height="55">
<path d="M331.005 65H375.583V119.521H331.005V65Z" fill="white"/>
</mask>
<g mask="url(#mask16_9_2)">
<path d="M370.385 119.182H336.672C333.599 119.182 331.099 116.682 331.099 113.609V70.6823C331.099 67.6094 333.599 65.1094 336.672 65.1094H345.37C345.974 65.1094 346.464 65.599 346.464 66.1979V67.9427H360.589V66.1979C360.589 65.599 361.078 65.1094 361.682 65.1094H370.385C373.458 65.1094 375.953 67.6094 375.953 70.6823V113.609C375.953 116.682 373.458 119.182 370.385 119.182ZM336.672 67.2917C334.802 67.2917 333.281 68.8125 333.281 70.6823V113.609C333.281 115.479 334.802 117 336.672 117H370.385C372.25 117 373.771 115.479 373.771 113.609V70.6823C373.771 68.8125 372.25 67.2917 370.385 67.2917H362.776V69.0365C362.776 69.6354 362.286 70.125 361.682 70.125H345.37C344.766 70.125 344.281 69.6354 344.281 69.0365V67.2917H336.672Z" fill="white"/>
</g>
<path d="M340.745 104.5C340.146 104.5 339.656 104.01 339.656 103.411C339.656 102.807 340.146 102.318 340.745 102.318L367.083 102.312C367.682 102.312 368.172 102.802 368.172 103.406C368.172 104.01 367.682 104.495 367.083 104.495L340.745 104.5Z" fill="white"/>
<path d="M340.74 110.703C340.135 110.703 339.651 110.214 339.651 109.609C339.646 109.005 340.135 108.521 340.74 108.516L367.073 108.51C367.677 108.51 368.167 109 368.167 109.599C368.167 110.203 367.677 110.693 367.073 110.693L340.74 110.703Z" fill="white"/>
<path d="M66.8082 160.654C68.7509 160.654 70.6416 160.362 72.4749 159.779C74.3082 159.185 75.652 158.612 76.5166 158.07L77.8082 157.195L83.2457 168.05C83.0634 168.19 82.8134 168.378 82.4957 168.612C82.1728 168.836 81.4384 169.253 80.2874 169.862C79.1311 170.477 77.8968 171.008 76.5791 171.466C75.2718 171.914 73.5478 172.31 71.4124 172.675C69.2874 173.034 67.0895 173.216 64.8291 173.216C59.6207 173.216 54.6832 171.94 50.0166 169.383C45.3603 166.831 41.6051 163.31 38.7457 158.82C35.8968 154.336 34.4749 149.487 34.4749 144.279C34.4749 140.352 35.3082 136.57 36.9749 132.945C38.652 129.32 40.8811 126.216 43.6624 123.633C46.4541 121.05 49.7041 118.998 53.4124 117.466C57.1311 115.925 60.9384 115.154 64.8291 115.154C68.4541 115.154 71.7926 115.586 74.8499 116.445C77.902 117.294 80.0634 118.149 81.3291 119.008L83.2457 120.3L77.8082 131.175C77.4853 130.899 77.0061 130.57 76.3707 130.195C75.7457 129.81 74.4801 129.3 72.5791 128.675C70.6728 128.039 68.7509 127.716 66.8082 127.716C63.7249 127.716 60.9593 128.216 58.5166 129.216C56.0686 130.206 54.1311 131.518 52.7041 133.154C51.2874 134.779 50.2041 136.529 49.4541 138.404C48.7041 140.279 48.3291 142.195 48.3291 144.154C48.3291 148.404 49.9228 152.216 53.1207 155.591C56.3134 158.966 60.8759 160.654 66.8082 160.654Z" fill="white"/>
<path d="M86.4312 172.195V113.779H98.452V141.029H98.577C101.702 137.904 105.025 136.341 108.556 136.341C110.275 136.341 111.983 136.57 113.681 137.029C115.39 137.477 117.02 138.175 118.577 139.133C120.145 140.081 121.416 141.425 122.39 143.175C123.358 144.914 123.848 146.935 123.848 149.237V172.195H111.827V152.508C111.827 150.69 111.249 149.107 110.098 147.758C108.942 146.399 107.436 145.716 105.577 145.716C103.77 145.716 102.129 146.419 100.66 147.82C99.1864 149.227 98.452 150.789 98.452 152.508V172.195H86.4312Z" fill="white"/>
<path d="M131.974 167.883C128.724 164.331 127.099 159.977 127.099 154.82C127.099 149.654 128.724 145.289 131.974 141.716C135.234 138.133 139.38 136.341 144.411 136.341C149.036 136.341 152.838 137.789 155.828 140.675V137.362H167.849V172.195H155.953V168.258H155.828C152.838 171.565 149.036 173.216 144.411 173.216C139.38 173.216 135.234 171.44 131.974 167.883ZM142.203 148.904C140.645 150.445 139.869 152.419 139.869 154.82C139.869 157.211 140.609 159.169 142.099 160.695C143.599 162.211 145.567 162.966 148.015 162.966C150.375 162.966 152.312 162.195 153.828 160.654C155.338 159.112 156.099 157.164 156.099 154.8C156.099 152.414 155.312 150.445 153.744 148.904C152.187 147.362 150.276 146.591 148.015 146.591C145.708 146.591 143.77 147.362 142.203 148.904Z" fill="white"/>
<path d="M174.301 172.195V137.362H186.322V142.383H186.447C186.541 142.206 186.687 141.982 186.885 141.716C187.093 141.44 187.536 140.961 188.218 140.279C188.895 139.602 189.619 138.987 190.385 138.445C191.161 137.904 192.161 137.419 193.385 136.987C194.603 136.56 195.848 136.341 197.114 136.341C198.416 136.341 199.702 136.524 200.968 136.883C202.244 137.248 203.176 137.607 203.76 137.966L204.718 138.508L199.697 148.695C198.197 147.435 196.114 146.8 193.447 146.8C191.999 146.8 190.76 147.123 189.718 147.758C188.676 148.383 187.937 149.149 187.51 150.05C187.077 150.956 186.77 151.727 186.593 152.362C186.411 153.003 186.322 153.503 186.322 153.862V172.195H174.301Z" fill="white"/>
<path d="M208.442 137.362V124.383H220.462V137.362H227.796V146.529H220.462V157.591C220.462 160.815 221.369 162.425 223.192 162.425C223.634 162.425 224.108 162.336 224.608 162.154C225.108 161.961 225.494 161.774 225.775 161.591L226.171 161.32L229.171 171.05C226.587 172.492 223.64 173.216 220.337 173.216C218.072 173.216 216.119 172.82 214.483 172.029C212.858 171.237 211.629 170.175 210.796 168.841C209.962 167.498 209.358 166.091 208.983 164.633C208.619 163.164 208.442 161.586 208.442 159.904V146.529H203.421V137.362H208.442Z" fill="white"/>
<path d="M274.537 172.195L265.579 140.758L256.621 172.195H242.412L226.454 116.175H240.642L250.225 154.612H250.558L260.746 116.175H270.392L280.579 154.612H280.933L290.496 116.175H304.621L288.662 172.195H274.537Z" fill="#CB6CE6"/>
<path d="M307.129 117.925C308.53 116.524 310.202 115.82 312.15 115.82C314.093 115.82 315.764 116.524 317.171 117.925C318.587 119.331 319.296 121.008 319.296 122.966C319.296 124.914 318.587 126.586 317.171 127.987C315.764 129.393 314.093 130.091 312.15 130.091C310.202 130.091 308.53 129.393 307.129 127.987C305.723 126.586 305.025 124.914 305.025 122.966C305.025 121.008 305.723 119.331 307.129 117.925ZM305.983 137.362V172.195H318.004V137.362H305.983Z" fill="#CB6CE6"/>
<path d="M326.814 137.362V124.383H338.835V137.362H346.168V146.529H338.835V157.591C338.835 160.815 339.741 162.425 341.564 162.425C342.007 162.425 342.48 162.336 342.98 162.154C343.48 161.961 343.866 161.774 344.147 161.591L344.543 161.32L347.543 171.05C344.96 172.492 342.012 173.216 338.71 173.216C336.444 173.216 334.491 172.82 332.855 172.029C331.23 171.237 330.001 170.175 329.168 168.841C328.335 167.498 327.73 166.091 327.355 164.633C326.991 163.164 326.814 161.586 326.814 159.904V146.529H321.793V137.362H326.814Z" fill="#CB6CE6"/>
<path d="M368.46 146.175C366.194 146.175 364.241 147.018 362.606 148.695C360.981 150.378 360.168 152.393 360.168 154.737C360.168 157.143 360.981 159.185 362.606 160.862C364.241 162.529 366.194 163.362 368.46 163.362C369.543 163.362 370.569 163.232 371.543 162.966C372.512 162.69 373.231 162.419 373.689 162.154L374.293 161.737L378.376 170.091C378.053 170.315 377.611 170.602 377.043 170.945C376.47 171.279 375.178 171.737 373.168 172.32C371.152 172.914 368.991 173.216 366.689 173.216C361.564 173.216 357.064 171.419 353.189 167.82C349.324 164.227 347.397 159.914 347.397 154.883C347.397 149.815 349.324 145.461 353.189 141.82C357.064 138.169 361.564 136.341 366.689 136.341C368.991 136.341 371.116 136.612 373.064 137.154C375.007 137.695 376.387 138.237 377.21 138.779L378.376 139.591L374.293 147.82C372.793 146.727 370.845 146.175 368.46 146.175Z" fill="#CB6CE6"/>
<path d="M381.562 172.195V113.779H393.583V141.029H393.708C396.833 137.904 400.156 136.341 403.687 136.341C405.406 136.341 407.114 136.57 408.812 137.029C410.52 137.477 412.151 138.175 413.708 139.133C415.276 140.081 416.547 141.425 417.52 143.175C418.489 144.914 418.979 146.935 418.979 149.237V172.195H406.958V152.508C406.958 150.69 406.38 149.107 405.229 147.758C404.073 146.399 402.567 145.716 400.708 145.716C398.901 145.716 397.26 146.419 395.791 147.82C394.317 149.227 393.583 150.789 393.583 152.508V172.195H381.562Z" fill="#CB6CE6"/>
<mask id="mask17_9_2" style="mask-type:luminance" maskUnits="userSpaceOnUse" x="9" y="91" width="86" height="56">
<path d="M9 91H94.9896V146.474H9V91Z" fill="white"/>
</mask>
<g mask="url(#mask17_9_2)">
<path d="M31.599 129.766C29.8906 127.031 28.25 124.245 26.6875 121.422C21.8906 122.771 17.0417 124.125 12.1875 125.474C17.4531 116.24 22.7188 107.005 27.9792 97.7709C29.6042 94.9167 31.6823 91.75 34.9375 91.3282C36.9063 91.073 38.8333 91.9167 40.6198 92.7813C48.3698 96.5313 55.75 101.042 62.4896 106.26C71.8802 102.115 92.0365 95.1042 94.5729 99.7969C97.1094 104.495 40.776 136.083 11.849 146.036C9.09896 146.984 8.53125 144.938 9.27604 143.625C11.9531 138.906 23.8281 129.995 29.974 126.807" fill="#4A4A4A"/>
</g>
<path d="M62.3073 106.156C60.3646 104.625 59.6875 104.188 58.0417 103.021C49.6614 112.005 39.6042 120.01 28.7448 125.047C29.1562 125.766 29.9062 127.031 31.3385 129.359C34.6354 127.698 44.3906 122.245 47.3229 120.094C51.2448 117.224 60.5885 110.667 62.3073 106.156Z" fill="#CB6CE6"/>
<mask id="mask18_9_2" style="mask-type:luminance" maskUnits="userSpaceOnUse" x="289" y="97" width="14" height="23">
<path d="M289.656 97.1406H302.99V119.807H289.656V97.1406Z" fill="white"/>
</mask>
<g mask="url(#mask18_9_2)">
<mask id="mask19_9_2" style="mask-type:luminance" maskUnits="userSpaceOnUse" x="290" y="97" width="18" height="23">
<path d="M296.12 97.5781L307.297 100.948L301.786 119.24L290.604 115.87L296.12 97.5781Z" fill="white"/>
</mask>
<g mask="url(#mask19_9_2)">
<mask id="mask20_9_2" style="mask-type:luminance" maskUnits="userSpaceOnUse" x="290" y="97" width="18" height="23">
<path d="M296.12 97.5781L307.297 100.948L301.786 119.24L290.604 115.87L296.12 97.5781Z" fill="white"/>
</mask>
<g mask="url(#mask20_9_2)">
<path d="M296.115 97.5886L293.292 106.969L290.464 116.349C294.214 117.474 297.964 118.599 301.708 119.719C299.844 112.344 297.979 104.969 296.115 97.5886Z" fill="#CB6CE6"/>
</g>
</g>
</g>
</svg>
